<svg width="408" height="100" viewBox="0 0 408 100" fill="none" xmlns="http://www.w3.org/2000/svg">
<g clip-path="url(#clip0_10_397)">
<path d="M148.452 74.4991C141.166 76.1385 126.412 78.5064 128.051 67.7596C129.326 59.745 142.076 59.745 150.273 60.8379L148.452 74.4991ZM121.676 44.8088C132.24 42.4409 151.548 36.0656 151.366 52.0948C142.076 52.2769 135.155 51.0019 126.412 54.0984C104.007 62.2951 110.747 93.807 150.273 84.3352C162.477 81.4208 160.291 80.6922 162.113 68.6704C164.299 54.6449 169.217 36.9764 149.727 32.2405C144.262 30.9655 130.419 31.694 125.137 33.5155L121.676 44.8088ZM304.372 53.552L280.51 53.7341C282.149 38.98 306.739 34.4263 304.372 53.552ZM309.29 72.8598C302.368 74.1348 296.903 76.8671 289.071 75.592C282.149 74.317 278.142 70.674 278.688 62.6594H315.847C316.94 51.5483 318.943 34.9727 300.364 32.0583C266.667 26.9582 253.916 69.7633 275.41 82.5137C283.971 87.6139 304.007 86.1567 306.193 82.6959C306.922 81.7851 308.925 74.4991 309.29 72.8598ZM363.388 72.3134L360.474 82.3316C373.042 89.6175 409.654 86.1567 401.821 64.4809C400.364 60.4736 397.268 58.1057 393.625 55.9199C391.257 54.4627 384.517 51.3662 383.06 49.7268C378.688 44.4445 386.157 37.3407 403.825 44.4445C404.918 42.9873 405.1 41.7123 405.829 39.7086C406.557 37.705 406.922 36.6121 407.468 34.6084C397.996 32.4226 388.889 29.8726 378.688 33.6977C371.038 36.6121 357.923 50.2733 379.417 61.9308C382.696 63.7523 388.342 65.756 388.16 69.9454C387.978 74.6813 381.967 75.592 377.049 75.4099C370.674 75.4099 368.67 73.7705 363.388 72.3134ZM361.931 34.4263C352.459 32.6048 342.623 29.5083 332.605 33.8798C328.415 35.7013 325.683 37.705 323.862 41.8944C315.847 60.6558 344.08 61.7487 342.805 70.3097C342.076 74.6813 336.248 75.592 331.33 75.4099C325.683 75.2277 323.133 73.9527 318.397 72.3134C316.94 74.1348 315.483 79.4172 315.3 82.3316C321.858 86.1567 337.341 86.7032 344.991 84.1531C352.459 81.603 361.02 73.7705 356.102 63.388C352.459 55.9199 339.162 53.0055 337.158 48.8161C334.426 43.3516 340.984 41.5301 345.173 41.348C351.002 41.1658 354.098 42.8052 358.834 44.4445L361.931 34.4263ZM218.579 34.6084C208.197 31.8762 197.996 30.0547 187.432 34.4263C168.852 41.8944 163.388 69.2168 178.506 80.8744C185.974 86.521 197.632 86.521 208.561 84.6995L212.386 73.2241C205.1 74.8634 198.361 76.8671 191.439 72.6777C180.51 65.9381 183.06 48.2696 195.811 43.5338C204.189 40.4372 208.197 42.9873 215.3 44.6267L218.579 34.6084ZM260.109 73.4062C252.459 74.8634 246.63 76.8671 239.526 73.0419C229.144 67.3953 230.055 49.1804 243.534 43.7159C251.912 40.2551 255.92 43.5338 263.024 44.6267L266.484 34.7906C255.555 31.8762 243.169 29.8726 232.969 35.5192C211.111 47.541 208.197 90.3461 251.73 85.4281C256.466 84.8817 256.284 85.4281 257.559 81.4208C258.47 78.6886 259.563 76.1385 260.109 73.4062Z" fill="#004185"/>
<path d="M40.8015 8.01457L85.9745 53.0055L46.9945 91.9854L8.01457 53.0055L26.776 33.6976H19.1257L0 53.0055L46.9945 100L93.8069 53.0055L40.9836 0L40.8015 8.01457Z" fill="#F57E20"/>
<path d="M40.9836 33.8797L32.7869 33.6975L14.0255 53.0054L46.9945 85.9744L79.9636 53.0054L40.9836 13.8433L40.8015 21.4935L72.3133 53.0054L46.9945 78.3241L21.8579 53.0054L40.9836 33.8797Z" fill="#F57E20"/>
<path d="M46.8123 41.7123L58.2878 53.0056L46.8123 64.2988L35.3369 53.0056L46.8123 41.7123ZM66.1202 53.0056L46.8123 33.6978L27.5045 53.0056L46.8123 72.3134L66.1202 53.0056Z" fill="#F57E20"/>
</g>
<defs>
<clipPath id="clip0_10_397">
<rect width="407.65" height="100" fill="white"/>
</clipPath>
</defs>
</svg>
