<svg width="376" height="100" viewBox="0 0 376 100" fill="none" xmlns="http://www.w3.org/2000/svg">
<g clip-path="url(#clip0_10_366)">
<path d="M23.0591 33.6228C31.0193 36.3988 33.5 39.407 33.5 45.2703C33.5 53.1369 27.4151 57.2225 16.601 57.2225C11.1586 57.2547 5.77498 56.097 0.826906 53.8306V44.1916C5.43007 46.8216 10.62 48.2536 15.9205 48.3563C20.4241 48.3563 22.6793 47.1206 22.6793 44.8074C22.6793 43.2671 22.0792 42.3413 19.7502 41.4893L10.3631 38.2504C2.62969 35.5521 0.00134277 32.5453 0.00134277 26.7611C0.00134277 19.0475 6.1601 15.4195 16.5218 15.4195C21.3739 15.3241 26.1969 16.1891 30.7134 17.9647V27.3717C26.4961 25.3418 21.8761 24.287 17.1957 24.2857C12.6129 24.2857 10.7337 25.1324 10.7337 27.2939C10.7337 28.6825 11.2612 29.5292 13.7366 30.3798L23.0591 33.6228Z" fill="#EC1B24"/>
<path d="M51.7428 56.2966H41.0012V20.7447C45.815 17.3401 51.5522 15.4838 57.4479 15.4233C62.3274 15.4233 66.082 16.5008 68.7895 18.5884C72.1258 16.4542 76.0182 15.3531 79.9781 15.4233C91.3936 15.4233 96.6516 20.9767 96.6516 32.3922V56.3019H85.9113V32.9329C85.9113 26.8388 83.8092 24.2935 79.0787 24.2935C77.0839 24.2947 75.1217 24.7991 73.3736 25.76C73.9144 27.9277 74.1676 30.1572 74.1266 32.3909V56.3006H63.3851V32.9329C63.3851 26.8388 61.2829 24.2935 56.5524 24.2935C54.8585 24.3376 53.2043 24.8158 51.7481 25.6822V56.2966H51.7428Z" fill="#EC1B24"/>
<path d="M103.937 43.5702C103.937 34.8569 108.894 31.2289 119.409 31.2289C122.696 31.2183 125.956 31.8194 129.023 33.0014C129.023 26.9864 126.847 24.362 120.462 24.362C115.958 24.3451 111.528 25.515 107.619 27.7539V18.5C112.256 16.3745 117.312 15.3198 122.412 15.414C133.975 15.414 139.833 20.5823 139.833 31.5309V52.1186C134.283 55.5361 127.875 57.3019 121.358 57.2091C108.589 57.221 103.937 52.5142 103.937 43.5702ZM129.017 47.3512V39.8684C126.66 38.9051 124.131 38.4326 121.585 38.4797C116.327 38.4797 114.673 40.2521 114.673 43.5702C114.673 46.9621 116.548 48.8124 121.585 48.8124C124.139 48.8745 126.676 48.3757 129.017 47.3512Z" fill="#EC1B24"/>
<path d="M178.732 27.6854C174.578 25.4644 169.923 24.349 165.214 24.4465C163.002 24.4402 160.818 24.9419 158.83 25.913V56.2966H148.094V20.6655C153.433 17.2557 159.632 15.4373 165.967 15.4233C170.368 15.3214 174.734 16.2187 178.737 18.0477V27.6868L178.732 27.6854Z" fill="#EC1B24"/>
<path d="M191.074 16.3489V4.39673H201.889V16.3489H212.551V25.2191H201.889V43.7284C201.889 46.9673 202.944 48.356 205.644 48.356C208.003 48.3534 210.343 47.9351 212.556 47.1203V55.3707C209.519 56.6601 206.241 57.2894 202.942 57.217C194.456 57.217 191.073 52.3586 191.073 44.4128V25.2139H184.689V16.3437H191.069L191.074 16.3489Z" fill="#EC1B24"/>
<path d="M227.794 38.0972C227.794 45.58 232.297 48.3561 237.856 48.3561C241.878 48.4405 245.84 47.3695 249.271 45.2701V54.6032C245.383 56.3807 241.15 57.2768 236.875 57.2276C223.51 57.2276 217.051 50.3698 217.051 38.1051V34.5444C217.051 22.2796 223.513 15.4219 236.875 15.4219C241.15 15.3719 245.383 16.2681 249.271 18.0463V27.3794C245.872 25.3354 241.975 24.2677 238.009 24.2934C232.378 24.2934 227.795 26.9178 227.795 34.5523L227.794 38.0972Z" fill="#EC1B24"/>
<path d="M256.038 43.5702C256.038 34.8569 260.995 31.2289 271.51 31.2289C274.797 31.2183 278.057 31.8194 281.124 33.0014C281.124 26.9864 278.948 24.362 272.564 24.362C268.059 24.3451 263.629 25.515 259.72 27.7539V18.5C264.357 16.3745 269.413 15.3198 274.513 15.414C286.076 15.414 291.934 20.5823 291.934 31.5309V52.1186C286.385 55.536 279.976 57.3018 273.459 57.2091C260.696 57.221 256.038 52.5142 256.038 43.5702ZM281.119 47.3512V39.8684C278.761 38.9051 276.232 38.4326 273.686 38.4797C268.429 38.4797 266.774 40.2521 266.774 43.5702C266.774 46.9621 268.65 48.8124 273.686 48.8124C276.241 48.8748 278.779 48.376 281.12 47.3512H281.119Z" fill="#EC1B24"/>
<path d="M320.762 33.6226C328.722 36.3986 331.203 39.4068 331.203 45.2701C331.203 53.1367 325.118 57.2223 314.304 57.2223C308.862 57.2543 303.479 56.0967 298.531 53.8304V44.1914C303.134 46.8214 308.324 48.2534 313.624 48.3561C318.128 48.3561 320.383 47.1204 320.383 44.8072C320.383 43.2669 319.783 42.3411 317.454 41.4892L308.067 38.2502C300.334 35.552 297.705 32.5451 297.705 26.7609C297.705 19.0473 303.864 15.4193 314.226 15.4193C319.078 15.3235 323.901 16.1885 328.417 17.9646V27.3715C324.2 25.3416 319.58 24.2868 314.9 24.2855C310.317 24.2855 308.438 25.1322 308.438 27.2937C308.438 28.6824 308.965 29.529 311.441 30.3796L320.762 33.6226Z" fill="#EC1B24"/>
<path d="M363.269 56.2953V32.9276C363.269 26.993 361.694 24.2882 356.436 24.2882C353.895 24.3699 351.446 25.2617 349.447 26.8335V56.2913H338.704V0H349.445V17.8934C352.429 16.3041 355.753 15.4582 359.133 15.4272C369.495 15.4272 374.005 20.7485 374.005 32.3961V56.3058H363.264L363.269 56.2953Z" fill="#EC1B24"/>
<path d="M290.776 89.1359C290.776 92.6703 289.626 95.2283 287.325 96.8099C285.024 98.3916 281.757 99.1829 277.524 99.1838H266.777C264.946 99.1838 264.03 98.3011 264.03 96.5357V66.9947C264.019 66.6606 264.077 66.3278 264.202 66.0175C264.326 65.7073 264.515 65.4265 264.754 65.1932C265.359 64.6833 266.141 64.4322 266.93 64.4943H277.027C280.249 64.321 283.454 65.0582 286.277 66.6215C288.512 68.0396 289.627 70.4306 289.624 73.7944C289.634 74.6814 289.516 75.5653 289.274 76.4188C289.064 77.1534 288.744 77.8519 288.325 78.4906C287.942 79.0696 287.47 79.5846 286.927 80.0165C286.411 80.4229 285.859 80.7822 285.278 81.09C286.198 81.3794 287.061 81.8255 287.829 82.4088C288.501 82.9295 289.076 83.5643 289.528 84.2841C289.964 84.9949 290.285 85.7709 290.477 86.5827C290.678 87.4189 290.778 88.276 290.776 89.1359ZM282.427 74.4367C282.428 73.9095 282.343 73.3858 282.177 72.8858C282.003 72.352 281.707 71.8663 281.312 71.4672C280.917 71.0681 280.435 70.7667 279.903 70.5871C279.155 70.3341 278.368 70.2158 277.579 70.2376H270.88V78.6845H277.579C278.368 78.7063 279.155 78.588 279.903 78.335C280.463 78.1383 280.969 77.8131 281.38 77.3855C281.741 76.9915 282.012 76.5228 282.171 76.0126C282.34 75.5042 282.427 74.9723 282.428 74.4367H282.427ZM283.578 88.9341C283.58 88.3426 283.495 87.754 283.328 87.1867C283.159 86.6183 282.849 86.102 282.427 85.6859C281.944 85.2231 281.364 84.8736 280.729 84.6626C279.89 84.3909 279.011 84.2643 278.129 84.288H270.876V93.4879H278.129C278.882 93.5597 279.642 93.4748 280.36 93.2385C281.078 93.0022 281.74 92.6197 282.303 92.1151C283.126 91.261 283.584 90.1201 283.58 88.9341H283.578Z" fill="#EC1B24"/>
<path d="M317.123 96.7847C317.158 97.1664 317.112 97.5512 316.987 97.9137C316.862 98.2761 316.662 98.6078 316.399 98.8869C315.677 99.391 314.799 99.6215 313.923 99.537C313.085 99.5833 312.255 99.3645 311.549 98.9119C311.239 98.6571 310.996 98.3295 310.844 97.9583C310.691 97.5872 310.632 97.184 310.673 96.7847V95.884C310.29 96.3714 309.881 96.838 309.448 97.2819C308.962 97.7763 308.407 98.1975 307.799 98.5321C307.082 98.9258 306.318 99.2284 305.526 99.4328C304.546 99.6787 303.538 99.7962 302.528 99.7823C300.266 99.9106 298.04 99.1689 296.306 97.7092C295.55 97.0082 294.954 96.1513 294.562 95.1977C294.169 94.2441 293.988 93.2165 294.031 92.1861C293.998 91.0162 294.229 89.8539 294.705 88.7849C295.137 87.8735 295.768 87.0707 296.551 86.4361C297.375 85.7802 298.306 85.2724 299.304 84.9353C300.386 84.5597 301.498 84.2747 302.627 84.0834C303.892 83.8526 305.167 83.6654 306.452 83.5322C307.736 83.399 309.125 83.2816 310.626 83.1827V82.2332C310.625 81.734 310.557 81.2372 310.424 80.7561C310.29 80.2757 310.061 79.8272 309.75 79.4373C309.4 79.012 308.945 78.6849 308.431 78.4878C307.759 78.2371 307.046 78.1184 306.329 78.1383C305.835 78.1367 305.341 78.1698 304.852 78.2372C304.41 78.3046 303.975 78.4132 303.553 78.5617C303.101 78.7273 302.665 78.9366 302.254 79.1868C301.805 79.4505 301.294 79.7723 300.728 80.1363C300.336 80.412 299.927 80.6618 299.503 80.884C299.06 81.0982 298.572 81.2014 298.08 81.1847C297.295 81.1629 296.55 80.8379 296 80.2779C295.45 79.718 295.139 78.9666 295.131 78.1819C295.167 77.5148 295.411 76.8757 295.83 76.3553C296.405 75.613 297.129 74.9994 297.956 74.5539C299.056 73.9429 300.234 73.4812 301.456 73.181C303.052 72.7897 304.692 72.6045 306.336 72.6297C310.171 72.6297 312.929 73.3797 314.611 74.8796C316.293 76.3795 317.135 78.7129 317.136 81.8797V96.79L317.123 96.7847ZM310.626 87.387C309.361 87.5189 308.149 87.6732 307.003 87.8354C305.857 87.9976 304.994 88.1506 304.429 88.2838C303.26 88.4058 302.163 88.9054 301.303 89.7068C300.855 90.231 300.599 90.8927 300.579 91.5821C300.557 91.9564 300.616 92.3312 300.753 92.6805C300.889 93.0297 301.1 93.3452 301.37 93.6051C302.172 94.1674 303.148 94.4243 304.123 94.3291C305.84 94.4386 307.541 93.9343 308.922 92.9061C309.467 92.4651 309.904 91.9045 310.199 91.2677C310.494 90.6308 310.638 89.9347 310.62 89.2333V87.387H310.626Z" fill="#EC1B24"/>
<path d="M337.572 72.6378C339.058 72.5885 340.536 72.871 341.899 73.4647C343.056 74.0232 344.072 74.8345 344.873 75.8385C345.724 76.9327 346.26 78.2381 346.424 79.6143C346.586 80.9159 346.67 82.226 346.675 83.5376V96.7849C346.71 97.1778 346.651 97.5733 346.503 97.9389C346.355 98.3044 346.121 98.6294 345.823 98.887C345.049 99.3776 344.137 99.6056 343.223 99.5372C342.355 99.5702 341.496 99.3533 340.747 98.9121C340.411 98.6741 340.144 98.3517 339.973 97.9775C339.802 97.6033 339.733 97.1905 339.772 96.781V83.6524C339.833 82.5651 339.68 81.4766 339.324 80.4477C339.064 79.8208 338.572 79.3182 337.951 79.0445C336.49 78.5029 334.881 78.5132 333.427 79.0735C332.837 79.3296 332.296 79.6866 331.828 80.1286C331.421 80.5109 331.082 80.9606 330.828 81.4579C330.616 81.8741 330.448 82.3112 330.326 82.7622C330.148 83.4324 330.055 84.1223 330.05 84.8156C330.03 85.5831 330.025 86.2385 330.025 86.77V96.6399C330.064 97.0499 330.011 97.4635 329.867 97.8497C329.724 98.2359 329.495 98.5847 329.198 98.8699C328.39 99.3926 327.43 99.6299 326.471 99.5438C325.606 99.5907 324.748 99.3631 324.019 98.8936C323.704 98.6368 323.457 98.3061 323.3 97.931C323.142 97.5558 323.08 97.1476 323.119 96.7427V76.0944C323.083 75.2886 323.36 74.5003 323.891 73.8933C324.254 73.5746 324.679 73.3344 325.139 73.1878C325.599 73.0411 326.084 72.9913 326.565 73.0414C327.368 73.0255 328.162 73.2244 328.863 73.6177C329.225 73.8778 329.509 74.2315 329.685 74.6409C329.862 75.0502 329.923 75.4998 329.863 75.9414V76.5428C330.657 75.4236 331.689 74.4941 332.885 73.8208C334.31 73.0045 335.931 72.5952 337.572 72.6378Z" fill="#EC1B24"/>
<path d="M356.219 99.5305C353.851 99.5305 352.668 98.6311 352.67 96.8323V67.0856C352.67 65.1215 353.87 64.1385 356.269 64.1368C357.083 64.1241 357.886 64.3314 358.593 64.7369C358.937 64.9493 359.215 65.2535 359.396 65.6153C359.576 65.9771 359.653 66.3821 359.616 66.7849V82.0302L367.162 75.03C367.704 74.4991 368.288 74.0138 368.91 73.5793C369.461 73.2309 370.104 73.0559 370.756 73.0769C371.233 73.0709 371.705 73.1823 372.129 73.4013C372.524 73.6017 372.887 73.8624 373.202 74.1741C373.463 74.4342 373.675 74.7394 373.827 75.0748C373.985 75.4382 374.062 75.8314 374.054 76.2275C374.015 76.6499 373.888 77.0596 373.681 77.43C373.474 77.8005 373.192 78.1235 372.853 78.3784L367.153 83.3793L374.699 94.9767C375.084 95.5027 375.309 96.1279 375.349 96.7782C375.35 97.1565 375.262 97.5297 375.092 97.8681C374.923 98.2064 374.677 98.5007 374.375 98.7274C373.636 99.2856 372.725 99.5657 371.8 99.5187C370.983 99.5583 370.181 99.2916 369.55 98.7709C368.904 98.1723 368.349 97.4823 367.902 96.7228L362.054 87.5216L359.603 89.8203V96.7175C359.641 97.1225 359.579 97.5306 359.422 97.9058C359.265 98.281 359.017 98.6116 358.702 98.8685C357.965 99.3459 357.096 99.5777 356.219 99.5305Z" fill="#EC1B24"/>
<path d="M175.204 78.4469C174.966 78.462 174.73 78.396 174.534 78.2596C174.448 78.1712 174.383 78.0649 174.344 77.9484C174.304 77.8319 174.29 77.7081 174.303 77.5857V64.5996C174.291 64.4715 174.309 64.3423 174.354 64.222C174.4 64.1017 174.473 63.9936 174.567 63.9059C174.769 63.7577 175.016 63.6832 175.266 63.6949H179.002C180.49 63.5725 181.974 63.9747 183.196 64.8317C183.65 65.2398 184.006 65.7454 184.237 66.3107C184.469 66.8759 184.569 67.4862 184.531 68.0957C184.523 68.5519 184.457 69.0052 184.334 69.4448C184.187 69.9764 183.919 70.4667 183.551 70.877C183.099 71.3685 182.547 71.7564 181.931 72.0138C181.072 72.354 180.152 72.5117 179.229 72.4767H176.118V77.591C176.132 77.7143 176.118 77.8392 176.076 77.9561C176.034 78.0729 175.966 78.1786 175.877 78.2649C175.679 78.3993 175.442 78.4634 175.204 78.4469ZM178.753 70.8902C179.378 70.9049 180.002 70.8371 180.608 70.6884C181.044 70.5856 181.453 70.3929 181.81 70.1226C182.099 69.8916 182.322 69.5875 182.455 69.2417C182.591 68.8747 182.657 68.4857 182.651 68.0944C182.654 67.7105 182.591 67.329 182.464 66.9668C182.336 66.6195 182.121 66.3111 181.839 66.0713C181.502 65.7963 181.111 65.5951 180.692 65.4805C180.121 65.3259 179.53 65.2544 178.939 65.2682H176.119V70.8902H178.753Z" fill="#EC1B24"/>
<path d="M192.384 71.7132V71.2898C192.409 70.9657 192.368 70.6398 192.262 70.3324C192.156 70.025 191.988 69.7427 191.768 69.5029C191.204 69.0577 190.49 68.8462 189.774 68.9121C189.206 68.9012 188.645 69.0477 188.155 69.3354C187.986 69.433 187.832 69.5538 187.697 69.6941C187.578 69.826 187.475 69.9354 187.392 70.0291C187.295 70.1606 187.175 70.2739 187.038 70.364C186.922 70.4231 186.793 70.4517 186.663 70.4472C186.441 70.4492 186.225 70.3783 186.047 70.2454C185.96 70.19 185.889 70.1135 185.84 70.0231C185.791 69.9327 185.766 69.8313 185.766 69.7284C185.764 69.6357 185.774 69.543 185.795 69.4528C185.821 69.3736 185.852 69.2964 185.889 69.222C185.96 69.0939 186.044 68.9733 186.14 68.862C186.341 68.6189 186.576 68.4065 186.838 68.2316C187.213 67.9771 187.62 67.7753 188.049 67.6315C188.632 67.4415 189.243 67.3523 189.856 67.3677C190.54 67.3509 191.221 67.454 191.87 67.6724C192.364 67.8419 192.815 68.1194 193.188 68.4848C193.517 68.8134 193.766 69.2126 193.916 69.6519C194.07 70.0952 194.148 70.561 194.147 71.03V77.744C194.147 78.2069 193.847 78.4377 193.252 78.4377C192.848 78.4377 192.602 78.3441 192.508 78.1621C192.408 77.9222 192.363 77.6632 192.376 77.4038V76.7734C192.223 76.9882 192.055 77.1922 191.874 77.384C191.66 77.6075 191.418 77.8025 191.155 77.9642C190.836 78.1553 190.491 78.3008 190.132 78.3968C189.685 78.5155 189.224 78.5718 188.763 78.5643C188.214 78.5751 187.667 78.4972 187.143 78.3335C186.727 78.2002 186.343 77.9824 186.016 77.6939C185.721 77.4267 185.491 77.0949 185.346 76.7246C185.197 76.3467 185.122 75.9438 185.124 75.5377C185.119 75.0179 185.218 74.5024 185.414 74.0211C185.628 73.5369 185.977 73.1248 186.419 72.8342C186.995 72.4598 187.636 72.196 188.309 72.0561C189.286 71.8449 190.283 71.7361 191.283 71.7317L192.384 71.7132ZM191.237 73.1414C190.509 73.1422 189.783 73.2049 189.066 73.3287C188.604 73.4056 188.159 73.5585 187.747 73.781C187.461 73.9338 187.23 74.1734 187.088 74.4655C186.965 74.7516 186.905 75.0604 186.911 75.3715C186.907 75.599 186.949 75.8249 187.033 76.0362C187.118 76.2474 187.243 76.4397 187.403 76.6019C187.624 76.7936 187.881 76.9382 188.159 77.0271C188.438 77.116 188.732 77.1472 189.022 77.1189C189.646 77.1267 190.26 76.9707 190.804 76.6666C191.301 76.4021 191.722 76.0137 192.025 75.539C192.284 75.0698 192.407 74.5377 192.38 74.0026V73.1164L191.237 73.1414Z" fill="#EC1B24"/>
<path d="M199.608 82.2133C199.533 82.3799 199.426 82.5304 199.293 82.6565C199.149 82.7649 198.971 82.8173 198.791 82.8042C198.572 82.8091 198.358 82.7377 198.185 82.6024C198.103 82.5359 198.037 82.4509 197.993 82.3542C197.95 82.2574 197.93 82.1518 197.935 82.0458C197.936 81.9616 197.946 81.8777 197.964 81.7953C197.991 81.6703 198.036 81.5496 198.096 81.4365L199.622 77.9853L195.969 69.1046C195.914 68.9727 195.855 68.8342 195.801 68.7155C195.749 68.6063 195.72 68.4871 195.718 68.366C195.717 68.2514 195.746 68.1385 195.803 68.039C195.86 67.9395 195.943 67.8571 196.042 67.8003C196.255 67.6594 196.506 67.5855 196.761 67.588C197.081 67.588 197.318 67.7849 197.471 68.1788L200.582 75.8831L203.86 68.1392C203.918 67.9813 204.01 67.8383 204.13 67.7211C204.242 67.631 204.383 67.5841 204.526 67.5892C204.769 67.5875 205.007 67.6523 205.216 67.7765C205.313 67.8299 205.394 67.9091 205.45 68.0053C205.506 68.1016 205.534 68.2113 205.531 68.3225C205.528 68.4344 205.503 68.5447 205.457 68.6469C205.408 68.7656 205.354 68.8882 205.3 69.0162L199.608 82.2133Z" fill="#EC1B24"/>
<path d="M218.877 67.3757C219.83 67.325 220.765 67.646 221.486 68.2712C221.829 68.6364 222.092 69.0696 222.257 69.5428C222.423 70.016 222.487 70.5187 222.446 71.0182V77.7137C222.446 78.2061 222.16 78.4523 221.589 78.4523C220.978 78.4523 220.665 78.2057 220.665 77.7137V71.5906C220.669 71.2306 220.638 70.871 220.572 70.5171C220.521 70.2234 220.403 69.9454 220.228 69.7047C220.049 69.4803 219.815 69.3059 219.548 69.1983C219.198 69.069 218.825 69.009 218.451 69.0216C217.97 69.005 217.496 69.1372 217.093 69.4001C216.734 69.6494 216.44 69.982 216.237 70.3694C216.019 70.7829 215.868 71.2279 215.789 71.6882C215.702 72.1669 215.657 72.6523 215.657 73.1389V77.7071C215.657 78.1995 215.371 78.4457 214.799 78.4457C214.189 78.4457 213.876 78.199 213.876 77.7071V71.584C213.88 71.224 213.849 70.8644 213.783 70.5105C213.732 70.2168 213.614 69.9388 213.438 69.6981C213.259 69.4737 213.025 69.2993 212.759 69.1917C212.408 69.0624 212.036 69.0024 211.662 69.015C211.182 68.9979 210.709 69.1266 210.304 69.3842C209.944 69.6287 209.65 69.9586 209.448 70.3443C209.233 70.7587 209.081 71.2034 208.999 71.6631C208.912 72.1418 208.868 72.6273 208.868 73.1138V77.5977C208.882 77.7188 208.868 77.8417 208.826 77.9563C208.784 78.0709 208.716 78.174 208.626 78.2571C208.431 78.3849 208.2 78.4469 207.967 78.4338C207.738 78.4485 207.511 78.3863 207.322 78.2571C207.236 78.1717 207.171 78.068 207.131 77.9539C207.091 77.8397 207.077 77.7179 207.091 77.5977V68.378C207.077 68.2642 207.088 68.1487 207.124 68.0397C207.16 67.9307 207.219 67.831 207.298 67.7476C207.481 67.6224 207.702 67.5634 207.923 67.5802C208.148 67.5642 208.371 67.623 208.559 67.7476C208.641 67.8292 208.703 67.9284 208.74 68.0377C208.778 68.147 208.79 68.2634 208.775 68.378V69.3671C208.822 69.2369 208.878 69.1104 208.943 68.9886C209.081 68.7274 209.265 68.4926 209.485 68.2949C209.784 68.0254 210.127 67.809 210.499 67.6553C211.005 67.4513 211.548 67.3539 212.093 67.3691C212.821 67.3382 213.542 67.5177 214.17 67.8861C214.694 68.2176 215.1 68.7072 215.327 69.284C215.63 68.6952 216.103 68.2113 216.685 67.8953C217.359 67.5366 218.114 67.3576 218.877 67.3757Z" fill="#EC1B24"/>
<path d="M234.467 72.767C234.467 73.2734 234.182 73.5253 233.609 73.5253H226.512C226.449 74.4773 226.751 75.4175 227.358 76.1537C227.666 76.4702 228.039 76.7164 228.451 76.8757C228.863 77.035 229.305 77.1036 229.745 77.0768C230.103 77.0834 230.46 77.0304 230.8 76.9199C231.071 76.8299 231.328 76.7025 231.564 76.5414C231.753 76.4123 231.924 76.2604 232.076 76.0891C232.208 75.9361 232.317 75.8042 232.4 75.6934C232.479 75.5759 232.573 75.4698 232.681 75.3782C232.802 75.3001 232.946 75.264 233.09 75.2754C233.296 75.2801 233.496 75.3452 233.666 75.4626C233.753 75.5155 233.824 75.59 233.873 75.6788C233.923 75.7676 233.948 75.8676 233.947 75.9691C233.929 76.2053 233.85 76.4328 233.716 76.6284C233.569 76.854 233.405 77.0679 233.224 77.2681C232.996 77.5206 232.737 77.7422 232.452 77.9275C232.099 78.1554 231.716 78.3329 231.315 78.455C230.807 78.6056 230.279 78.6771 229.749 78.6673C229.023 78.6768 228.303 78.5377 227.633 78.2585C227.015 77.9951 226.463 77.6004 226.013 77.1019C225.553 76.5825 225.205 75.9743 224.99 75.3149C224.517 73.8256 224.517 72.2267 224.99 70.7374C225.207 70.0841 225.552 69.4803 226.004 68.961C226.439 68.4633 226.98 68.0682 227.586 67.8044C228.242 67.5229 228.95 67.3835 229.664 67.3956C230.374 67.3828 231.079 67.5222 231.731 67.8044C232.31 68.0668 232.823 68.4552 233.232 68.9412C233.649 69.4471 233.962 70.0295 234.155 70.6557C234.369 71.3389 234.474 72.0513 234.467 72.767ZM229.668 68.9122C229.23 68.9018 228.796 68.9841 228.392 69.1535C228.042 69.3061 227.727 69.5308 227.469 69.8129C227.213 70.0968 227.011 70.4253 226.873 70.7823C226.725 71.1561 226.63 71.549 226.592 71.9494H232.666C232.623 71.558 232.535 71.173 232.403 70.802C232.278 70.4465 232.087 70.1177 231.841 69.8327C231.587 69.5535 231.279 69.3291 230.935 69.1733C230.536 68.9958 230.104 68.9067 229.668 68.9122Z" fill="#EC1B24"/>
<path d="M238.37 77.6056C238.385 77.7267 238.371 77.8496 238.329 77.9642C238.287 78.0788 238.218 78.1818 238.129 78.265C237.934 78.3927 237.703 78.4547 237.47 78.4417C237.241 78.4564 237.014 78.3942 236.825 78.265C236.739 78.1796 236.673 78.076 236.633 77.9618C236.594 77.8476 236.58 77.7258 236.594 77.6056V68.3859C236.58 68.2721 236.591 68.1565 236.627 68.0476C236.663 67.9386 236.722 67.8389 236.801 67.7555C236.984 67.6303 237.205 67.5712 237.426 67.588C237.651 67.5719 237.874 67.6308 238.062 67.7555C238.143 67.8371 238.206 67.9363 238.243 68.0456C238.281 68.1549 238.292 68.2713 238.278 68.3859V69.375C238.481 69.0009 238.749 68.666 239.069 68.3859C239.399 68.1027 239.769 67.869 240.166 67.6922C240.705 67.4644 241.286 67.3569 241.87 67.377C242.846 67.3341 243.802 67.6642 244.544 68.3002C244.907 68.6734 245.186 69.1199 245.362 69.6098C245.539 70.0998 245.609 70.6218 245.567 71.1408V77.7071C245.567 78.1995 245.282 78.4456 244.711 78.4456C244.1 78.4456 243.788 78.199 243.788 77.7071V71.5826C243.832 70.9117 243.652 70.2451 243.276 69.6875C243.039 69.4442 242.749 69.2582 242.429 69.1439C242.109 69.0296 241.768 68.99 241.43 69.0281C240.938 69.0146 240.453 69.1427 240.032 69.3974C239.645 69.6397 239.32 69.9683 239.082 70.3575C238.834 70.7662 238.651 71.2111 238.54 71.6763C238.424 72.1483 238.364 72.6328 238.364 73.119V77.6029L238.37 77.6056Z" fill="#EC1B24"/>
<path d="M247.768 69.2524C247.665 69.2662 247.56 69.255 247.462 69.2199C247.365 69.1848 247.277 69.1268 247.206 69.0506C247.109 68.8811 247.058 68.6893 247.058 68.494C247.058 68.2988 247.109 68.107 247.206 67.9375C247.277 67.8621 247.365 67.8045 247.463 67.7694C247.561 67.7344 247.665 67.7228 247.768 67.7358H248.708V65.5716C248.699 65.3719 248.724 65.1721 248.782 64.9808C248.843 64.8396 248.949 64.722 249.083 64.6458C249.327 64.4946 249.608 64.4147 249.895 64.415C250.284 64.415 250.481 64.6168 250.481 65.0257V67.7384H252.444C252.547 67.7247 252.652 67.7359 252.75 67.771C252.848 67.8061 252.935 67.8641 253.006 67.9402C253.114 68.1052 253.165 68.3002 253.154 68.4967C253.166 68.6933 253.114 68.8886 253.006 69.0532C252.935 69.1287 252.847 69.1863 252.749 69.2213C252.652 69.2564 252.547 69.2679 252.444 69.255H250.481V75.4823C250.437 75.9231 250.535 76.3664 250.762 76.7471C250.885 76.8703 251.034 76.9644 251.198 77.0224C251.363 77.0803 251.538 77.1007 251.711 77.082C251.857 77.0862 252.002 77.0643 252.14 77.0174C252.25 76.979 252.358 76.935 252.464 76.8855C252.563 76.8407 252.657 76.8024 252.745 76.7536C252.847 76.7073 252.958 76.6852 253.069 76.689C253.168 76.6899 253.265 76.7128 253.354 76.7562C253.442 76.7996 253.52 76.8622 253.581 76.9396C253.729 77.1083 253.808 77.3261 253.803 77.5502C253.803 77.8852 253.586 78.1502 253.158 78.3415C252.639 78.5459 252.085 78.6428 251.528 78.6263C251.144 78.6575 250.757 78.6112 250.391 78.4903C250.025 78.3693 249.687 78.1761 249.397 77.9221C249.152 77.642 248.966 77.3164 248.847 76.9641C248.729 76.6117 248.681 76.2395 248.707 75.8687V69.2471L247.768 69.2524Z" fill="#EC1B24"/>
<path d="M193.845 91.7246C194.849 91.9727 195.768 92.4844 196.508 93.207C197.1 93.9149 197.402 94.8202 197.355 95.7417C197.372 96.4033 197.232 97.0596 196.946 97.6565C196.686 98.1705 196.317 98.6208 195.863 98.9753C195.397 99.3314 194.865 99.5922 194.298 99.7429C193.702 99.9051 193.088 99.9863 192.471 99.9842C191.455 99.9883 190.445 99.8389 189.473 99.5411C188.542 99.2612 187.703 98.7376 187.042 98.0245C186.897 97.8876 186.786 97.7193 186.717 97.5326C186.684 97.4123 186.666 97.2882 186.663 97.1633C186.666 97.0444 186.696 96.9278 186.751 96.822C186.806 96.7163 186.883 96.6242 186.978 96.5527C187.152 96.3841 187.381 96.2859 187.623 96.2771C187.745 96.2903 187.86 96.3358 187.958 96.409C188.055 96.4779 188.145 96.5551 188.229 96.6398C188.778 97.2449 189.453 97.7221 190.207 98.0377C190.917 98.2934 191.668 98.4185 192.422 98.4069C193.203 98.4393 193.974 98.2222 194.623 97.7871C194.909 97.5807 195.138 97.3056 195.29 96.9873C195.441 96.669 195.51 96.3177 195.49 95.9658C195.506 95.6603 195.459 95.3548 195.351 95.0684C195.244 94.782 195.078 94.5209 194.865 94.3015C194.265 93.8009 193.557 93.4469 192.797 93.2676L190.981 92.7401C189.912 92.4938 188.919 91.9884 188.091 91.2683C187.763 90.9256 187.509 90.5187 187.346 90.0732C187.183 89.6277 187.113 89.1532 187.142 88.6795C187.124 88.046 187.279 87.4197 187.59 86.8675C187.883 86.3703 188.281 85.9435 188.757 85.6173C189.239 85.287 189.775 85.0421 190.34 84.8933C190.902 84.7421 191.481 84.6645 192.062 84.6625C192.985 84.6567 193.901 84.8203 194.764 85.1452C195.611 85.4726 196.352 86.0259 196.906 86.7449C197 86.8662 197.078 86.9991 197.137 87.1405C197.179 87.2472 197.201 87.3608 197.202 87.4755C197.204 87.588 197.181 87.6995 197.134 87.8018C197.087 87.9041 197.018 87.9946 196.931 88.0663C196.772 88.2137 196.563 88.296 196.346 88.2971C196.212 88.2988 196.08 88.2666 195.962 88.2035C195.811 88.1149 195.674 88.0057 195.553 87.879C195.108 87.3544 194.562 86.9243 193.948 86.6143C193.35 86.3512 192.701 86.222 192.048 86.2358C191.667 86.2345 191.288 86.2842 190.92 86.3835C190.574 86.4745 190.246 86.6244 189.951 86.8266C189.668 87.0207 189.432 87.2764 189.261 87.5744C189.083 87.8927 188.992 88.2526 188.997 88.6175C188.995 88.8635 189.033 89.1081 189.111 89.3416C189.195 89.5751 189.33 89.7869 189.506 89.9614C189.734 90.187 189.999 90.3717 190.29 90.5074C190.693 90.7019 191.111 90.8633 191.54 90.9901L193.845 91.7246Z" fill="#EC1B24"/>
<path d="M208.835 94.1024C208.835 94.6088 208.55 94.8607 207.979 94.8607H200.88C200.816 95.8127 201.119 96.7529 201.726 97.4891C202.034 97.8055 202.407 98.0518 202.819 98.2111C203.231 98.3704 203.672 98.439 204.113 98.4122C204.471 98.4188 204.828 98.3658 205.168 98.2553C205.439 98.1653 205.696 98.0379 205.932 97.8768C206.12 97.7477 206.292 97.5958 206.444 97.4244C206.576 97.2715 206.684 97.1396 206.768 97.0288C206.847 96.9113 206.941 96.8053 207.049 96.7136C207.17 96.6355 207.314 96.5994 207.458 96.6107C207.664 96.6155 207.864 96.6806 208.034 96.798C208.121 96.8508 208.192 96.9253 208.241 97.014C208.291 97.1028 208.316 97.2029 208.315 97.3044C208.297 97.5407 208.218 97.7681 208.084 97.9638C207.937 98.1894 207.772 98.4033 207.592 98.6035C207.364 98.856 207.105 99.0777 206.819 99.2629C206.467 99.4908 206.084 99.6683 205.683 99.7904C205.175 99.9405 204.647 100.012 204.117 100.001C203.391 100.011 202.671 99.8718 202.001 99.5925C201.383 99.3291 200.831 98.9345 200.381 98.436C199.921 97.9165 199.573 97.3083 199.358 96.649C198.885 95.1597 198.885 93.5608 199.358 92.0715C199.575 91.4177 199.92 90.8134 200.372 90.2937C200.807 89.796 201.348 89.401 201.954 89.1372C202.61 88.8556 203.318 88.7163 204.032 88.7283C204.742 88.7156 205.447 88.855 206.099 89.1372C206.678 89.3996 207.191 89.788 207.6 90.274C208.017 90.7798 208.33 91.3622 208.523 91.9884C208.737 92.6725 208.842 93.3858 208.835 94.1024ZM204.035 90.2476C203.598 90.2372 203.164 90.3194 202.76 90.4889C202.41 90.6415 202.095 90.8661 201.837 91.1483C201.581 91.4321 201.378 91.7607 201.241 92.1176C201.093 92.4915 200.998 92.8844 200.96 93.2847H207.034C206.991 92.8934 206.903 92.5084 206.771 92.1374C206.646 91.7819 206.455 91.4531 206.209 91.1681C205.955 90.8889 205.647 90.6645 205.303 90.5087C204.904 90.3311 204.472 90.242 204.035 90.2476Z" fill="#EC1B24"/>
<path d="M212.74 98.9344C212.754 99.0556 212.74 99.1785 212.698 99.2931C212.656 99.4077 212.588 99.5107 212.498 99.5938C212.303 99.7217 212.072 99.7836 211.839 99.7706C211.61 99.7853 211.383 99.7231 211.194 99.5938C211.108 99.5085 211.043 99.4048 211.003 99.2906C210.963 99.1764 210.949 99.0546 210.963 98.9344V89.7148C210.949 89.6009 210.96 89.4854 210.996 89.3765C211.032 89.2675 211.091 89.1678 211.17 89.0844C211.353 88.9592 211.574 88.9001 211.795 88.9169C212.02 88.9009 212.243 88.9598 212.431 89.0844C212.513 89.1659 212.575 89.2652 212.612 89.3745C212.65 89.4837 212.662 89.6002 212.647 89.7148V90.9162C212.936 90.3108 213.392 89.8008 213.962 89.4467C214.531 89.0925 215.19 88.9092 215.861 88.9182C215.983 88.8941 216.109 88.9003 216.228 88.9362C216.347 88.972 216.455 89.0365 216.544 89.1239C216.632 89.2114 216.698 89.3191 216.735 89.4377C216.772 89.5564 216.779 89.6823 216.757 89.8044C216.778 90.0597 216.704 90.3137 216.55 90.5179C216.457 90.6026 216.348 90.6668 216.229 90.7066C216.11 90.7464 215.985 90.7607 215.86 90.7487C213.773 90.7487 212.729 92.0613 212.729 94.6866V98.9344H212.74Z" fill="#EC1B24"/>
<path d="M217.581 90.4389C217.527 90.307 217.473 90.1685 217.424 90.0498C217.376 89.9393 217.351 89.8206 217.35 89.7004C217.349 89.5857 217.378 89.4728 217.435 89.3733C217.492 89.2738 217.575 89.1914 217.674 89.1346C217.888 88.9942 218.138 88.9207 218.393 88.9236C218.713 88.9236 218.95 89.1205 219.103 89.5144L222.317 97.4693L225.55 89.4695C225.608 89.3116 225.7 89.1687 225.821 89.0515C225.932 88.961 226.073 88.9141 226.216 88.9196C226.459 88.9178 226.698 88.9826 226.906 89.1069C227.004 89.1603 227.084 89.2394 227.14 89.3357C227.196 89.432 227.224 89.5417 227.221 89.6529C227.218 89.7648 227.193 89.8751 227.147 89.9773C227.099 90.096 227.044 90.2186 226.99 90.3466L223.254 99.2273C223.189 99.389 223.075 99.5269 222.93 99.6229C222.717 99.7202 222.485 99.7705 222.251 99.7705C222.016 99.7705 221.785 99.7202 221.571 99.6229C221.426 99.5269 221.313 99.389 221.247 99.2273L217.581 90.4389Z" fill="#EC1B24"/>
<path d="M228.54 86.0195C228.531 85.8626 228.555 85.7056 228.611 85.5587C228.667 85.4118 228.753 85.2785 228.864 85.1676C229.085 84.9708 229.371 84.8621 229.667 84.8621C229.963 84.8621 230.248 84.9708 230.469 85.1676C230.679 85.402 230.794 85.7052 230.794 86.0195C230.794 86.3338 230.679 86.637 230.469 86.8714C230.248 87.068 229.963 87.1765 229.667 87.1765C229.371 87.1765 229.086 87.068 228.864 86.8714C228.753 86.7605 228.667 86.6272 228.611 86.4804C228.555 86.3335 228.531 86.1764 228.54 86.0195ZM228.791 89.7662C228.776 89.646 228.789 89.524 228.829 89.4097C228.869 89.2953 228.935 89.1917 229.021 89.1068C229.211 88.9782 229.438 88.916 229.666 88.9301C229.899 88.9171 230.13 88.979 230.326 89.1068C230.414 89.1907 230.482 89.2939 230.524 89.4083C230.565 89.5227 230.58 89.6451 230.567 89.7662V98.9424C230.582 99.0635 230.567 99.1864 230.525 99.301C230.483 99.4156 230.415 99.5186 230.326 99.6018C230.13 99.7295 229.899 99.7915 229.666 99.7785C229.438 99.7932 229.211 99.731 229.021 99.6018C228.936 99.5164 228.87 99.4127 228.83 99.2985C228.79 99.1843 228.777 99.0626 228.791 98.9424V89.7662Z" fill="#EC1B24"/>
<path d="M240.168 96.9773C240.284 96.8017 240.421 96.6413 240.577 96.4999C240.701 96.4105 240.852 96.3671 241.005 96.3772C241.215 96.3817 241.418 96.456 241.582 96.5882C241.668 96.6466 241.739 96.7251 241.788 96.8171C241.837 96.909 241.862 97.0116 241.862 97.1158C241.862 97.3138 241.811 97.5085 241.715 97.6815C241.606 97.8994 241.478 98.1069 241.331 98.3014C241.113 98.5941 240.852 98.8528 240.558 99.0689C240.196 99.3441 239.796 99.5661 239.371 99.7283C238.84 99.9223 238.278 100.016 237.712 100.004C236.987 100.017 236.268 99.8743 235.602 99.5859C235.006 99.3169 234.478 98.9181 234.057 98.4187C233.622 97.892 233.296 97.2848 233.096 96.6318C232.867 95.8923 232.754 95.1217 232.761 94.3476C232.754 93.5765 232.867 92.8089 233.096 92.0727C233.297 91.4229 233.623 90.8189 234.057 90.295C234.475 89.7949 235.004 89.3989 235.602 89.1384C236.269 88.8559 236.988 88.7166 237.712 88.7296C238.246 88.72 238.778 88.7948 239.288 88.9511C239.702 89.0806 240.095 89.268 240.455 89.5077C240.756 89.7111 241.023 89.9603 241.247 90.2462C241.427 90.4761 241.584 90.7235 241.715 90.9847C241.766 91.0855 241.807 91.1911 241.837 91.2999C241.866 91.4024 241.879 91.5087 241.877 91.6151C241.882 91.7293 241.86 91.843 241.813 91.9472C241.766 92.0514 241.695 92.1432 241.607 92.2151C241.444 92.3561 241.236 92.4346 241.021 92.4367C240.887 92.4421 240.754 92.4096 240.637 92.3431C240.484 92.2251 240.354 92.0798 240.254 91.9144C240.17 91.801 240.066 91.6586 239.938 91.4766C239.802 91.2796 239.64 91.1021 239.456 90.9491C239.24 90.7694 238.998 90.6247 238.737 90.5205C238.407 90.3946 238.056 90.3346 237.703 90.3438C237.258 90.3111 236.811 90.3919 236.406 90.5787C236 90.7655 235.649 91.0523 235.385 91.412C234.84 92.281 234.577 93.2971 234.632 94.3213C234.575 95.366 234.837 96.4033 235.385 97.2951C235.646 97.659 235.997 97.95 236.402 98.1404C236.808 98.3308 237.256 98.4144 237.703 98.3831C238.028 98.3905 238.352 98.346 238.663 98.2513C238.906 98.1728 239.135 98.0566 239.342 97.907C239.519 97.7809 239.677 97.6298 239.81 97.4587C239.941 97.2833 240.054 97.129 240.168 96.9773Z" fill="#EC1B24"/>
<path d="M253.133 94.1024C253.133 94.6088 252.847 94.8607 252.276 94.8607H245.177C245.113 95.8127 245.416 96.7529 246.023 97.4891C246.331 97.8055 246.704 98.0518 247.116 98.2111C247.528 98.3704 247.969 98.439 248.41 98.4122C248.768 98.4188 249.125 98.3657 249.465 98.2553C249.736 98.1653 249.993 98.0379 250.229 97.8768C250.417 97.7477 250.589 97.5958 250.741 97.4244C250.873 97.2715 250.981 97.1396 251.065 97.0288C251.144 96.9114 251.238 96.8053 251.346 96.7136C251.467 96.6355 251.611 96.5994 251.755 96.6107C251.961 96.6155 252.161 96.6806 252.331 96.798C252.418 96.8508 252.489 96.9253 252.538 97.0141C252.588 97.1028 252.613 97.2029 252.612 97.3044C252.594 97.5407 252.515 97.7681 252.381 97.9638C252.234 98.1894 252.069 98.4033 251.889 98.6035C251.661 98.856 251.402 99.0777 251.116 99.2629C250.764 99.4908 250.381 99.6683 249.98 99.7904C249.472 99.9405 248.944 100.012 248.414 100.001C247.688 100.011 246.968 99.8718 246.298 99.5926C245.68 99.3292 245.127 98.9345 244.678 98.436C244.218 97.9166 243.87 97.3084 243.655 96.649C243.182 95.1597 243.182 93.5607 243.655 92.0715C243.872 91.4176 244.216 90.8134 244.669 90.2937C245.104 89.796 245.645 89.401 246.251 89.1372C246.907 88.8556 247.615 88.7163 248.328 88.7283C249.039 88.7156 249.744 88.855 250.396 89.1372C250.975 89.3996 251.488 89.788 251.897 90.274C252.314 90.7798 252.627 91.3622 252.82 91.9884C253.034 92.6724 253.14 93.3857 253.133 94.1024ZM248.328 90.2476C247.891 90.2372 247.456 90.3194 247.053 90.4889C246.703 90.6415 246.388 90.8661 246.13 91.1483C245.874 91.4321 245.671 91.7607 245.534 92.1176C245.386 92.4915 245.291 92.8844 245.253 93.2847H251.327C251.284 92.8934 251.196 92.5084 251.064 92.1374C250.939 91.782 250.749 91.4532 250.503 91.1681C250.249 90.8889 249.941 90.6645 249.597 90.5087C249.198 90.3311 248.765 90.2421 248.328 90.2476Z" fill="#EC1B24"/>
</g>
<defs>
<clipPath id="clip0_10_366">
<rect width="375.353" height="100" fill="white"/>
</clipPath>
</defs>
</svg>
