<svg width="126" height="98" viewBox="0 0 126 98" fill="none" xmlns="http://www.w3.org/2000/svg">
<g clip-path="url(#clip0_10_358)">
<path d="M60.6448 75.189C62.6205 73.1245 64.538 71.118 66.4491 69.1115C69.7029 65.7113 72.957 62.3047 76.2109 58.9045C77.0956 57.9821 78.1156 57.298 79.4262 57.1627C82.3315 56.8658 84.4299 58.9111 84.7205 61.3047C84.8431 62.3047 84.7656 63.2725 84.3395 64.2015C84.1201 64.6854 83.8036 65.1047 83.4291 65.479C79.8395 69.0533 76.2562 72.6276 72.6664 76.1956C72.4727 76.389 72.4534 76.4794 72.6536 76.6858C76.7405 80.8925 80.8272 85.1119 84.9076 89.3315C86.3862 90.8605 86.864 93.1123 86.0052 94.9574C85.1466 96.809 83.6487 97.7898 81.5891 97.88C79.9233 97.9576 78.6321 97.2737 77.5409 96.0672C72.0144 89.9637 66.4813 83.8668 60.9482 77.7698C60.8707 77.6794 60.7868 77.5956 60.6964 77.4988C60.6125 77.6149 60.6513 77.7311 60.6513 77.8407C60.6513 82.6668 60.6513 87.4927 60.6448 92.3186C60.6448 94.7123 59.2566 96.8156 57.1003 97.5768C53.4848 98.8543 50.4825 96.235 49.9984 93.4219C49.9338 93.0413 49.9209 92.6541 49.9209 92.267C49.9209 74.6407 49.9209 57.0207 49.9209 39.3943C49.9209 36.7813 51.5221 34.5682 53.9109 33.949C57.6427 32.9811 60.3413 35.9554 60.5931 38.4974C60.6254 38.8394 60.6448 39.1813 60.6448 39.5233C60.6448 51.2656 60.6448 63.0143 60.6448 74.7568C60.6448 74.8794 60.6448 74.9956 60.6448 75.189Z" fill="#2054D2"/>
<path d="M114.646 92.4997C114.323 92.8674 114.032 93.2221 113.723 93.5513C111.037 96.4352 107.712 97.8352 103.773 97.8805C101.081 97.9127 98.5695 97.319 96.3293 95.8029C93.1462 93.6546 91.2609 90.6544 90.5832 86.8866C90.3764 85.7509 90.2991 84.6091 90.2991 83.4542C90.2991 76.5572 90.2991 69.6537 90.2991 62.7566C90.2991 60.305 91.7001 58.2211 93.8564 57.4339C97.0781 56.2597 100.648 58.5113 100.991 61.9309C101.023 62.2664 101.036 62.5954 101.036 62.9309C101.036 68.9374 101.036 74.9442 101.036 80.9509C101.036 82.6219 101.359 84.1962 102.34 85.5833C103.709 87.5123 105.62 88.3705 107.957 88.3576C111.786 88.3382 114.252 85.5058 114.6 82.2219C114.652 81.738 114.665 81.2605 114.665 80.7766C114.665 74.7701 114.665 68.7633 114.665 62.7566C114.665 60.3631 115.75 58.5629 117.913 57.5952C121.464 56.0015 124.724 58.5758 125.299 61.4986C125.363 61.8276 125.37 62.1566 125.37 62.4921C125.37 72.5054 125.35 82.5252 125.383 92.5382C125.389 94.977 123.368 97.519 120.734 97.8611C118.016 98.216 115.266 96.248 114.781 93.5448C114.73 93.2158 114.697 92.8737 114.646 92.4997Z" fill="#2054D2"/>
<path d="M109.687 24.3042C110.92 24.7752 112.147 25.2528 113.38 25.7172C116.821 27.014 120.269 28.3109 123.71 29.6076C124.356 29.8527 124.866 30.2527 125.182 30.8852C125.305 31.1366 125.376 31.4013 125.376 31.6915C125.376 36.9046 125.376 42.1113 125.37 47.3244C125.37 48.2534 124.627 49.0793 123.613 49.3244C123.058 49.4599 122.509 49.4211 121.967 49.2211C117.357 47.4856 112.747 45.7566 108.144 44.0211C99.7701 40.8725 91.4028 37.7176 83.0289 34.5627C82.7708 34.4658 82.4995 34.4013 82.2671 34.2401C82.364 34.1497 82.4673 34.195 82.5706 34.2207C83.0548 34.3434 83.5261 34.2981 83.991 34.1174C87.5612 32.724 91.1444 31.3432 94.7214 29.9625C99.512 28.1109 104.296 26.2462 109.087 24.4074C109.216 24.3558 109.345 24.3042 109.468 24.2334C109.558 24.1946 109.629 24.2334 109.687 24.3042Z" fill="#6F3A96"/>
<path d="M109.687 24.304C109.623 24.2847 109.558 24.2718 109.493 24.2524C109.345 24.3234 109.222 24.2396 109.093 24.1944C104.102 22.3298 99.1118 20.4393 94.121 18.5684C90.8994 17.3619 87.6841 16.149 84.4688 14.9296C83.9137 14.7167 83.3649 14.6909 82.7902 14.7425C82.6741 14.7554 82.5577 14.8005 82.4545 14.6973C83.0485 14.3812 83.7006 14.1812 84.3267 13.936C90.9188 11.3811 97.5171 8.82614 104.109 6.27767C108.544 4.56147 112.973 2.85173 117.409 1.13555C118.978 0.529084 120.534 1.59363 120.534 3.28402C120.54 8.3229 120.534 13.3618 120.534 18.4007C120.534 19.5169 120.037 20.2716 118.984 20.6847C116.615 21.6136 114.239 22.5234 111.869 23.4396C111.14 23.7234 110.41 24.0202 109.687 24.304Z" fill="#00C3FF"/>
<path d="M82.4479 14.6975C83.5583 14.4072 84.5332 14.8653 85.5275 15.2395C91.5126 17.4976 97.504 19.7429 103.489 22.0011C105.49 22.7558 107.485 23.5107 109.487 24.2656C109.422 24.4333 109.248 24.4333 109.125 24.485C106.472 25.5172 103.818 26.5431 101.158 27.5688C98.2916 28.6786 95.425 29.7754 92.5585 30.8852C90.0922 31.8401 87.6258 32.8013 85.1595 33.7562C84.7591 33.9111 84.3589 34.066 83.9587 34.2207C83.3969 34.4337 82.8287 34.4015 82.2605 34.2401C81.3179 33.8013 80.8532 33.0466 80.8532 32.0141C80.8467 29.4592 80.8532 26.9044 80.8532 24.3495C80.8532 21.9752 80.8726 19.6074 80.8467 17.2331C80.8273 16.0137 81.2793 15.1427 82.4479 14.6975Z" fill="#581689"/>
<path d="M43.3422 62.7304C43.3422 62.3304 43.3099 61.9369 43.2389 61.5432C42.7999 59.1367 40.6112 57.2271 38.203 57.1301C35.1879 57.0077 33.2444 59.3238 32.7797 61.1885C32.6246 61.8077 32.5989 62.4401 32.5989 63.1563C32.4826 63.0142 32.4181 62.9369 32.3599 62.8659C30.7912 60.9432 28.8736 59.4722 26.5816 58.5044C24.6124 57.6722 22.5465 57.2785 20.4159 57.1624C17.7429 57.0206 15.1281 57.3044 12.6295 58.2657C7.69687 60.1691 4.21046 63.6465 1.94428 68.3628C0.0655001 72.2857 -0.276684 76.4663 0.239823 80.7246C0.71759 84.6473 2.24773 88.1312 4.81734 91.1442C7.13516 93.8669 9.9243 95.9122 13.3591 97.0089C16.4193 97.9832 19.5442 98.0993 22.6948 97.6089C26.5944 97.0026 29.8485 95.2155 32.3665 92.1508C32.4246 92.0797 32.4632 91.9636 32.5861 91.9508C32.6052 92.2991 32.6183 92.6281 32.6377 92.9636C32.812 95.7057 35.6397 98.7187 39.4232 97.6865C41.7475 97.0542 43.3422 94.8477 43.3422 92.312C43.3422 82.4536 43.3422 72.5887 43.3422 62.7304ZM23.8699 87.6667C21.0228 88.1442 18.2659 87.8732 15.7414 86.3763C12.3648 84.3763 10.7378 81.3697 10.7572 77.4534C10.7701 74.6469 11.6288 72.1824 13.6883 70.2081C15.5025 68.4661 17.6719 67.4855 20.1769 67.2401C22.5593 67.0079 24.8514 67.3048 26.9883 68.4338C30.4748 70.2726 32.373 73.492 32.373 77.5179C32.4052 83.6344 27.9632 86.9765 23.8699 87.6667Z" fill="#2054D2"/>
</g>
<defs>
<clipPath id="clip0_10_358">
<rect width="126" height="98" fill="white"/>
</clipPath>
</defs>
</svg>
