<svg width="53" height="57" viewBox="0 0 53 57" fill="none" xmlns="http://www.w3.org/2000/svg">
<path d="M30.2239 54.8653C30.2239 55.0027 30.24 55.1315 30.2721 55.2513C30.3072 55.3683 30.3568 55.4706 30.4212 55.5583C30.4856 55.643 30.566 55.7104 30.6625 55.7601C30.7589 55.8097 30.8686 55.8346 30.9914 55.8346C31.0965 55.8358 31.2007 55.8164 31.2984 55.7776C31.3919 55.7367 31.4739 55.6781 31.544 55.6022C31.6142 55.5262 31.6682 55.4341 31.7063 55.3258C31.7472 55.2148 31.7677 55.0876 31.7677 54.9443C31.7744 54.8102 31.7626 54.676 31.7326 54.5451C31.7033 54.4194 31.6567 54.3097 31.5923 54.2162C31.5286 54.1234 31.4426 54.048 31.3423 53.9969C31.2428 53.9413 31.126 53.9136 30.9914 53.9136C30.8782 53.912 30.7665 53.939 30.6668 53.9925C30.5724 54.0429 30.4902 54.1132 30.4256 54.1987C30.3581 54.2897 30.3075 54.3923 30.2765 54.5013C30.2414 54.6153 30.2239 54.7367 30.2239 54.8653ZM30.2239 56.0101H29.9607V52.8522H30.2239V54.1022C30.3086 53.9618 30.4242 53.8565 30.5703 53.7864C30.7147 53.7143 30.8739 53.6769 31.0353 53.6767C31.2077 53.6767 31.3568 53.7104 31.4826 53.7776C31.6074 53.8388 31.7158 53.929 31.7984 54.0408C31.8858 54.1543 31.95 54.2839 31.987 54.4223C32.0279 54.5685 32.0484 54.7206 32.0484 54.8785C32.0484 55.0451 32.0295 55.2016 31.9914 55.3478C31.9533 55.4939 31.8919 55.6211 31.8072 55.7294C31.723 55.8364 31.6149 55.922 31.4914 55.9794C31.3628 56.0408 31.2063 56.0715 31.0221 56.0715C30.9489 56.0715 30.8744 56.0613 30.7984 56.0408C30.7209 56.0197 30.646 55.9902 30.5747 55.953C30.5035 55.9143 30.4374 55.8672 30.3774 55.8127C30.3186 55.7537 30.2696 55.6855 30.2326 55.6109H30.2239V56.0101ZM32.5937 56.6285L32.6989 56.646C32.737 56.6518 32.7749 56.6548 32.813 56.6548C32.8861 56.6548 32.946 56.6315 32.9928 56.5846C33.0396 56.5378 33.0775 56.4808 33.1068 56.4136C33.1396 56.3474 33.166 56.2785 33.1858 56.2074C33.2063 56.1372 33.2296 56.0772 33.256 56.0276L32.3744 53.7381H32.6682L33.3963 55.6899L34.1244 53.7381H34.4095L33.563 55.9794C33.5103 56.1227 33.4591 56.2513 33.4095 56.3653C33.3626 56.4794 33.3116 56.5758 33.256 56.6548C33.2033 56.7367 33.1433 56.7981 33.0761 56.839C33.0117 56.8829 32.9344 56.9048 32.8437 56.9048C32.7968 56.9048 32.7516 56.9018 32.7077 56.896C32.6693 56.8908 32.6312 56.8834 32.5937 56.8741V56.6285ZM38.5424 55.589H38.5512L39.2398 52.8522H39.5468L38.7179 56.0101H38.3889L37.6565 53.2206H37.6477L36.9153 56.0101H36.5863L35.7705 52.8522H36.0688L36.7486 55.589H36.7574L37.4898 52.8522H37.8232L38.5424 55.589ZM39.9621 56.0101V52.8522H42.063V53.1065H40.2603V54.2469H41.8875V54.5013H40.2603V55.7557H42.1068V56.0101H39.9621ZM42.6302 56.0101V52.8522H43.0863L44.1214 55.6372H44.1302L45.1477 52.8522H45.5995V56.0101H45.3012V53.1943H45.2924L44.2574 56.0101H43.9767L42.9372 53.1943H42.9284V56.0101H42.6302ZM46.0074 56.0101L47.2486 52.8522H47.5863L48.7968 56.0101H48.4898L48.1258 55.0188H46.6872L46.3144 56.0101H46.0074ZM46.7881 54.7644H48.0249L47.4065 53.1065L46.7881 54.7644ZM10.8695 48.0015H7.88491L7.42824 48.9925H5.24561V48.7085L8.90947 40.9299H9.86719L13.4919 48.7085V48.9925H11.3372L10.8695 48.0015ZM9.37719 44.3264L8.55315 46.253H10.2068L9.37719 44.3264ZM20.7317 41.0078V47.1216H23.6217V48.9925H18.6493V41.0078H20.7317ZM34.7232 48.0015H31.7388L31.2821 48.9925H29.0995V48.7085L32.7633 40.9299H33.721L37.3458 48.7085V48.9925H35.1909L34.7232 48.0015ZM33.231 44.3264L32.4068 46.253H34.0607L33.231 44.3264ZM44.5288 42.8341H42.5688V41.0078H48.4988V42.8341H46.55V48.9925H44.5288V42.8341ZM1.38596 35.4913H27.8821C28.4037 35.4913 28.743 34.9423 28.5098 34.4757L27.9649 33.386L26.8246 31.3685L26.7658 31.2706C26.7035 31.1667 26.6153 31.0808 26.5098 31.0209C26.4044 30.9613 26.2853 30.9299 26.164 30.9299H9.36806C8.82526 30.9299 8.48789 30.3399 8.7635 29.872L19.7328 11.2476C20.0033 10.7885 20.6668 10.7864 20.94 11.2439L35.2168 35.1494C35.2791 35.2536 35.3674 35.3399 35.473 35.3999C35.5786 35.4597 35.6979 35.4913 35.8193 35.4913H52.1002C52.6403 35.4913 52.9781 34.9064 52.7079 34.4387L33.2553 0.754442C33.1937 0.647775 33.1051 0.559179 32.9984 0.4976C32.8918 0.436021 32.7707 0.403564 32.6475 0.403564H29.1595C28.624 0.403564 28.2858 0.979178 28.5467 1.44707L44.4007 29.8864C44.6616 30.3543 44.3233 30.9299 43.7879 30.9299H38.5435C38.4209 30.9299 38.3003 30.8978 38.1939 30.8365C38.0875 30.7755 37.9991 30.6874 37.9374 30.5815L21.0626 1.62918C21.0009 1.52321 20.9125 1.43514 20.8061 1.37409C20.6996 1.31286 20.5791 1.28076 20.4565 1.28076H20.386C20.2632 1.28076 20.1426 1.31304 20.0361 1.37409C19.9296 1.43532 19.8412 1.52339 19.7795 1.62953L0.779467 34.275C0.717011 34.3822 0.684204 34.5039 0.684204 34.628V34.7895C0.684204 34.9757 0.758063 35.1541 0.889818 35.2857C1.0214 35.4174 1.19982 35.4913 1.38596 35.4913Z" fill="#C7001D"/>
</svg>
