<svg width="53" height="100" viewBox="0 0 53 100" fill="none" xmlns="http://www.w3.org/2000/svg">
<path fill-rule="evenodd" clip-rule="evenodd" d="M24.7074 0V99.8138H27.5798V0H24.6543H24.7074ZM42.5266 71.2234C45.1223 71.2234 47.6117 70.1923 49.4473 68.3569C51.2827 66.5213 52.3138 64.0319 52.3138 61.4362C52.3138 58.8404 51.2827 56.3511 49.4473 54.5154C47.6117 52.6801 45.1223 51.6489 42.5266 51.6489C39.9308 51.6489 37.4415 52.6801 35.6059 54.5154C33.7705 56.3511 32.7394 58.8404 32.7394 61.4362C32.7394 64.0319 33.7705 66.5213 35.6059 68.3569C37.4415 70.1923 39.9308 71.2234 42.5266 71.2234ZM52.2872 37.234C52.3564 38.5604 52.1551 39.887 51.6949 41.1332C51.2351 42.3793 50.5263 43.5186 49.612 44.4819C48.6976 45.4452 47.5965 46.2125 46.3763 46.7367C45.1559 47.2609 43.8415 47.5314 42.5133 47.5314C41.1851 47.5314 39.8707 47.2609 38.6503 46.7367C37.4301 46.2125 36.329 45.4452 35.4146 44.4819C34.5003 43.5186 33.7915 42.3793 33.3316 41.1332C32.8715 39.887 32.6702 38.5604 32.7394 37.234C32.8699 34.7301 33.9567 32.3715 35.7755 30.6455C37.5942 28.9191 40.0059 27.9569 42.5133 27.9569C45.0207 27.9569 47.4324 28.9191 49.2511 30.6455C51.0699 32.3715 52.1567 34.7301 52.2872 37.234ZM9.78723 59.1223C12.383 59.1223 14.8724 58.0912 16.7078 56.2559C18.5433 54.4202 19.5745 51.9309 19.5745 49.3351C19.5745 46.7394 18.5433 44.25 16.7078 42.4144C14.8724 40.579 12.383 39.5479 9.78723 39.5479C7.19149 39.5479 4.70207 40.579 2.86662 42.4144C1.03116 44.25 0 46.7394 0 49.3351C0 51.9309 1.03116 54.4202 2.86662 56.2559C4.70207 58.0912 7.19149 59.1223 9.78723 59.1223Z" fill="#1DAFEC"/>
</svg>
