<svg width="173" height="100" viewBox="0 0 173 100" fill="none" xmlns="http://www.w3.org/2000/svg">
<path d="M0.803223 67.7685C0.803223 49.9773 15.3472 36.1265 34.302 36.1265C45.2695 36.1265 55.2834 41.022 61.0056 48.425L52.78 56.6639C50.5981 53.866 47.8143 51.5969 44.6357 50.0257C41.4571 48.4545 37.9656 47.6217 34.4211 47.5893C23.096 47.5893 14.0358 56.0669 14.0358 67.7685C14.0358 79.5894 23.096 88.067 34.4211 88.067C38.0924 88.0627 41.7131 87.2093 45.0009 85.5729C48.2887 83.9366 51.1549 81.5621 53.376 78.6343L61.4824 86.6339C55.9987 94.3958 45.5079 99.5297 34.302 99.5297C15.3472 99.5297 0.803223 85.6788 0.803223 67.7685Z" fill="#255BE3"/>
<path d="M72.2114 38.2756H85.2059V97.3805H72.2114V38.2756Z" fill="#255BE3"/>
<path d="M109.406 81.4999V49.2609H95.2195V38.2757H110.003V25.6189L122.162 19.6487V38.2757H141.475V49.2609H122.162V79.3506C122.162 85.3212 125.5 87.9475 131.818 87.9475C135.106 87.9644 138.358 87.2721 141.355 85.9178V97.1416C137.601 98.7916 133.533 99.6068 129.434 99.5297C117.87 99.5297 109.406 93.2017 109.406 81.4999Z" fill="#255BE3"/>
<path d="M151.726 38.2756H164.72V97.3805H151.726V38.2756Z" fill="#255BE3"/>
<path d="M118.346 0.663398C129.018 0.637888 139.54 3.18499 149.022 8.0896C158.504 12.9942 166.669 20.1123 172.826 28.8427H157.686C152.724 23.3181 146.657 18.9005 139.88 15.8765C133.103 12.8525 125.765 11.2899 118.346 11.2899C110.926 11.2899 103.59 12.8525 96.8127 15.8765C90.0356 18.9005 83.9684 23.3181 79.006 28.8427H63.866C70.0235 20.1123 78.1883 12.9942 87.6704 8.0896C97.1526 3.18499 107.674 0.637888 118.346 0.663398Z" fill="#FF3C28"/>
</svg>
