<svg width="278" height="81" viewBox="0 0 278 81" fill="none" xmlns="http://www.w3.org/2000/svg">
<path d="M140.792 50.9116C142.585 48.989 144.554 47.389 147.139 46.775C151.369 45.7765 155.5 45.8447 159.3 48.2697C162.924 50.5829 164.532 54.118 165.242 58.0873C166.008 62.348 165.9 66.6087 164.71 70.8137C162.803 77.5365 157.103 81.2454 150.033 80.5197C146.556 80.1662 143.631 78.9507 141.368 76.3209C140.836 75.7071 140.501 75.5705 140.299 76.5257C140.128 77.3319 139.817 78.1133 139.71 78.9258C139.589 79.8561 139.119 80.0918 138.227 80.0669C135.263 79.9864 135.795 80.3647 135.795 77.7102C135.776 63.2534 135.807 48.7905 135.75 34.3339C135.744 32.9384 136.137 32.6036 137.511 32.6469C140.907 32.74 140.932 32.6718 140.9 35.9402C140.849 40.8955 141.096 45.8509 140.792 50.9116ZM160.364 62.7822C160.333 62.1744 160.319 61.0332 160.213 59.9044C159.636 53.87 157.001 50.8 151.604 50.4465C146.176 50.093 142.521 51.9226 141.419 57.6346C140.647 61.6286 140.653 65.6351 141.558 69.6166C142.401 73.3193 144.682 75.5644 148.544 76.259C154.246 77.2823 158.249 74.7952 159.699 69.288C160.213 67.3219 160.346 65.325 160.364 62.7822Z" fill="#F99D33"/>
<path d="M272.558 79.9678C272.267 80.0174 272.217 80.036 272.165 80.036C270.272 80.0111 268.125 80.526 266.554 79.8065C265.117 79.149 264.293 77.1831 263.222 75.7753C260.536 72.265 257.832 68.7608 255.19 65.2196C254.621 64.4567 254.324 64.4567 253.513 64.9963C251.225 66.5096 250.124 68.3453 250.453 71.1735C250.744 73.7224 250.485 76.3335 250.529 78.9135C250.547 79.7756 250.294 80.0483 249.382 80.0732C245.436 80.1663 245.443 80.2035 245.443 76.3954C245.443 62.3976 245.456 48.3999 245.418 34.4021C245.411 33.1493 245.563 32.5788 247.089 32.6346C250.517 32.7586 250.529 32.6656 250.517 36.0581C250.485 44.7346 250.433 53.4111 250.403 62.0876C250.403 62.2736 250.314 62.5031 250.7 62.6643C251.739 61.4426 252.753 60.1464 253.879 58.9556C257.54 55.0981 261.253 51.2838 264.926 47.4324C265.426 46.9053 265.939 46.62 266.706 46.6447C268.219 46.6943 269.733 46.6572 271.242 46.6572C271.413 47.3022 270.931 47.4882 270.678 47.7549C266.763 51.811 262.861 55.8732 258.89 59.8672C258.072 60.686 258.117 61.1697 258.789 62.0256C263.089 67.5143 267.326 73.0464 271.583 78.5724C271.875 78.9878 272.16 79.4096 272.558 79.9678Z" fill="#F99D33"/>
<path d="M116.356 64.2768C112.872 64.2768 109.395 64.3079 105.911 64.2582C104.917 64.2396 104.688 64.525 104.739 65.4862C105.107 72.3518 109.388 76.4203 116.153 76.228C119.282 76.1411 122.348 75.6698 125.261 74.5225C126.458 74.0511 126.737 74.2619 126.712 75.5272C126.642 78.6839 126.705 78.6839 123.5 79.6143C119.428 80.7987 115.292 81.0158 111.162 80.1353C105.518 78.9321 101.749 75.5272 100.286 70.0818C98.5508 63.6194 98.8104 57.2686 102.883 51.5566C105.791 47.4821 110.015 46.0246 114.962 46.1486C123.241 46.3594 127.89 52.4683 128.162 60.4379C128.295 64.283 128.289 64.283 124.425 64.283C121.74 64.2768 119.048 64.2768 116.356 64.2768ZM113.695 60.2083C116.273 60.2083 118.858 60.2208 121.436 60.2022C121.904 60.1959 122.462 60.4193 122.601 59.5758C123.215 55.898 120.371 51.4389 116.66 50.6326C110.218 49.231 105.791 52.7908 104.859 59.4083C104.726 60.3696 105.392 60.2083 105.949 60.2083C108.533 60.2083 111.118 60.2083 113.695 60.2083Z" fill="#596B6D"/>
<path d="M0.0189392 57.9384C-0.126743 53.9507 0.646005 50.2294 2.21684 46.6819C5.3205 39.68 10.9641 36.0271 18.5395 35.1525C23.4611 34.5882 28.313 35.0905 32.9938 36.8519C34.0326 37.2426 34.4759 37.6147 33.7729 38.6939C33.1522 39.6428 32.9367 41.0816 32.0944 41.5778C31.2899 42.0553 30.0991 41.0258 29.0604 40.7033C25.4247 39.5683 21.7066 39.1341 17.9886 39.928C11.0084 41.4165 7.42338 46.1176 6.11858 52.6916C5.32683 56.6857 5.45984 60.7107 6.45429 64.6737C8.34815 72.1905 14.0361 76.259 22.3273 76.0296C25.4499 75.9426 28.5156 75.4714 31.5242 74.6651C32.373 74.4355 32.6644 74.5534 32.6263 75.4528C32.4554 79.6018 33.5512 78.8265 29.0413 79.8623C24.8356 80.8298 20.5284 81.0221 16.3099 80.2716C7.5564 78.7025 2.28018 73.2758 0.65234 64.5993C0.227962 62.3604 -0.0824049 60.1154 0.0189392 57.9384Z" fill="#596B6D"/>
<path d="M193.378 75.1799C192.871 75.7194 192.567 75.9985 192.312 76.3149C188.487 81.053 181.457 81.3755 176.965 79.8437C173.217 78.5661 171.151 75.614 170.999 71.7315C170.822 67.1607 172.608 64.1155 176.522 62.348C180.044 60.7542 183.812 60.4068 187.614 60.2394C189.089 60.1773 190.565 60.0843 192.04 60.1092C193.054 60.1278 193.346 59.6936 193.225 58.8005C193.2 58.5958 193.219 58.385 193.219 58.1803C193.206 52.0094 190.254 49.5411 183.99 50.4465C181.735 50.7753 179.575 51.4203 177.511 52.3505C176.681 52.7289 176.307 52.7536 175.908 51.7861C174.686 48.803 174.642 48.8464 177.757 47.7053C181.742 46.2478 185.846 45.764 190.021 46.5021C195.315 47.4386 198.096 50.5023 198.192 55.7429C198.331 63.483 198.229 71.2292 198.261 78.9754C198.261 79.7444 198.076 80.0422 197.215 80.0669C194.511 80.1476 194.511 80.1849 193.91 77.5428C193.757 76.8605 193.599 76.166 193.378 75.1799ZM193.149 66.2304C193.149 65.9204 193.104 65.604 193.156 65.3064C193.403 63.9357 192.864 63.5017 191.451 63.6504C188.943 63.9233 186.417 64.0287 183.896 64.2335C182.412 64.3512 181 64.7668 179.671 65.4118C177.156 66.6336 175.971 69.0896 176.421 72.023C176.776 74.3364 178.435 76.0047 180.956 76.3149C188.069 77.183 193.314 73.7719 193.149 66.2304Z" fill="#F99D33"/>
<path d="M38.6438 63.2598C38.7071 58.7882 39.4863 54.5399 42.5266 50.9552C44.8764 48.1828 47.9611 46.775 51.5145 46.2975C53.6554 46.0123 55.8406 45.975 57.9625 46.4402C64.4739 47.8728 68.7429 52.735 69.6741 59.6317C70.1745 63.3156 69.9781 66.9438 68.8824 70.5099C67.1152 76.2591 62.4153 79.8871 56.3284 80.4702C52.5849 80.8299 49.0506 80.3957 45.8518 78.4049C40.8481 75.2853 39.1568 70.4106 38.6502 64.9591C38.5995 64.4009 38.6438 63.8303 38.6438 63.2598ZM64.6006 63.3777C64.6323 61.1449 64.3535 58.9432 63.6441 56.816C62.2253 52.5677 58.6529 50.2048 53.9721 50.3598C49.152 50.521 45.9152 52.8405 44.7498 57.1695C43.6541 61.238 43.6477 65.3498 44.7435 69.4182C45.9342 73.8278 49.2153 76.2777 53.8391 76.3769C58.9316 76.4823 62.2127 74.3055 63.6821 69.7905C64.3535 67.7128 64.6132 65.5607 64.6006 63.3777Z" fill="#596B6D"/>
<path d="M212.936 51.2465C214.767 48.679 217.237 47.1037 220.297 46.4959C223.387 45.8819 226.479 45.9501 229.487 46.9672C233.775 48.4247 235.517 51.7055 235.922 55.8608C236.258 59.3091 236.036 62.7759 236.068 66.2366C236.1 70.4168 236.05 74.603 236.1 78.7832C236.112 79.8003 235.79 80.0732 234.757 80.0794C230.9 80.0794 230.9 80.1228 230.9 76.3086C230.9 70.5222 230.9 64.7419 230.9 58.9555C230.9 58.23 230.906 57.5043 230.836 56.7911C230.469 53.0141 228.493 50.8248 224.699 50.5086C216.206 49.8139 213.126 53.5661 212.874 61.4797C212.689 67.1546 212.804 72.8416 212.861 78.5226C212.874 79.7072 212.601 80.1104 211.315 80.0794C207.736 80.005 207.731 80.0669 207.731 76.5133C207.731 67.0615 207.743 57.6097 207.711 48.158C207.704 47.1037 207.832 46.5828 209.129 46.6261C211.854 46.7068 211.84 46.6261 212.379 49.2123C212.506 49.8636 212.411 50.5643 212.936 51.2465Z" fill="#F99D33"/>
<path d="M277.778 8.81295C277.785 13.7497 273.832 17.6693 268.803 17.7314C263.799 17.7933 259.637 13.7125 259.662 8.78194C259.687 3.89482 263.722 0 268.758 0C273.837 0.00620193 277.778 3.8514 277.778 8.81295Z" fill="#F99D33"/>
<path d="M82.7981 52.8963C83.8875 50.9303 85.3254 49.5163 86.9089 48.2387C89.8163 45.8944 93.2239 45.9626 96.6886 46.3037C97.2776 46.3595 97.2903 46.7999 97.227 47.2278C97.094 48.2014 96.9229 49.1628 96.8089 50.1364C96.7265 50.8621 96.3782 51.0171 95.6499 50.9489C94.5033 50.8435 93.3696 50.5582 92.1914 50.7071C87.0672 51.3459 83.1401 55.5446 83.0008 60.9217C82.8488 66.7577 82.9058 72.5937 82.9628 78.4298C82.9754 79.6826 82.6968 80.1166 81.335 80.0795C77.7563 79.9926 77.7563 80.0609 77.7563 76.5009C77.7563 67.1484 77.7815 57.8021 77.7246 48.4496C77.7182 47.0852 78.0033 46.5456 79.5235 46.6262C81.9493 46.7564 81.9431 46.6573 82.2533 49.0574C82.4118 50.2667 82.2533 51.5071 82.7981 52.8963Z" fill="#596B6D"/>
</svg>
