<svg width="965" height="100" viewBox="0 0 965 100" fill="none" xmlns="http://www.w3.org/2000/svg">
<path d="M15.8894 13.446C5.29647 22.6892 0 34.8739 0 50C0 65.1261 5.29647 77.2642 15.8894 86.4144C26.1286 95.3784 39.1278 99.8604 54.8869 99.8604C67.3043 99.8604 77.1758 97.2773 84.5015 92.1111V72.005C77.5016 78.2602 68.8541 81.3879 58.5591 81.3879C49.2507 81.3879 41.5061 78.465 35.3253 72.6194C29.1446 66.7737 26.0635 59.2339 26.0821 50C26.0821 40.6916 29.1632 33.1285 35.3253 27.3108C41.4875 21.4931 49.2321 18.5935 58.5591 18.6121C68.8821 18.6121 77.5296 21.7397 84.5015 27.995V7.74922C77.1758 2.66684 67.3043 0.130305 54.8869 0.139613C39.1278 0.139613 26.1286 4.57506 15.8894 13.446Z" fill="#E5B7A0"/>
<path d="M186.093 13.9626C175.984 4.65419 162.92 0 146.9 0C131.141 0 118.165 4.71004 107.973 14.1301C97.7799 23.5502 92.6603 35.5068 92.6138 50C92.6138 64.4932 97.6868 76.4498 107.833 85.8699C117.979 95.29 130.904 100 146.607 100C164.181 100 177.995 94.6989 188.048 84.0966C196.776 74.9201 201.515 62.661 201.229 50C201.238 35.2834 196.193 23.271 186.093 13.9626ZM167.132 72.2843C164.61 75.1371 161.489 77.3965 157.991 78.9005C154.493 80.4044 150.705 81.1156 146.9 80.983C143.102 81.0846 139.329 80.3449 135.851 78.8169C132.372 77.2889 129.275 75.0104 126.78 72.1446C121.53 66.2524 118.905 58.8709 118.905 50C118.905 40.9336 121.488 33.4869 126.655 27.6599C129.178 24.8059 132.302 22.546 135.803 21.042C139.303 19.5381 143.093 18.8275 146.9 18.9612C150.705 18.8286 154.493 19.5397 157.991 21.0437C161.489 22.5476 164.61 24.807 167.132 27.6599C172.298 33.4497 174.881 40.8964 174.881 50C174.881 59.1036 172.298 66.5317 167.132 72.2843Z" fill="#E5B7A0"/>
<path d="M284.013 69.4219C278.205 60.0111 273.676 54.2167 270.427 52.0385C274.715 50.2695 278.346 47.2098 280.816 43.284C283.35 39.4593 284.695 34.9704 284.683 30.3825C284.683 21.7723 281.788 14.9539 275.998 9.92737C270.209 4.90084 262.506 2.38757 252.89 2.38757H205.753V5.43142C211.729 7.43272 214.717 13.9486 214.717 24.979V56.7439V74.8953C214.717 85.9443 211.729 92.4602 205.753 94.4429V97.4309H239.263V58.559H243.452C246.126 58.5148 248.727 59.4314 250.782 61.1421C253.854 63.7671 257.833 69.2963 262.72 77.7297L274.197 97.4169H300.377L287.196 74.7277L284.013 69.4219ZM256.297 40.1005C253.573 42.391 250.077 43.5547 246.523 43.3538H239.319V18.7517H246.523C250.077 18.5508 253.573 19.7145 256.297 22.005C257.501 23.1829 258.439 24.6046 259.048 26.1747C259.657 27.7448 259.924 29.4271 259.83 31.1086C259.917 32.7706 259.646 34.4319 259.037 35.9806C258.428 37.5293 257.493 38.9294 256.297 40.0865V40.1005Z" fill="#E5B7A0"/>
<path d="M391.706 13.9626C381.616 4.65419 368.552 0 352.513 0C336.754 0 323.778 4.71004 313.586 14.1301C303.393 23.5502 298.273 35.5068 298.227 50C298.227 64.4932 303.3 76.4498 313.446 85.8699C323.592 95.29 336.498 100 352.164 100C369.748 100 383.561 94.6989 393.605 84.0966C402.333 74.9201 407.072 62.661 406.786 50C406.832 35.2834 401.806 23.271 391.706 13.9626ZM372.801 72.2843C370.207 75.0376 367.075 77.2288 363.599 78.7222C360.123 80.2157 356.378 80.9795 352.595 80.9664C348.812 80.9533 345.072 80.1636 341.606 78.6461C338.141 77.1287 335.024 74.9158 332.449 72.1446C327.19 66.2524 324.56 58.8709 324.56 50C324.56 40.9336 327.143 33.4869 332.309 27.6599C334.918 24.9138 338.058 22.7271 341.539 21.2329C345.019 19.7387 348.768 18.9681 352.555 18.9681C356.343 18.9681 360.091 19.7387 363.572 21.2329C367.052 22.7271 370.192 24.9138 372.801 27.6599C377.948 33.4497 380.527 40.8964 380.536 50C380.546 59.1036 377.967 66.5317 372.801 72.2843Z" fill="#E5B7A0"/>
<path d="M488.998 58.1402L442.125 2.44348H411.407V5.43147C417.383 7.43278 420.371 13.9486 420.371 24.9791V97.4169H443.466V39.0953L492.544 97.4169H512.092V2.47141H488.998V58.1402Z" fill="#E5B7A0"/>
<path d="M955.404 78.1905V2.44348H932.309V58.1402L885.437 2.44348H854.719V5.43147C860.695 7.43278 863.683 13.9486 863.683 24.9791V97.4169H886.777V39.0953L935.87 97.4169H964.256V94.429C958.903 92.6417 955.953 87.2289 955.404 78.1905Z" fill="#E5B7A0"/>
<path d="M557.623 2.44348L519.715 97.389H543.34L550.67 77.0037H587.462L595.267 97.389H622.019L582.924 2.44348H557.623ZM556.534 61.0025L566.448 33.5102C567.333 30.8972 568.005 28.217 568.458 25.4957H568.724C569.177 28.2262 569.849 30.9157 570.734 33.5381L581.304 60.9607L556.534 61.0025Z" fill="#E5B7A0"/>
<path d="M609.271 19.5476V28.5256H612.259C614.251 22.531 620.767 19.5383 631.807 19.5476H637.503V97.4169H662.092V19.5476H691.036V2.44348H609.271V19.5476Z" fill="#E5B7A0"/>
<path d="M703.798 97.4169H737.308V94.4289C731.872 92.6138 728.912 87.0614 728.428 77.7716V24.993C728.428 13.9533 731.416 7.38623 737.392 5.29184V2.49933H703.882L703.798 97.4169Z" fill="#E5B7A0"/>
<path d="M834.962 13.9626C824.9 4.65419 811.868 0 795.867 0C780.043 0 767.053 4.71004 756.898 14.1301C746.742 23.5502 741.622 35.5068 741.539 50C741.539 64.4932 746.612 76.4498 756.758 85.8699C766.904 95.29 779.81 100 795.476 100C813.05 100 826.864 94.6989 836.917 84.0966C845.65 74.9234 850.39 62.662 850.098 50C850.144 35.2834 845.099 23.271 834.962 13.9626ZM816.015 72.3262C813.421 75.0794 810.289 77.2707 806.813 78.7641C803.337 80.2576 799.592 81.0214 795.809 81.0083C792.026 80.9952 788.286 80.2055 784.821 78.688C781.355 77.1706 778.238 74.9577 775.663 72.1865C770.413 66.2943 767.788 58.9128 767.788 50.0419C767.788 40.9755 770.367 33.5288 775.524 27.7018C778.132 24.9557 781.272 22.769 784.753 21.2748C788.233 19.7806 791.982 19.01 795.769 19.01C799.557 19.01 803.305 19.7806 806.786 21.2748C810.266 22.769 813.406 24.9557 816.015 27.7018C821.181 33.4916 823.764 40.9383 823.764 50.0419C823.764 59.1455 821.2 66.5596 816.071 72.2843L816.015 72.3262Z" fill="#E5B7A0"/>
</svg>
