<svg width="47" height="35" viewBox="0 0 47 35" fill="none" xmlns="http://www.w3.org/2000/svg">
<path fill-rule="evenodd" clip-rule="evenodd" d="M20.396 14.4471C21.3975 14.8133 22.3208 15.3748 22.3452 16.7615C22.3452 18.1725 22.3159 17.7965 22.3355 18.5973C22.355 19.5152 22.0423 19.7349 21.6711 19.9107C21.6075 19.94 21.4561 19.9693 21.3779 19.9742L0 19.9937V18.7682L0.268691 16.6931C1.19201 11.1221 4.45049 6.1371 9.03776 3.24178C14.8805 -0.439648 22.0472 -1.15249 28.5642 1.96744C29.5217 2.43616 30.528 3.0123 31.3049 3.5689L45.6725 11.8789C43.9725 12.5576 40.6112 12.8847 38.5398 12.7676C32.5994 12.4209 27.4063 9.13984 22.9901 5.47796C22.1254 4.76024 21.0164 4.33056 19.8049 4.33056C17.0496 4.33056 14.817 6.56187 14.817 9.31561C14.817 13.3046 17.5968 13.705 20.3911 14.452" fill="#107EBC"/>
<path fill-rule="evenodd" clip-rule="evenodd" d="M24.5625 18.0262C24.5625 16.62 24.5918 16.9911 24.5723 16.1903C24.5528 15.2724 24.8654 15.0527 25.2368 14.8769C25.3001 14.8476 25.4515 14.8183 25.5297 14.8135L46.9078 14.7939V16.0195L46.6341 18.0945C45.711 23.6655 42.4524 28.6506 37.8652 31.5459C32.0273 35.232 24.8557 35.9402 18.3387 32.8202C17.3812 32.3516 16.3748 31.7753 15.5981 31.2186L1.23047 22.9087C2.93054 22.23 6.29161 21.9029 8.36296 22.02C14.3035 22.3667 19.4965 25.6479 23.9128 29.3097C24.7775 30.0273 25.8865 30.457 27.0979 30.457C29.8532 30.457 32.0859 28.2258 32.0859 25.472C32.0859 18.8611 24.6358 22.1372 24.5625 18.0213" fill="#107EBC"/>
</svg>
