<svg width="98" height="100" viewBox="0 0 98 100" fill="none" xmlns="http://www.w3.org/2000/svg">
<path d="M15.5841 53.9371C16.9789 52.4698 17.6757 50.5936 17.6757 48.3073C17.6757 46.0209 16.9789 44.1447 15.5841 42.6773C14.1893 41.21 12.3648 40.4764 10.1085 40.4764H7.28894V56.1382H10.1085C12.3648 56.1382 14.1893 55.4044 15.5841 53.9371Z" fill="#837567"/>
<path d="M47.9958 41.0916C46.0218 41.0916 44.4081 41.7711 43.1549 43.1313C41.9018 44.4916 41.2754 46.1916 41.2754 48.2327C41.2754 50.2724 41.9018 51.9736 43.1549 53.3338C44.4081 54.694 46.0218 55.3736 47.9958 55.3736C49.9701 55.3736 51.5836 54.694 52.8367 53.3338C54.0901 51.9736 54.7165 50.2736 54.7165 48.2327C54.7165 46.1916 54.0901 44.4916 52.8367 43.1313C51.5836 41.7711 49.9701 41.0916 47.9958 41.0916Z" fill="#837567"/>
<path d="M65.9922 40.6821V31.1614H92.2573C84.8618 13.3182 67.2764 0.766113 46.7587 0.766113C26.2409 0.766113 8.65447 13.3182 1.25774 31.1614H11.0479C16.1859 31.1614 20.3231 32.7487 23.456 35.9218C26.59 39.0949 28.1564 43.2241 28.1564 48.3081C28.1564 53.3918 26.59 57.5209 23.456 60.6941C20.3231 63.8674 16.1871 65.4545 11.0479 65.4545H0C6.48107 85.0749 24.966 99.2325 46.7587 99.2325C57.5256 99.2325 67.478 95.767 75.5809 89.9032V40.6821H65.9922ZM59.896 60.3636C56.6824 63.6714 52.7307 65.3254 48.0407 65.3254C43.3507 65.3254 39.3989 63.6714 36.1853 60.3636C32.972 57.0556 31.3653 53.0072 31.3653 48.2158C31.3653 43.4245 32.972 39.3758 36.1853 36.0692C39.3989 32.7614 43.3507 31.1074 48.0407 31.1074C52.7307 31.1074 56.6824 32.7614 59.896 36.0692C63.1093 39.3772 64.716 43.4256 64.716 48.2158C64.716 53.0061 63.1093 57.0556 59.896 60.3636Z" fill="#837567"/>
<path d="M75.5802 89.9027V89.9198L75.5842 89.9003L75.5802 89.9027Z" fill="#837567"/>
<path d="M95.1123 40.6825H85.9683V79.7669C92.2547 71.4994 95.992 61.1876 95.992 50.0005C95.992 46.8147 95.6891 43.7003 95.1123 40.6825Z" fill="#837567"/>
</svg>
