<svg width="98" height="50" viewBox="0 0 98 50" fill="none" xmlns="http://www.w3.org/2000/svg">
<path d="M15.331 12.78L15.68 10.814H7.20003C6.31003 10.814 5.46403 11.525 5.28903 12.414L2.01503 30.977C1.84803 31.877 2.43603 32.606 3.33803 32.61H12.6L12.945 30.647H4.99003L6.46003 22.313H12.923L13.261 20.382H6.80003L8.14303 12.782L15.331 12.78Z" fill="#00577A"/>
<path d="M19.51 32.933C15.772 32.933 13.61 29.576 14.576 24.062C15.565 18.453 18.894 15.223 22.696 15.223C24.785 15.223 25.81 15.891 26.267 16.363L25.318 17.98C24.877 17.599 24.193 17.158 22.926 17.158C19.82 17.158 18.119 19.974 17.416 23.967C16.693 28.054 17.655 30.875 20.416 30.875C21.588 30.875 22.45 30.494 23.161 30.053L23.55 31.793C22.779 32.393 21.417 32.933 19.514 32.933" fill="#00577A"/>
<path d="M34.081 17C30.82 17 29.541 20.643 28.929 24.095C28.317 27.547 28.412 31 31.61 31C34.876 31 36.091 27.512 36.691 24.092C37.291 20.672 37.343 17 34.081 17ZM31.273 32.933C26.613 32.933 25.262 29.099 26.144 24.094C27.044 18.994 29.767 15.223 34.363 15.223C39.051 15.223 40.382 18.993 39.48 24.094C38.6 29.1 35.9 32.933 31.273 32.933Z" fill="#00577A"/>
<path d="M65.337 22.922C60.937 23.458 58.206 24.376 57.599 27.832C57.162 30.303 58.499 31.316 61.039 31.316C62.111 31.316 63.196 31.129 63.959 30.748L65.337 22.922ZM60.53 32.933C56.097 32.933 54.377 31.002 54.93 27.896C55.73 23.363 60.206 22.036 65.596 21.496L65.779 20.451C66.244 17.821 64.794 17.062 62.605 17.062C60.96 17.062 59.332 17.662 58.299 18.139L57.921 16.49C59.6214 15.6682 61.4834 15.2354 63.372 15.223C66.542 15.223 69.092 16.586 68.353 20.765L66.414 31.729C64.987 32.46 62.906 32.929 60.53 32.929" fill="#00577A"/>
<path d="M78.1719 32.6151L80.333 20.3561C80.615 18.7711 80.2539 17.0311 77.3419 17.0311C75.7569 17.0311 74.955 17.2491 74.005 17.6311L71.359 32.6151H68.575L71.427 16.4271C73.08 15.7001 75.157 15.2271 77.878 15.2271C82.634 15.2271 83.563 17.8571 83.134 20.2961L80.9609 32.6151H78.1719Z" fill="#00577A"/>
<path d="M95.167 36.54H1.03796L1.12496 35.98H95.246L95.167 36.54Z" fill="#BDCF00"/>
<path d="M51.668 23.871C50.905 28.182 48.994 31.129 45.478 31.129C44.588 31.129 43.722 31.034 43.142 30.716L45.451 17.63C46.321 17.19 47.087 16.967 48.351 16.967C51.581 16.967 52.324 20.137 51.665 23.867M49.34 15.318C47.663 15.318 46.65 15.664 45.717 16.109L47.187 7.78296L44.116 9.55796L40.207 31.729C41.107 32.396 42.781 32.929 45.097 32.929C50.166 32.929 53.507 29.254 54.472 23.772C55.382 18.608 53.272 15.314 49.34 15.314" fill="#00577A"/>
<path d="M97.9 15.541H94.988L87.508 23.458H87.444L89.351 12.669C91.251 1.98305 79.714 -0.273951 67.673 1.56905C59.49 2.82505 52.259 6.08605 52.259 6.08605C52.259 6.08605 61.698 2.78605 70.005 2.31205C80.492 1.71205 88.712 3.30505 86.312 14.417L83.102 32.617H85.827L87.381 23.806H87.444L92.418 32.617H95.588L90.03 23.517L97.9 15.541Z" fill="#00577A"/>
<path d="M2.57898 42.125L1.38298 48.9H0.382976L1.58298 42.123H0.0999756L0.218976 41.452H4.17998L4.06098 42.123L2.57898 42.125Z" fill="#00577A"/>
<path d="M7.23903 48.9L7.96603 44.765C8.07303 44.165 7.91003 43.617 6.98003 43.617C6.56556 43.6059 6.15568 43.706 5.79303 43.907L4.91103 48.9H3.95703L5.45703 40.4H6.40603L5.88603 43.367C6.41403 43.117 6.85903 43.01 7.28603 43.01C8.77203 43.01 9.06603 43.904 8.92303 44.726L8.19203 48.9H7.23903Z" fill="#00577A"/>
<path d="M12.4 43.575C11.554 43.575 10.807 44.258 10.549 45.839L13.417 45.414C13.647 44.092 13.23 43.575 12.4 43.575ZM10.493 46.348C10.366 47.667 10.871 48.318 11.919 48.318C12.4388 48.3275 12.9532 48.212 13.419 47.981L13.558 48.608C13.165 48.823 12.513 49.008 11.723 49.008C10.197 49.008 9.295 48.042 9.661 45.965C10.014 43.982 11.167 42.957 12.541 42.957C13.941 42.957 14.623 43.867 14.257 45.814L10.493 46.348Z" fill="#00577A"/>
<path d="M21.468 41.942C21.1721 41.9368 20.8776 41.9839 20.598 42.081L20.05 45.2L20.368 45.232C21.913 45.387 22.608 44.667 22.803 43.587C22.998 42.507 22.603 41.942 21.468 41.942ZM20.268 45.842L19.938 45.811L19.4 48.9H18.426L19.686 41.754C20.142 41.515 20.83 41.34 21.62 41.34C23.376 41.34 24 42.286 23.769 43.593C23.535 44.916 22.439 46.056 20.278 45.837" fill="#00577A"/>
<path d="M27.272 45.589C25.772 45.776 24.837 46.089 24.63 47.266C24.479 48.108 24.94 48.457 25.806 48.457C26.1494 48.4646 26.4904 48.3985 26.806 48.263L27.272 45.589ZM25.632 49.01C24.118 49.01 23.532 48.346 23.717 47.285C23.991 45.74 25.517 45.285 27.36 45.101L27.423 44.743C27.582 43.843 27.085 43.587 26.339 43.587C25.779 43.587 25.222 43.787 24.869 43.953L24.738 43.388C25.3197 43.1103 25.9554 42.9639 26.6 42.959C27.684 42.959 28.554 43.424 28.3 44.854L27.642 48.6C27.153 48.855 26.442 49.014 25.632 49.014" fill="#00577A"/>
<path d="M32.166 48.9L32.905 44.709C33.005 44.169 32.878 43.573 31.88 43.573C31.4894 43.5577 31.1002 43.6284 30.74 43.78L29.84 48.9H28.887L29.864 43.371C30.428 43.12 31.135 42.958 32.069 42.958C33.694 42.958 34.012 43.858 33.869 44.69L33.12 48.9H32.166Z" fill="#00577A"/>
<path d="M41.474 43.249C41.4273 42.9514 41.4085 42.6501 41.418 42.349H41.394C41.2881 42.6581 41.1594 42.959 41.009 43.249L39.623 46.078H41.843L41.474 43.249ZM42.209 48.9L41.9 46.67H39.345L38.228 48.9H37.319L41.152 41.452H42.042L43.242 48.9H42.209Z" fill="#00577A"/>
<path d="M46.273 43.659L45.351 48.9H44.394L45.319 43.657H44.644L44.751 43.065H45.423L45.57 42.242C45.77 41.094 46.595 40.342 47.862 40.403L47.762 41.003C47.182 41.035 46.689 41.309 46.542 42.131L46.379 43.061H47.396L47.296 43.653L46.273 43.659Z" fill="#00577A"/>
<path d="M50.627 43.6941C50.174 43.5511 49.627 43.5941 49.28 43.8021L48.38 48.9021H47.427L48.4 43.3801C49.028 43.0901 49.6 42.9361 50.982 42.9671L50.627 43.6941Z" fill="#00577A"/>
<path d="M52.681 41.942C52.367 41.942 52.156 41.704 52.208 41.422C52.2406 41.2722 52.3232 41.1379 52.4423 41.0412C52.5613 40.9446 52.7096 40.8912 52.863 40.89C52.9309 40.8858 52.9989 40.8974 53.0617 40.9237C53.1245 40.9501 53.1804 40.9906 53.225 41.042C53.2695 41.0935 53.3017 41.1546 53.3188 41.2205C53.336 41.2863 53.3378 41.3553 53.324 41.422C53.2893 41.5675 53.2074 41.6975 53.0911 41.7916C52.9747 41.8857 52.8305 41.9385 52.681 41.942ZM50.981 48.902L52.01 43.067H52.964L51.93 48.9L50.981 48.902Z" fill="#00577A"/>
<path d="M55.374 49.01C54.095 49.01 53.356 47.862 53.69 45.979C54.023 44.06 55.163 42.959 56.462 42.959C57.177 42.959 57.527 43.186 57.682 43.349L57.356 43.9C57.1304 43.7062 56.8389 43.6066 56.542 43.622C55.477 43.622 54.897 44.587 54.655 45.95C54.413 47.344 54.738 48.309 55.68 48.309C56.0137 48.3074 56.34 48.211 56.621 48.031L56.752 48.623C56.486 48.823 56.021 49.012 55.374 49.012" fill="#00577A"/>
<path d="M61.277 45.589C59.777 45.776 58.842 46.089 58.635 47.266C58.484 48.108 58.941 48.457 59.807 48.457C60.1504 48.4649 60.4914 48.3987 60.807 48.263L61.277 45.589ZM59.636 49.01C58.123 49.01 57.531 48.346 57.722 47.285C57.992 45.74 59.522 45.285 61.365 45.101L61.428 44.743C61.587 43.843 61.09 43.587 60.344 43.587C59.8338 43.605 59.333 43.7297 58.874 43.953L58.743 43.388C59.3249 43.1098 59.961 42.9633 60.606 42.959C61.69 42.959 62.56 43.424 62.306 44.854L61.647 48.6C61.158 48.855 60.447 49.014 59.636 49.014" fill="#00577A"/>
<path d="M66.175 48.9L66.91 44.709C67.005 44.169 66.883 43.573 65.889 43.573C65.4971 43.5574 65.1066 43.6281 64.745 43.78L63.845 48.9H62.896L63.869 43.371C64.433 43.12 65.144 42.958 66.074 42.958C67.699 42.958 68.017 43.858 67.874 44.69L67.125 48.9H66.175Z" fill="#00577A"/>
<path d="M75.11 41.919C74.7665 41.9147 74.4248 41.9695 74.1 42.081L73.631 44.731H74.115C75.653 44.731 76.261 44.258 76.427 43.285C76.594 42.371 76.127 41.919 75.113 41.919M74.044 45.232H73.544L73.02 48.2C73.278 48.319 73.58 48.371 74.037 48.371C75.01 48.371 75.837 47.982 76.031 46.897C76.231 45.741 75.65 45.233 74.041 45.233M73.965 49.011C73.123 49.011 72.436 48.86 72.007 48.598L73.207 41.757C73.66 41.518 74.402 41.344 75.217 41.344C76.853 41.344 77.588 42.126 77.398 43.207C77.215 44.271 76.337 44.812 75.646 44.943V44.963C76.314 45.094 77.239 45.754 77.04 46.89C76.77 48.383 75.503 49.011 73.966 49.011" fill="#00577A"/>
<path d="M81.386 45.589C79.886 45.776 78.951 46.089 78.74 47.266C78.593 48.108 79.05 48.457 79.916 48.457C80.2594 48.4641 80.6003 48.3979 80.916 48.263L81.386 45.589ZM79.745 49.01C78.228 49.01 77.64 48.346 77.827 47.285C78.105 45.74 79.627 45.285 81.474 45.101L81.533 44.743C81.692 43.843 81.199 43.587 80.453 43.587C79.888 43.587 79.332 43.787 78.979 43.953L78.852 43.388C79.4327 43.1102 80.0674 42.9638 80.711 42.959C81.795 42.959 82.669 43.424 82.411 44.854L81.756 48.6C81.267 48.855 80.556 49.014 79.745 49.014" fill="#00577A"/>
<path d="M86.4 48.9L87.139 44.709C87.231 44.169 87.112 43.573 86.114 43.573C85.7221 43.5577 85.3317 43.6284 84.97 43.78L84.07 48.9H83.116L84.1 43.373C84.664 43.122 85.372 42.96 86.3 42.96C87.921 42.96 88.239 43.86 88.1 44.692L87.349 48.9H86.4Z" fill="#00577A"/>
<path d="M91.8859 48.9L90.1859 45.893H90.159L89.633 48.9H88.7L90.2 40.4H91.1299L90.184 45.771H90.2039L92.7669 43.062H93.756L91.071 45.8L92.971 48.906L91.8859 48.9Z" fill="#00577A"/>
</svg>
