<svg width="96" height="96" viewBox="0 0 96 96" fill="none" xmlns="http://www.w3.org/2000/svg">
<path d="M95.1362 47.9029C95.1362 38.56 92.3658 29.4271 87.1754 21.659C81.9846 13.8908 74.6071 7.83621 65.9758 4.26092C57.3442 0.68563 47.8462 -0.249832 38.6831 1.57284C29.5199 3.3955 21.103 7.89446 14.4967 14.5007C7.89042 21.107 3.3915 29.5239 1.56881 38.6871C-0.253858 47.8504 0.6816 57.3483 4.25688 65.9795C7.83221 74.6112 13.8867 81.9887 21.6549 87.1791C29.4231 92.37 38.556 95.1404 47.8987 95.1404C60.4267 95.1404 72.4417 90.1633 81.3004 81.3045C90.1592 72.4458 95.1362 60.4308 95.1362 47.9029Z" fill="#F2761B"/>
<path d="M61.9484 30.6879C61.4317 31.7431 60.7409 32.704 59.9055 33.5304C59.4875 33.9369 59.0392 34.3111 58.5642 34.6496C58.3246 34.8183 58.0759 34.9782 57.8271 35.1292L57.4271 35.3513L57.3296 35.4046H57.2675H57.1963L57.0721 35.4668C56.728 35.6288 56.4246 35.8655 56.1838 36.1596C55.9434 36.4518 55.7734 36.7952 55.6863 37.1633C55.6438 37.3348 55.623 37.5108 55.6242 37.6874C55.6155 37.7701 55.6155 37.8535 55.6242 37.9361C55.6242 37.9361 55.6242 38.0161 55.6242 38.0605V38.2115C55.8088 38.9329 55.778 39.6925 55.5355 40.3967C55.3142 41.0654 54.9434 41.675 54.4509 42.1783C53.958 42.6817 53.3567 43.0658 52.693 43.3013C52.1521 43.4921 51.6834 43.8458 51.3517 44.3138C51.2 44.5167 51.0896 44.7471 51.0271 44.9925C50.9646 45.2379 50.9513 45.4933 50.9875 45.7438V45.8592C50.9917 45.9304 50.9917 46.0017 50.9875 46.0725C51.0005 46.2175 51.0005 46.3629 50.9875 46.5079C50.9984 46.8063 50.9713 47.1046 50.9075 47.3963C50.7955 47.9463 50.575 48.4688 50.2592 48.9329C49.6559 49.8208 48.7796 50.4879 47.763 50.8338L47.5321 50.9138L47.3367 50.9933C46.9492 51.1742 46.6113 51.4454 46.3509 51.7842C46.1888 51.9788 46.0684 52.2046 45.9967 52.4471C45.925 52.69 45.9034 52.945 45.9334 53.1963V53.2942C45.9375 53.3679 45.9375 53.4421 45.9334 53.5163C45.9463 53.6638 45.9463 53.8125 45.9334 53.9604C45.9417 54.2579 45.9175 54.5558 45.8621 54.8483C45.745 55.4096 45.5221 55.9433 45.205 56.4208C44.903 56.8842 44.5209 57.29 44.0767 57.62C43.86 57.7867 43.628 57.9325 43.3838 58.055L43.0109 58.2238L42.8242 58.295L42.6646 58.3483C42.1909 58.53 41.7888 58.8604 41.5188 59.29C41.373 59.4933 41.2688 59.7238 41.2125 59.9675C41.1563 60.2117 41.1484 60.4642 41.19 60.7108L41.2521 61.0042C41.2788 61.1421 41.2963 61.2817 41.3055 61.4217C41.3321 61.6963 41.3321 61.9729 41.3055 62.2479C41.2409 62.7896 41.0817 63.3158 40.8346 63.8021C40.3434 64.7792 39.5128 65.5433 38.4985 65.9517C38.4244 65.9817 38.3468 66.0025 38.2676 66.0138H38.2054C38.116 66.0513 38.0299 66.0958 37.9478 66.1471C37.7813 66.2583 37.6317 66.3929 37.5037 66.5471C37.234 66.8817 37.0618 67.2842 37.0063 67.7104C36.9796 67.9317 36.9796 68.1554 37.0063 68.3767V68.5454C37.0104 68.5721 37.0104 68.5988 37.0063 68.6254V68.7408C37.0584 68.9275 37.097 69.1175 37.1218 69.3092C37.2189 70.08 37.1306 70.8625 36.8641 71.5921C36.6127 72.3458 36.1465 73.0096 35.5229 73.5021C35.4405 73.5633 35.3544 73.6196 35.2653 73.6708L35.0077 73.8129L34.8123 73.8929L34.679 73.9729C34.5002 74.0888 34.3437 74.2363 34.2171 74.4079C33.9355 74.8142 33.7725 75.2908 33.7464 75.7846C33.7039 76.3146 33.7735 76.8471 33.9507 77.3479V77.4192C33.9991 77.5746 33.9854 77.7429 33.9126 77.8888C33.8397 78.0342 33.7133 78.1463 33.5598 78.2008C33.48 78.2292 33.395 78.24 33.3107 78.2321C33.2263 78.2246 33.1447 78.1988 33.0713 78.1563C32.938 78.0767 32.8048 77.9967 32.6805 77.9075C32.6109 77.8371 32.5484 77.7596 32.4939 77.6767L32.3607 77.4904L32.1475 77.1617C32.0143 76.9396 31.881 76.7175 31.7567 76.4775C31.5012 76.0104 31.2843 75.5233 31.1083 75.0208C30.9184 74.485 30.7989 73.9267 30.7529 73.36C30.7452 73.0367 30.781 72.7142 30.8595 72.4004C30.9344 72.0192 31.1022 71.6621 31.3481 71.3613L31.4103 71.29V71.2279C31.4401 71.1704 31.4668 71.1108 31.4902 71.0504C31.534 70.9021 31.5666 70.7504 31.5879 70.5975C31.6233 70.2371 31.6233 69.8742 31.5879 69.5138C31.5439 69.1396 31.4636 68.7708 31.3481 68.4121C31.2952 68.2342 31.233 68.0596 31.1615 67.8883L31.055 67.6396L30.9928 67.515L30.9217 67.3729C30.4341 66.4325 30.2275 65.3721 30.3266 64.3175C30.3864 63.7179 30.584 63.14 30.9039 62.6296C31.0765 62.3592 31.2858 62.1142 31.5257 61.9013C31.6499 61.7929 31.7804 61.6921 31.9165 61.5992L32.1298 61.4838L32.2896 61.395H32.3607C32.7712 61.0979 33.0662 60.6679 33.1956 60.1779C33.2907 59.9125 33.3446 59.6338 33.3555 59.3521C33.3692 59.2192 33.3692 59.085 33.3555 58.9521C33.3605 58.8871 33.3605 58.8221 33.3555 58.7567V58.6058C33.3555 58.535 33.3555 58.4638 33.3111 58.4017C33.2147 57.8375 33.2389 57.2592 33.3822 56.705C33.5155 56.1575 33.7605 55.6433 34.1017 55.195C34.7386 54.3367 35.6409 53.7121 36.6687 53.4183L36.8286 53.365H36.9352L37.1573 53.285C37.2998 53.2233 37.4365 53.1492 37.5659 53.0633C37.8394 52.9021 38.0853 52.6983 38.2943 52.4592C38.4872 52.2517 38.6408 52.0108 38.7473 51.7483C38.7871 51.6388 38.8168 51.5258 38.8361 51.4108C38.8361 51.3575 38.8361 51.3133 38.8361 51.2688V51.1092C38.8316 51.0233 38.8316 50.9371 38.8361 50.8513C38.8751 50.2188 39.077 49.6067 39.4223 49.075C39.7267 48.5954 40.108 48.1692 40.5505 47.8133C41.3509 47.1758 42.2917 46.7371 43.295 46.5346H43.3838C43.9867 46.3675 44.543 46.0633 45.0096 45.6463C45.2375 45.4613 45.433 45.2392 45.5867 44.9888C45.6405 44.8904 45.6821 44.7863 45.7113 44.6779C45.7196 44.6342 45.7196 44.5888 45.7113 44.5446C45.715 44.5242 45.715 44.5033 45.7113 44.4825V44.2696C45.7613 43.6346 45.9721 43.0233 46.3242 42.4929C46.628 42.0313 47.0025 41.6208 47.4342 41.2758C48.2384 40.6258 49.18 40.1671 50.188 39.9346C50.9734 39.7763 51.6846 39.3642 52.2134 38.7622C52.4159 38.5328 52.5455 38.2483 52.5863 37.945V37.8473V37.7673C52.5421 37.2049 52.6275 36.6398 52.835 36.1152C53.0896 35.4798 53.4705 34.9027 53.9542 34.4186C54.4059 33.9546 54.9346 33.5728 55.5175 33.2906L55.9617 33.0951L56.1838 33.0152H56.2371C56.4234 32.9263 56.6367 32.8198 56.8321 32.7043C57.2338 32.4674 57.6171 32.2002 57.978 31.9048C58.7042 31.2945 59.328 30.5718 59.8255 29.7641C60.3238 28.9379 60.6892 28.0388 60.9092 27.0994C61.3642 25.1286 61.4159 23.086 61.0605 21.0948C61.0192 20.9721 61.0267 20.8384 61.0813 20.7211C61.1359 20.6039 61.2334 20.5119 61.3534 20.4641C61.4688 20.4204 61.5971 20.4239 61.71 20.4737C61.823 20.5236 61.9117 20.6158 61.9575 20.7306V20.8016C62.3638 21.8216 62.6617 22.8815 62.8455 23.9638C63.0442 25.0687 63.0863 26.196 62.97 27.3126C62.97 27.5968 62.8813 27.8811 62.828 28.2008C62.7746 28.5206 62.7034 28.7693 62.6146 29.0447C62.4417 29.6111 62.2188 30.161 61.9484 30.6879ZM69.0546 26.5131C67.9625 23.694 66.4955 21.0349 64.6934 18.6076C64.1284 17.8015 63.508 17.0357 62.8367 16.3159C62.2325 16.6038 61.7271 17.065 61.3855 17.6407C61.0438 18.2164 60.8813 18.8808 60.918 19.5492C60.7171 18.605 60.3284 17.711 59.7742 16.9204C59.2205 16.1299 58.5125 15.4591 57.6938 14.948C57.6938 14.948 38.0278 12.8073 27.9549 34.1877C19.6053 51.9529 27.5375 78.9646 31.508 80.7413C35.4785 82.5179 60.6517 70.1975 68.5038 52.2458C72.8475 42.3329 71.9771 33.1839 69.0988 26.4865" fill="white"/>
</svg>
