<svg width="100" height="100" viewBox="0 0 100 100" fill="none" xmlns="http://www.w3.org/2000/svg">
<g clip-path="url(#clip0_8_121)">
<path d="M95.454 0.599976H4.54598C2.36666 0.599976 0.599976 2.36666 0.599976 4.54598V95.454C0.599976 97.6333 2.36666 99.4 4.54598 99.4H95.454C97.6333 99.4 99.4 97.6333 99.4 95.454V4.54598C99.4 2.36666 97.6333 0.599976 95.454 0.599976Z" fill="#5C2682"/>
<path d="M19.687 40.431V44.081H27.761V47.442H19.687V53.993H15.964V37.071H28.848V40.431H19.687Z" fill="white"/>
<path d="M45.335 52.518C44.8608 52.8929 44.3459 53.2133 43.8 53.473C43.2183 53.7463 42.6055 53.9478 41.975 54.073C41.2426 54.2169 40.4974 54.286 39.751 54.279C38.5647 54.2898 37.3886 54.0595 36.294 53.602C35.2629 53.1725 34.3264 52.5443 33.538 51.753C32.7566 50.9593 32.1404 50.0185 31.725 48.985C31.2862 47.9024 31.0644 46.7441 31.072 45.576V45.528C31.0632 44.3627 31.2851 43.2071 31.725 42.128C32.1459 41.0941 32.7613 40.1507 33.538 39.349C34.3283 38.5396 35.2738 37.8981 36.318 37.463C37.4534 36.995 38.6721 36.763 39.9 36.781C40.6256 36.7755 41.3499 36.8402 42.063 36.974C42.6719 37.0906 43.2673 37.2688 43.84 37.506C44.3601 37.7255 44.8547 38.0012 45.315 38.328C45.7625 38.6477 46.1829 39.0035 46.572 39.392L44.2 42.123C43.5943 41.5661 42.9149 41.0951 42.181 40.723C41.4611 40.3772 40.6706 40.2036 39.872 40.216C39.1934 40.2097 38.5215 40.3499 37.902 40.627C37.3088 40.8927 36.7777 41.2797 36.343 41.763C35.9029 42.2548 35.5586 42.8246 35.328 43.443C35.0831 44.0961 34.96 44.7885 34.965 45.486V45.534C34.9608 46.2353 35.0838 46.9316 35.328 47.589C35.5551 48.2094 35.894 48.7829 36.328 49.281C36.7708 49.7819 37.3162 50.1814 37.9273 50.4525C38.5383 50.7236 39.2006 50.8599 39.869 50.852C40.8364 50.852 41.6544 50.6747 42.323 50.32C43.048 49.9255 43.7183 49.4381 44.317 48.87L46.686 51.263C46.2681 51.7149 45.8165 52.1345 45.335 52.518Z" fill="white"/>
<path d="M62.909 53.993V42.945L58.146 50.173H58.046L53.332 43.018V53.993H49.662V37.071H53.674L58.122 44.227L62.57 37.071H66.583V53.993H62.909Z" fill="white"/>
<path d="M84.557 51.382C84.2577 51.9641 83.8182 52.4624 83.278 52.832C82.6701 53.242 81.9923 53.5371 81.278 53.703C80.4263 53.9046 79.5533 54.002 78.678 53.993H70.644V37.071H78.487C80.2237 37.071 81.5867 37.466 82.576 38.256C83.5654 39.046 84.0604 40.1097 84.061 41.447V41.5C84.0679 41.9339 84.0069 42.3661 83.88 42.781C83.7673 43.1351 83.6058 43.4717 83.4 43.781C83.2042 44.0742 82.9686 44.3387 82.7 44.567C82.4384 44.7913 82.1526 44.9858 81.848 45.147C82.826 45.5184 83.596 46.022 84.158 46.658C84.72 47.294 85.0007 48.1747 85 49.3V49.348C85.0172 50.0517 84.8653 50.7492 84.557 51.382ZM80.386 42.075C80.386 41.511 80.1767 41.08 79.758 40.782C79.3394 40.484 78.735 40.335 77.945 40.335H74.27V43.912H77.7C78.522 43.912 79.1747 43.771 79.658 43.489C80.1414 43.207 80.383 42.7517 80.383 42.123L80.386 42.075ZM81.329 48.844C81.3378 48.5838 81.2829 48.3253 81.1691 48.0911C81.0553 47.8569 80.886 47.654 80.676 47.5C80.2407 47.17 79.5407 47.0034 78.576 47H74.276V50.723H78.7C79.522 50.723 80.1667 50.574 80.634 50.276C81.1014 49.978 81.3347 49.5147 81.334 48.886L81.329 48.844Z" fill="white"/>
<path d="M84.722 64.8359V73.1219H15.594V68.7639C15.5939 68.2481 15.6954 67.7372 15.8927 67.2606C16.0901 66.784 16.3794 66.3509 16.7442 65.9861C17.109 65.6214 17.542 65.332 18.0187 65.1347C18.4953 64.9373 19.0061 64.8358 19.522 64.8359H84.722Z" fill="#FAB613"/>
<path d="M15.594 75.8051H84.722V84.0911H19.522C19.006 84.0912 18.4951 83.9896 18.0184 83.7922C17.5417 83.5948 17.1086 83.3054 16.7438 82.9405C16.379 82.5756 16.0897 82.1424 15.8924 81.6657C15.6951 81.189 15.5937 80.678 15.594 80.1621V75.8051Z" fill="#FAB613"/>
</g>
<defs>
<clipPath id="clip0_8_121">
<rect width="100" height="100" fill="white"/>
</clipPath>
</defs>
</svg>
