<svg width="116" height="100" viewBox="0 0 116 100" fill="none" xmlns="http://www.w3.org/2000/svg">
<path d="M104.279 0.473359C101.481 5.11137 99.1163 9.23381 96.5606 13.2029C73.8663 48.2116 42.6691 73.4906 6.22256 92.8072C5.28503 93.3197 4.27825 93.6941 3.2335 93.9184C2.08455 93.9184 0.0955606 89.0291 0.0955606 84.56C0.0888934 57.6453 0.0800041 26.9303 0 0H99.6253C100.921 0 102.21 0.260014 104.279 0.473359Z" fill="#002082"/>
<path d="M23.4456 92.4666C26.8547 90.3997 30.3238 88.4463 33.7106 86.3441C45.3696 78.9403 56.3681 70.5444 66.5834 61.2494C82.5422 46.7513 96.3446 30.0448 107.572 11.6378C108.78 9.56313 109.84 7.40579 110.744 5.18188C111.79 5.40413 115.273 9.41767 115.222 15.978C115.288 41.435 115.222 99.1447 115.222 99.1447C85.6843 99.1447 12.8651 98.7225 10.4561 99.2113C14.1007 96.9978 19.8232 94.6644 23.4456 92.4666Z" fill="#6CC049"/>
</svg>
