<svg width="100" height="100" viewBox="0 0 100 100" fill="none" xmlns="http://www.w3.org/2000/svg">
<path d="M25.6043 19.6728C25.7229 24.5088 25.6427 29.3512 25.6588 34.1904C25.6748 39.1419 25.6588 44.0918 25.6588 49.0448V63.9619C28.6871 64.1367 31.6031 64.0757 34.8015 63.9619V50.1371C34.8015 47.882 34.9362 47.744 37.0775 47.7424H55.6452C58.311 47.7424 58.3158 47.7424 58.3158 50.3521V88.1899H65.4358C65.1862 88.6696 64.8964 89.1273 64.5697 89.5581C62.4348 91.709 60.3496 93.9001 58.1393 95.9612C55.7317 98.2213 52.5343 99.4482 49.2327 99.3786C45.9312 99.309 42.7883 97.9486 40.4779 95.5891C32.719 87.89 24.9846 80.1647 17.2748 72.4132C12.9441 68.0825 8.73682 63.6378 4.27134 59.4595C2.92046 58.2137 1.84367 56.7004 1.1095 55.0158C0.375322 53.3312 -0.000156389 51.5123 0.00693453 49.6747C0.0140254 47.8371 0.403534 46.021 1.15069 44.3422C1.89784 42.6633 2.98629 41.1584 4.34675 39.923C10.8413 33.7846 17.0182 27.3238 23.3507 21.0105C23.9008 20.4604 24.5055 19.9663 25.0862 19.4482L25.6043 19.6728Z" fill="#54575C"/>
<path d="M80.2116 47.5803H80.9944C81.0152 48.3647 81.3007 48.7657 82.1428 48.3823C82.7472 48.1321 83.2499 47.6858 83.57 47.1153C83.89 46.5448 84.0088 45.8832 83.9072 45.2369C83.8318 44.2601 83.8591 43.2753 83.7725 42.3001C83.7612 42.1621 83.3522 42.0626 83.1309 41.9423C83.1556 41.3567 83.1185 40.7702 83.0202 40.1924C82.8285 39.7606 82.5715 39.3608 82.2583 39.0071C81.8076 38.0126 81.2638 37.4769 80.1234 38.258C79.5992 38.5387 79.007 38.6676 78.4136 38.6302C64.8332 38.6505 51.2529 38.6505 37.6725 38.6302C37.1643 38.6037 36.6578 38.5502 36.1552 38.4698C35.5045 35.4838 35.4099 32.4035 35.8761 29.3832C35.9254 29.2179 35.9376 29.0438 35.9116 28.8732C35.8856 28.7027 35.8222 28.5401 35.7259 28.397C35.6296 28.2539 35.5028 28.1339 35.3546 28.0457C35.2064 27.9575 35.0405 27.9031 34.8688 27.8867L34.8832 27.0735C35.7462 26.4405 36.8075 26.1378 37.8746 26.2202C44.6723 26.2715 51.4716 26.2555 58.2708 26.2202C58.9841 26.1554 59.6901 26.0259 60.3801 25.8336C60.5557 24.9761 60.6799 24.109 60.7522 23.2368C60.8083 21.2639 60.7682 19.2878 60.7682 16.9813H27.8225C28.1268 16.4509 28.47 15.9437 28.8491 15.4639C32.6777 11.6143 36.5482 7.79207 40.3512 3.91526C41.4925 2.71613 42.8592 1.75401 44.3731 1.08407C45.8869 0.41413 47.5181 0.0495159 49.1731 0.0111443C50.7941 -0.0680516 52.414 0.187616 53.9318 0.762177C55.4496 1.33674 56.8327 2.21787 57.9949 3.35063C61.9728 7.24829 65.9255 11.1706 69.8531 15.1174C74.7196 19.9732 79.5786 24.8386 84.4301 29.7136C88.1706 33.4589 91.98 37.1368 95.6339 40.9623C97.925 43.3415 99.1916 46.5245 99.1616 49.8274C99.1316 53.1303 97.8074 56.2897 95.4735 58.6269C87.0943 67.0745 78.6809 75.4863 70.2333 83.8623C70.1264 83.9456 70.0095 84.0151 69.8852 84.0692C68.4192 83.6971 68.6165 82.507 68.6165 81.4387V51.7507C68.6165 50.7498 68.4978 49.7521 68.4192 48.5186H70.777C73.5952 48.5186 76.4102 48.5187 79.2268 48.5475C79.9614 48.5796 80.2116 48.2412 80.2116 47.5803Z" fill="#386884"/>
</svg>
