<svg width="95" height="100" viewBox="0 0 95 100" fill="none" xmlns="http://www.w3.org/2000/svg">
<path fill-rule="evenodd" clip-rule="evenodd" d="M86.6959 51.5204C85.5465 51.5204 84.3729 51.5204 83.5596 51.4155L94.4538 0.272705H21.8707L19.6176 10.8753C17.0285 10.4626 15.2177 11.5205 14.6665 13.213C14.1275 14.9041 12.1822 22.115 12.1822 26.8604C12.1822 34.3065 14.0562 37.0355 14.0562 37.0355L0.740845 99.7138H73.316L82.0822 58.4799C92.0139 58.1384 94.7993 55.0398 94.7993 53.229C94.7993 50.7111 89.8294 51.5204 86.6959 51.5204Z" fill="#F0BD2D"/>
<path fill-rule="evenodd" clip-rule="evenodd" d="M54.1243 45.8908C54.1243 45.8908 67.0686 58.8513 85.1522 56.6399C91.703 55.8225 93.1562 54.0951 92.9505 53.3033C92.7529 52.5424 90.5106 52.8651 88.3261 52.9551C87.0598 53.0264 76.1763 54.4433 61.6793 43.428C56.0386 41.96 54.1243 45.8908 54.1243 45.8908ZM12.1039 73.5271L26.3401 68.5881L46.0504 82.5487L38.4214 87.3264L49.6934 96.7002L49.8561 93.3905L53.2612 85.0182L52.9964 77.8006L45.8299 66.1589L47.2172 61.103L46.744 55.4327C28.2141 55.4744 20.2665 47.3682 15.8854 40.73L9.08325 73.0781L12.1039 73.5271ZM53.0717 30.153L48.9998 26.2558L42.9369 31.5591L53.0717 30.153ZM70.6633 38.2524C71.8853 40.5055 72.3114 43.6162 72.6676 48.3805C68.4263 46.442 61.3203 40.7233 61.3203 40.7233C53.2316 39.1074 50.4476 45.583 50.4476 45.583L52.2758 47.2069C51.5862 50.3727 49.3412 51.9698 49.3412 51.9698C13.2318 51.9698 14.0222 29.4526 14.0222 26.8594C14.0222 22.1154 15.8854 15.1855 16.4769 13.6678C17.0725 12.1635 19.7907 12.6595 19.7907 12.6595L37.4535 15.2339L41.1705 13.1986C41.1705 13.1986 46.6096 12.794 52.538 14.4649C52.538 14.4649 61.6537 22.0966 65.1758 27.6606L64.907 30.5442C64.907 30.5442 69.5462 36.1607 70.6633 38.2524ZM67.0807 82.5972C68.4774 82.5972 69.4413 81.7502 69.4413 81.7502C69.5838 79.6732 69.1039 78.5978 69.1039 78.5978C67.4316 79.036 66.0684 78.4445 65.8856 76.7359C65.6557 74.4412 70.8421 64.3979 72.1689 61.0479C72.6905 59.7399 72.7349 57.8726 72.7349 57.8726C67.199 57.1037 62.4146 54.1435 62.4146 54.1435L62.9537 57.6548C63.1741 59.8098 60.3793 71.2256 60.952 76.8556C60.952 76.8556 61.436 82.62 67.0807 82.5972ZM26.121 81.0606L26.0793 71.0428L36.8916 78.6314L33.7513 94.0761L35.2058 97.074H22.1634L20.6833 94.103L26.121 81.0606Z" fill="#003B65"/>
</svg>
