<svg width="136" height="86" viewBox="0 0 136 86" fill="none" xmlns="http://www.w3.org/2000/svg">
<path d="M27.134 34.1063V40.6547C27.134 40.6547 21.5181 40.5183 20.3404 40.5638C18.7554 40.6092 19.0724 42.7012 19.0724 42.7012L18.9818 51.1595H26.9981V58.2991H18.846V85.6296H5.03254V58.2991H0.186523V51.1595H5.44014V39.6543C5.44014 39.6543 4.94197 34.4246 11.0108 34.2882C17.0796 34.1518 27.134 34.1063 27.134 34.1063Z" fill="#0D3A94"/>
<path d="M50.3676 53.8884H60.3768C61.2825 53.8884 62.0072 54.2069 62.0072 53.2974L61.8714 42.8381C61.8714 42.7015 61.8714 42.6107 61.8261 42.4743C61.5996 41.5193 60.9655 36.4261 53.7644 34.789C53.6286 34.7434 53.5379 34.6979 53.4021 34.6979C51.9076 34.516 42.1249 33.3793 37.7771 34.7434C34.9691 35.6074 33.2933 36.8808 31.9347 38.245C30.7118 39.4728 29.5796 41.4282 29.4891 43.1564L29.5796 53.161C29.3985 54.3888 30.576 56.2076 32.2065 57.481C34.5162 59.2545 38.7282 61.5737 44.48 64.2568C44.48 64.2568 47.6956 65.2573 47.8768 67.3036C48.0126 68.9408 48.3749 74.4433 48.3749 76.4897C48.3749 77.0808 48.0579 77.6265 47.5598 77.8994C46.9257 78.2633 45.9293 78.4905 44.7971 77.9448C44.2989 77.672 43.9366 77.1263 43.9366 76.5351L43.6648 66.576C43.6194 65.712 43.6648 64.9389 42.8044 64.9389L30.6213 64.8025C29.7608 64.8025 29.5343 64.4842 29.5343 65.3482L29.8061 77.7175C29.8061 77.8994 29.8514 78.0358 29.8968 78.2177C30.3044 79.4455 32.3876 84.8116 38.2301 85.3118C44.4347 85.8575 51.5453 85.6301 52.4964 85.5846C52.5868 85.5846 52.6322 85.5846 52.7229 85.5846C53.6286 85.4027 59.8333 85.0391 61.9619 79.4455C62.0072 79.3092 62.0526 79.1273 62.0977 78.9907C62.2337 77.3991 62.4149 68.7133 62.0977 65.3937C62.0977 65.3482 62.0977 65.2573 62.0977 65.2118C61.9619 64.5297 61.2825 60.6189 54.6703 57.8903C54.6703 57.8903 46.4728 54.3433 44.2082 52.3423C43.8459 52.024 43.3931 51.1145 43.3931 50.6598L43.4383 43.1109C43.8008 41.5648 44.8423 42.0194 46.2463 42.0194C47.6503 42.0194 48.4655 43.2017 48.4655 44.6116L48.6013 53.2063C48.5562 54.025 49.5072 53.8884 50.3676 53.8884Z" fill="#0D3A94"/>
<path d="M84.3352 84.0379C84.3352 84.0379 77.8586 86.4481 72.6051 85.3567C68.1666 84.4017 66.2192 81.4459 65.3586 80.0361C65.087 79.5813 64.9964 77.6714 64.9964 77.1257L64.9059 40.4272C64.9059 39.1539 65.3586 37.9261 66.2192 37.0165C67.6685 35.4704 70.2501 33.4241 73.4657 33.6969C78.5381 34.1062 83.4746 34.8792 83.4746 34.8792L83.067 41.928C83.067 41.928 79.5798 40.9276 79.1268 42.2462C78.1758 44.9748 78.4927 76.3072 78.4927 76.3072C78.4927 76.3072 79.2626 79.0356 81.7537 77.6259C84.2445 76.2161 84.3352 77.2167 84.3352 77.2167V84.0379Z" fill="#0D3A94"/>
<path d="M98.7375 10.1404L83.2937 21.873V84.4467H98.511L98.7375 10.1404Z" fill="#0D3A94"/>
<path d="M122.333 85.6296H135.603V40.4273C135.603 40.4273 135.105 35.2886 126.998 34.2882C126.998 34.2882 122.831 33.5606 119.344 35.0158L115.63 36.3345L115.404 42.792C115.404 42.792 120.159 41.2004 121.563 42.0189C122.741 42.7012 122.56 44.2473 122.696 46.9758C122.831 49.7953 122.333 85.6296 122.333 85.6296Z" fill="#0D3A94"/>
<path d="M102.179 0.364868L117.578 13.6891V85.0396H102.406L102.179 0.364868Z" fill="#0D3A94"/>
</svg>
