<svg width="100" height="100" viewBox="0 0 100 100" fill="none" xmlns="http://www.w3.org/2000/svg">
<path fill-rule="evenodd" clip-rule="evenodd" d="M50.0771 5.94726e-05C59.9629 0.0153063 69.6223 2.96071 77.8346 8.46404C86.0469 13.9674 92.4435 21.7816 96.2161 30.9193C99.9886 40.0569 100.968 50.1078 99.0298 59.8018C97.0919 69.4957 92.3238 78.3977 85.3281 85.3826C78.3324 92.3675 69.4231 97.1219 59.7262 99.0449C50.0292 100.968 39.9799 99.9732 30.8481 96.1866C21.7162 92.4 13.9119 85.9913 8.42119 77.7705C2.93052 69.5498 1.17576e-05 59.8858 0 50.0001C-7.81704e-06 43.4275 1.29583 36.9194 3.81339 30.8481C6.33094 24.7767 10.0208 19.2614 14.6719 14.6174C19.323 9.97349 24.8441 6.29212 30.9193 3.78393C36.9944 1.27573 43.5045 -0.0100774 50.0771 5.94726e-05Z" fill="#EB2232"/>
<path fill-rule="evenodd" clip-rule="evenodd" d="M54.1529 58.5553V49.1382L66.1012 49.2153C71.8553 49.2538 74.6564 53.8535 74.6564 58.6596C74.6564 71.9483 54.1869 74.797 54.1665 58.5553M54.1665 33.5768C76.2055 22.0096 78.1516 47.4121 64.8424 46.2055H54.1144L54.1665 33.5768ZM73.3704 47.3668C89.1699 41.3155 75.9651 17.7592 50.1044 32.3316C47.45 30.1669 44.2879 28.7143 40.9164 28.1107C34.5272 26.8134 25.9606 27.9429 21.1545 32.4201L23.477 34.6882C25.9659 32.5442 29.0127 31.1518 32.2626 30.6731C35.5124 30.1945 38.8314 30.6493 41.8327 31.9846C42.8369 32.4614 43.7216 33.1571 44.4218 34.0205C45.122 34.884 45.6199 35.8933 45.8789 36.9744L45.9946 58.6188C45.0465 73.6539 25.6816 72.4927 25.6861 58.6188V49.1223H40.9164V46.2554H17.6685V55.6022C17.7274 73.3681 39.3378 76.3575 50.0409 67.7115C54.4179 70.9569 59.7746 72.605 65.2189 72.3815C84.4047 72.2522 88.3534 51.5605 73.3205 47.3532L73.3704 47.3668Z" fill="white"/>
</svg>
