<svg width="122" height="98" viewBox="0 0 122 98" fill="none" xmlns="http://www.w3.org/2000/svg">
<path fill-rule="evenodd" clip-rule="evenodd" d="M13.1352 32.4254C13.1352 42.0261 19.3216 48.9567 28.0063 48.9567C29.7315 48.9567 31.397 48.6567 32.9139 48.1167C30.0585 46.7365 28.0659 43.7663 28.0659 40.3459C28.0659 35.6056 31.8729 31.7354 36.5722 31.7354C39.0705 31.7354 41.3309 32.8154 42.8776 34.5556C42.9666 33.8654 42.9965 33.1454 42.9965 32.4254C42.9965 22.9146 36.5722 16.0141 28.0063 16.0141C19.3216 16.0141 13.1352 22.9146 13.1352 32.4254ZM0.286401 32.4254C0.286401 16.5542 12.0643 4.01322 28.0061 4.01322C44.067 4.01322 55.845 16.5542 55.845 32.4254C55.845 48.4167 44.067 60.9278 28.0061 60.9278C11.8264 60.9278 0.286401 48.4167 0.286401 32.4254ZM109.106 32.4254C109.106 22.9146 102.682 16.0141 94.1165 16.0141C85.4316 16.0141 79.2155 22.9146 79.2155 32.4254C79.2155 42.0261 85.4316 48.9567 94.1165 48.9567C95.8415 48.9567 97.507 48.6567 99.0239 48.1167C96.1389 46.7065 94.1759 43.7663 94.1759 40.3459C94.1759 35.6056 97.9829 31.7354 102.682 31.7354C105.181 31.7354 107.441 32.8154 108.988 34.5556C109.077 33.8654 109.106 33.1454 109.106 32.4254ZM121.956 32.4254C121.956 48.4167 110.178 60.9278 94.117 60.9278C77.9372 60.9278 66.3974 48.4167 66.3974 32.4254C66.3974 16.5542 78.1455 4.01322 94.117 4.01322C110.178 4.01322 121.956 16.5542 121.956 32.4254ZM48.7507 3.84516C49.7142 7.64946 53.5541 9.94463 57.3224 8.97255C61.0937 7.99748 63.3691 4.12718 62.4024 0.322876L48.7507 3.84516ZM43.0018 69.2052H55.8504C55.8504 85.1663 44.0726 97.6774 28.0116 97.6774C11.8319 97.6774 0.262207 85.1663 0.262207 69.2052H13.1109C13.1109 78.7759 19.327 85.6765 28.0116 85.6765C36.5774 85.6765 43.0018 78.7759 43.0018 69.2052ZM121.956 75.2026V85.2235C121.956 88.1457 120.153 90.0869 117.031 90.0869C114.422 90.0869 113.015 88.6257 112.519 86.7685L114.836 86.2885C115.044 87.3087 115.728 87.9357 117.031 87.9357C118.541 87.9357 119.472 86.9967 119.472 85.2444V84.1374L119.452 84.0744C118.747 84.9294 117.899 85.5144 116.326 85.5144C114.071 85.5144 112.56 84.1794 112.56 81.1311V75.2026H115.044V80.7141C115.044 82.5922 115.871 83.1772 117.114 83.1772C118.458 83.1772 119.472 82.2802 119.472 80.525V75.2026H121.956ZM105.624 76.9759C103.946 76.9759 103.016 78.125 102.789 79.313H108.292C108.229 78.3741 107.402 76.9759 105.624 76.9759ZM102.766 81.2363C102.87 82.5504 103.989 83.8465 105.624 83.8465C107.07 83.8465 107.9 82.9674 108.146 82.2593L110.237 82.9074C109.637 84.5756 108.146 85.9135 105.624 85.9135C102.665 85.9135 100.387 83.6154 100.387 80.4022C100.387 77.2489 102.665 74.9117 105.604 74.9117C108.604 74.9117 110.484 77.1018 110.484 80.2761V81.2363H102.766ZM89.1054 75.2028H91.1546L91.5085 76.4539C92.1479 75.5987 93.1235 74.9117 94.6522 74.9117C96.99 74.9117 98.3581 76.2678 98.3581 79.313V85.6196H95.8746V79.6491C95.8746 77.81 95.0241 77.228 93.867 77.228C92.6029 77.228 91.5887 78.125 91.5887 79.9011V85.6196H89.1054V75.2028ZM84.59 80.402C84.59 78.563 83.3498 77.2278 81.6931 77.2278C80.0187 77.2278 78.817 78.563 78.817 80.402C78.817 82.2593 80.0187 83.5944 81.6931 83.5944C83.3498 83.5944 84.59 82.2593 84.59 80.402ZM76.3341 80.4022C76.3341 77.333 78.6124 74.9117 81.6937 74.9117C84.7987 74.9117 87.0741 77.333 87.0741 80.4022C87.0741 83.4894 84.7987 85.9135 81.6937 85.9135C78.5707 85.9135 76.3341 83.4894 76.3341 80.4022ZM59.2974 75.2028H61.3466L61.6768 76.4328C62.2983 75.5987 63.3929 74.9117 64.8652 74.9117C66.4178 74.9117 67.2444 75.6618 67.6579 76.4748C68.3004 75.6407 69.377 74.9117 70.9683 74.9117C72.8926 74.9117 74.2994 76.0578 74.2994 78.7309V85.6196H71.8159V79.4211C71.8159 77.8339 71.1348 77.228 70.0581 77.228C68.9191 77.228 68.0505 78.062 68.0505 79.712V85.6196H65.567V79.4211C65.567 77.8339 64.8235 77.228 63.7885 77.228C62.6702 77.228 61.7809 78.0409 61.7809 79.712V85.6196H59.2974V75.2028Z" fill="#A2A2A2"/>
</svg>
