<svg width="102" height="94" viewBox="0 0 102 94" fill="none" xmlns="http://www.w3.org/2000/svg">
<path d="M43.4365 92.8845C41.68 93.184 39.8845 93.3402 38.0757 93.3402C27.7475 93.3402 18.0876 88.4047 10.8788 79.4452C3.86655 70.7332 0 59.2085 0 46.9935C0 34.7785 3.86655 23.2535 10.8657 14.5546C18.0876 5.59517 27.7475 0.659668 38.0757 0.659668C48.404 0.659668 58.0638 5.59517 65.2728 14.5546C66.9373 16.6121 68.4183 18.839 69.716 21.196H85.038C79.2708 10.9474 70.2925 4.22779 59.06 0.933143C60.423 0.750818 61.7993 0.659668 63.1885 0.659668C73.517 0.659668 83.1768 5.59517 90.3855 14.5546C94.108 19.1645 96.939 24.5817 98.774 30.468H63.346C58.6275 18.7738 49.0725 10.7651 38.0625 10.7651C22.3998 10.7651 9.64673 27.017 9.64673 47.0065C9.64673 64.717 18.0745 87.376 43.4233 92.8845H43.4365Z" fill="url(#paint0_linear_0_1)"/>
<path d="M100.871 40.3763H50.2777V65.822H62.3362C60.1867 70.3147 57.29 74.1565 53.8822 77.0865C67.6182 78.571 72.9397 66.304 74.945 58.0607H59.374V49.6483H91.722C90.6602 68.4005 78.1562 83.233 63.1882 83.233C48.22 83.233 34.7722 66.981 34.7722 46.9918C34.7722 34.8288 39.4907 24.0593 46.7127 17.4828C37.9047 15.1518 28.5465 22.4053 25.7677 38.423C25.3352 41.2228 25.1255 44.0878 25.1255 46.9918C25.1255 59.2068 28.9922 70.7315 35.9912 79.4435C43.2 88.403 52.86 93.3385 63.1882 93.3385C73.5165 93.3385 83.1762 88.403 90.385 79.4435C97.3972 70.7315 101.251 59.2068 101.251 46.9918C101.251 44.7518 101.12 42.551 100.871 40.3763Z" fill="#3333FF"/>
<defs>
<linearGradient id="paint0_linear_0_1" x1="61.1833" y1="1.44102" x2="20.4181" y2="114.67" gradientUnits="userSpaceOnUse">
<stop stop-color="#00FFFF"/>
<stop offset="0.32" stop-color="#10BEFF"/>
<stop offset="1" stop-color="#3333FF"/>
</linearGradient>
</defs>
</svg>
