<svg width="77" height="76" viewBox="0 0 77 76" fill="none" xmlns="http://www.w3.org/2000/svg">
<path d="M76.3552 0H0.978027V75.3816H76.3552V0Z" fill="#E04403"/>
<path d="M62.9737 10.715H44.1272V29.5615H62.9737V10.715Z" fill="white"/>
<path d="M20.4913 61.0219C17.4211 61.0219 14.1492 60.1666 14.1492 52.7105C14.1492 45.2543 18.0965 43.9385 21.4167 43.9385C22.7673 43.9201 24.1033 44.2206 25.3158 44.8157V47.4736C24.0635 47.0088 22.7499 46.7295 21.4167 46.6447C19.7325 46.6447 17.4693 47.5482 17.4693 52.5087C17.4693 57.7719 19.2237 58.4035 20.4386 58.4035C21.1967 58.3824 21.952 58.3017 22.6974 58.1622V53.114H20.4386L20.2018 50.5701H26.022V60.1666C24.2198 60.6743 22.3626 60.9615 20.4913 61.0219Z" fill="white"/>
<path d="M38.9473 47.0087H35.2895V60.785H31.9605V47.0087H27.9254V44.1578H39.3289L38.9473 47.0087Z" fill="white"/>
<path d="M46.0526 61.0219C43.2719 61.0219 40.1622 60.1447 40.1622 52.4693C40.1622 44.7938 44.0789 43.921 46.3596 43.921C47.4133 43.8992 48.4597 44.101 49.4298 44.5131V47.1974C48.4948 46.8727 47.5189 46.6808 46.5306 46.6272C44.9166 46.6272 43.4912 47.6009 43.4912 52.4693C43.4912 56.8202 44.5131 58.2895 46.2938 58.2895C47.363 58.2514 48.4203 58.0518 49.4298 57.6974V60.3816C48.3635 60.8365 47.2114 61.055 46.0526 61.0219Z" fill="white"/>
<path d="M57.1404 61.0219C54.5746 61.0219 51.2018 60.5 51.2018 52.4693C51.2018 44.4386 54.7895 43.921 57.1404 43.921C59.4913 43.921 63.079 44.4912 63.079 52.4693C63.079 60.5701 59.6491 61.0219 57.1404 61.0219ZM57.1404 46.2938C55.4781 46.2938 54.5088 47.3859 54.5088 52.4693C54.5088 57.6272 55.7193 58.6491 57.1404 58.6491C58.5614 58.6491 59.75 57.6973 59.75 52.4693C59.75 47.4824 58.772 46.2938 57.1404 46.2938Z" fill="white"/>
</svg>
