<svg width="141" height="100" viewBox="0 0 141 100" fill="none" xmlns="http://www.w3.org/2000/svg">
<g clip-path="url(#clip0_7_171)">
<path fill-rule="evenodd" clip-rule="evenodd" d="M1.77928 18.2546L0.000244141 25.1284L35.4207 9.76343L1.77928 18.2546Z" fill="#FF7200"/>
<path d="M1.68689 37.5611V42.0128H13.2608V27.0392L1.68689 37.5611Z" fill="#D43264"/>
<path d="M1.68689 37.5771V42.0129H11.1537V29.7653L1.68689 37.5771Z" fill="#FF7200"/>
<path d="M90.3401 7.48677C91.0206 7.30129 92.3201 7.11558 94.2382 7.11558C98.9407 7.11558 101.601 9.40486 101.601 13.241C101.601 17.5105 98.5074 20.0474 93.4956 20.0474C92.1344 20.0474 91.1443 19.9856 90.3401 19.7998V7.48677ZM80.9971 42.0128H90.3401V27.1011C91.2062 27.2249 92.3201 27.2867 93.5576 27.2867C99.1262 27.2867 103.891 25.9255 107.108 22.8935C109.583 20.5422 110.944 17.0773 110.944 12.9936C110.944 8.91002 109.15 5.44502 106.489 3.34134C103.705 1.11378 99.5594 0 93.7432 0C87.9888 0 83.9051 0.371298 80.9971 0.866249V42.0128Z" fill="#005EC2"/>
<path d="M137.915 16.706H122.57V8.04374H138.843V0.309326H113.104V42.0128H139.71V34.2785H122.57V24.3785H137.915V16.706Z" fill="#005EC2"/>
<path d="M1.68689 0.309317V23.3937L7.46652 21.0522L35.4517 9.71463C32.5292 12.1262 29.6066 14.5379 26.6841 16.9494V42.0127H36.0891V0.309204H26.6841C26.6841 3.08833 26.6841 5.86758 26.6841 8.64682C26.6841 10.1384 25.9474 12.1262 22.5892 12.7621L11.1538 14.9281V0.309204H1.687L1.68689 0.309317Z" fill="#005EC2"/>
<path fill-rule="evenodd" clip-rule="evenodd" d="M58.3405 0.740845C70.2358 0.740845 79.8789 10.384 79.8789 22.2793C79.8789 34.1747 70.2358 43.8178 58.3405 43.8178C46.4451 43.8178 36.802 34.1747 36.802 22.2793C36.802 10.384 46.4451 0.740845 58.3405 0.740845ZM58.3405 11.2277C64.4441 11.2277 69.3921 16.1757 69.3921 22.2793C69.3921 28.3829 64.4439 33.3309 58.3405 33.3309C52.237 33.3309 47.2888 28.3828 47.2888 22.2793C47.2888 16.1757 52.237 11.2277 58.3405 11.2277Z" fill="#005EC2"/>
<path d="M2.92493 54.2346V48.974H4.91107C5.26006 48.974 5.52696 48.9912 5.71198 49.0241C5.97039 49.067 6.18712 49.149 6.36229 49.2691C6.53735 49.3903 6.67822 49.5593 6.78477 49.7761C6.89133 49.9928 6.94398 50.2315 6.94398 50.4924C6.94398 50.9383 6.80187 51.3166 6.51663 51.6251C6.23252 51.9349 5.71697 52.0892 4.97256 52.0892H3.62313V54.2346H2.92515H2.92493ZM3.62291 51.472H4.98218C5.43286 51.472 5.75116 51.3888 5.94094 51.221C6.12948 51.0532 6.22381 50.8181 6.22381 50.5132C6.22381 50.2941 6.16866 50.1054 6.05724 49.9487C5.94593 49.792 5.79883 49.6879 5.61766 49.6377C5.50001 49.6072 5.28339 49.5912 4.96859 49.5912H3.6228V51.4722L3.62291 51.472ZM11.6516 54.2346L13.6697 48.974H14.4351L16.5768 54.2346H15.7845L15.1759 52.6403H12.9607L12.3901 54.2346H11.6516ZM13.1651 52.0746H14.9579L14.4093 50.6161C14.244 50.1728 14.1191 49.8067 14.0322 49.5177C13.9599 49.8606 13.8632 50.1974 13.7419 50.5304L13.1651 52.0746ZM23.0149 54.2346V52.0059L20.987 48.974H21.8246L22.8642 50.5658C23.0577 50.8609 23.2376 51.1561 23.4018 51.4512C23.5623 51.1757 23.7569 50.8671 23.9835 50.5243L25.0023 48.974H25.8142L23.7129 52.0059V54.2346H23.0149ZM31.3657 54.2346V48.974H32.4091L33.6532 52.6978C33.7684 53.0443 33.8516 53.3038 33.9043 53.4766C33.9643 53.2856 34.0585 53.004 34.1859 52.6329L35.4521 48.9741H36.384V54.2347H35.7153V49.8338L34.1798 54.2347H33.5528L32.0344 49.7529V54.2347H31.3657V54.2346ZM42.4632 54.2346V48.974H46.2618V49.5911H43.1612V51.2075H46.0633V51.8247H43.1612V53.6174H46.3866V54.2346H42.4632ZM52.2898 54.2346V48.974H53.0049L55.765 53.1031V48.974H56.4336V54.2346H55.7184L52.9583 50.1055V54.2346H52.2898ZM63.8881 54.2346V49.5911H62.1542V48.974H66.32V49.5911H64.586V54.2346H63.888H63.8881ZM75.7094 52.5447L76.3634 52.4859C76.3939 52.7505 76.4662 52.9672 76.5801 53.1375C76.694 53.3064 76.8702 53.4437 77.109 53.5489C77.3478 53.6529 77.6172 53.7057 77.916 53.7057C78.1817 53.7057 78.4156 53.6665 78.6189 53.5869C78.8221 53.5073 78.9727 53.3984 79.0721 53.26C79.1712 53.1217 79.2214 52.971 79.2214 52.8093C79.2214 52.6453 79.1736 52.502 79.0782 52.3783C78.9827 52.2559 78.8247 52.153 78.6043 52.0684C78.4635 52.0145 78.1511 51.9288 77.6675 51.8125C77.1837 51.6962 76.8458 51.5872 76.6523 51.4844C76.4013 51.3522 76.2151 51.188 76.0926 50.9934C75.969 50.7986 75.9077 50.5795 75.9077 50.3382C75.9077 50.0713 75.9836 49.8228 76.1342 49.5926C76.2849 49.3611 76.504 49.1859 76.7943 49.066C77.0833 48.946 77.4053 48.886 77.7592 48.886C78.1486 48.886 78.4927 48.9485 78.7903 49.0745C79.0878 49.1994 79.3169 49.3843 79.4772 49.6293C79.6377 49.8729 79.7234 50.1497 79.7356 50.4582L79.067 50.5097C79.0314 50.1779 78.9102 49.9268 78.7034 49.7579C78.4964 49.5876 78.1903 49.5032 77.7862 49.5032C77.3649 49.5032 77.0576 49.5803 76.8653 49.7347C76.6731 49.8889 76.5763 50.0751 76.5763 50.293C76.5763 50.4817 76.645 50.6372 76.7809 50.7596C76.9156 50.8808 77.2646 51.0069 77.8303 51.1343C78.396 51.2629 78.7842 51.3742 78.9949 51.4698C79.2999 51.6106 79.5265 51.7882 79.6721 52.0049C79.8178 52.2204 79.8901 52.469 79.8901 52.7506C79.8901 53.0311 79.8105 53.2931 79.6501 53.5405C79.4897 53.7878 79.2607 53.9801 78.9606 54.1172C78.6606 54.2543 78.3238 54.323 77.9479 54.323C77.4727 54.323 77.0748 54.2532 76.7539 54.1148C76.4319 53.9765 76.1808 53.7683 75.9984 53.4891C75.8147 53.2111 75.7192 52.8964 75.7094 52.5449V52.5447ZM85.8004 54.2346V48.974H89.599V49.5911H86.4984V51.2075H89.4005V51.8247H86.4984V53.6174H89.7237V54.2346H85.8004ZM95.6489 54.2346V48.974H97.9805C98.4495 48.974 98.8059 49.0217 99.0496 49.116C99.2932 49.2103 99.488 49.3769 99.6336 49.6156C99.7794 49.8544 99.8516 50.1189 99.8516 50.4079C99.8516 50.7813 99.7303 51.0961 99.4891 51.352C99.2479 51.6078 98.8757 51.7695 98.3712 51.8394C98.5561 51.9275 98.6957 52.0157 98.7912 52.1015C98.9944 52.2877 99.1867 52.5215 99.3667 52.8019L100.277 54.2346H99.4072L98.7116 53.1399C98.5095 52.8227 98.3418 52.5814 98.2108 52.4137C98.0785 52.246 97.961 52.1296 97.857 52.0622C97.7542 51.9961 97.6476 51.9497 97.5398 51.9227C97.4614 51.9068 97.3328 51.8981 97.1528 51.8981H96.3471V54.2345H95.649L95.6489 54.2346ZM96.347 51.2957H97.8409C98.1593 51.2957 98.4066 51.2627 98.5855 51.1965C98.7643 51.1317 98.9003 51.0262 98.992 50.8806C99.0851 50.7361 99.1317 50.5793 99.1317 50.4092C99.1317 50.1605 99.0423 49.9549 98.8623 49.7943C98.6822 49.634 98.3981 49.5544 98.0099 49.5544H96.3471V51.2957H96.347ZM107.255 54.2346L105.222 48.974H105.976L107.343 52.797C107.452 53.1032 107.545 53.3897 107.618 53.6578C107.699 53.37 107.793 53.0835 107.901 52.797L109.319 48.974H110.029L107.978 54.2346H107.255H107.255ZM115.722 54.2346V48.974H116.42V54.2346H115.722ZM126.341 52.3892L127.039 52.5656C126.893 53.1374 126.631 53.5721 126.252 53.8722C125.874 54.1722 125.411 54.3228 124.864 54.3228C124.298 54.3228 123.838 54.2078 123.482 53.9763C123.127 53.7461 122.858 53.4119 122.673 52.9747C122.488 52.5363 122.395 52.0673 122.395 51.5652C122.395 51.0179 122.499 50.5403 122.709 50.1325C122.918 49.7247 123.216 49.4149 123.601 49.203C123.987 48.9913 124.412 48.8859 124.875 48.8859C125.401 48.8859 125.843 49.0194 126.201 49.2876C126.56 49.5558 126.809 49.9317 126.95 50.4166L126.267 50.5783C126.146 50.1962 125.968 49.917 125.737 49.7431C125.505 49.568 125.214 49.481 124.862 49.481C124.46 49.481 124.122 49.5777 123.851 49.7712C123.58 49.9648 123.389 50.2255 123.28 50.5512C123.17 50.8781 123.115 51.2149 123.115 51.5615C123.115 52.0084 123.18 52.399 123.31 52.7321C123.44 53.0664 123.642 53.3149 123.916 53.4803C124.19 53.6456 124.486 53.7276 124.806 53.7276C125.195 53.7276 125.524 53.615 125.793 53.3908C126.062 53.1656 126.245 52.8323 126.34 52.3891L126.341 52.3892ZM132.862 54.2346V48.974H136.66V49.5911H133.56V51.2075H136.462V51.8247H133.56V53.6174H136.785V54.2346H132.862Z" fill="#4B4B4D"/>
<path d="M0.446045 99.9999H16.0109C24.59 99.9999 31.6983 96.4457 31.6983 88.2345C31.6983 82.9644 28.8795 80.023 23.2419 78.9201V78.6749C27.8991 77.4494 29.86 73.5275 29.86 70.0959C29.86 62.2522 23.1193 60.1687 14.7854 60.1687H0.446045V99.9999ZM10.9861 75.8562V68.2575H14.5402C17.9719 68.2575 19.5651 69.238 19.5651 71.6892C19.5651 74.1404 17.9719 75.8562 14.5402 75.8562H10.9861ZM10.9861 91.9112V83.2096H15.2757C19.4426 83.2096 21.4034 84.4351 21.4034 87.3765C21.4034 90.3179 19.4425 91.9112 15.2757 91.9112H10.9861ZM45.3265 83.3933L46.0005 80.6358C46.9322 76.8243 47.9614 72.0569 48.8193 68.0124H49.0645C50.045 71.9955 51.0743 76.825 52.0059 80.6358L52.68 83.3933H45.3265ZM56.5405 99.9999H67.6931L55.5599 60.1687H42.8139L30.6806 99.9999H41.4657L43.4266 91.5435H54.5792L56.5402 99.9999H56.5405ZM70.3654 99.9999H80.4152V88.4795C80.4152 83.5772 79.5572 77.8171 79.067 73.2823H79.3122L83.1114 82.1678L91.9356 99.9999H102.721V60.1687H92.6709V71.6891C92.6709 76.5887 93.5287 82.5967 94.019 86.8862H93.7739L89.9746 77.9395L81.1504 60.1686H70.3654V99.9998V99.9999ZM106.132 99.9999H116.672V90.0727L120.471 84.6803L129.296 99.9999H140.816L126.599 76.3464L138.487 60.1687H126.967L116.917 74.9982H116.672V60.1687H106.132V99.9999Z" fill="#005EC2"/>
</g>
<defs>
<clipPath id="clip0_7_171">
<rect width="140.816" height="100" fill="white"/>
</clipPath>
</defs>
</svg>
