<svg width="30" height="28" viewBox="0 0 30 28" fill="none" xmlns="http://www.w3.org/2000/svg">
<path d="M3.62903 7.35195H11.194C11.2024 7.35193 11.2107 7.35386 11.2182 7.3576C11.2257 7.36133 11.2322 7.36675 11.2373 7.37345C11.2423 7.38014 11.2457 7.38792 11.2473 7.39617C11.2488 7.40441 11.2484 7.4129 11.246 7.42095L9.49103 13.4359C9.48777 13.4472 9.48094 13.4571 9.47156 13.4642C9.46217 13.4712 9.45076 13.475 9.43903 13.475H1.07903C1.06714 13.4752 1.05539 13.4723 1.04493 13.4667C1.03446 13.4611 1.02563 13.4528 1.01929 13.4427C1.01295 13.4327 1.00932 13.4212 1.00875 13.4093C1.00818 13.3974 1.01069 13.3856 1.01603 13.375L3.57903 7.38095C3.58385 7.37195 3.59108 7.36448 3.59991 7.35935C3.60874 7.35423 3.61883 7.35167 3.62903 7.35195Z" fill="#78C2ED" stroke="white" stroke-width="1.18823" stroke-miterlimit="10"/>
<path d="M9.52803 13.554L11.282 7.51495C11.2834 7.51048 11.2862 7.50657 11.29 7.50379C11.2938 7.50101 11.2983 7.49951 11.303 7.49951C11.3077 7.49951 11.3123 7.50101 11.3161 7.50379C11.3198 7.50657 11.3226 7.51048 11.324 7.51495L13.124 13.942C13.125 13.9438 13.1255 13.9459 13.1255 13.948C13.1255 13.95 13.125 13.9521 13.124 13.954L11.374 19.992C11.373 19.9969 11.3702 20.0013 11.3663 20.0044C11.3624 20.0076 11.3576 20.0093 11.3525 20.0093C11.3475 20.0093 11.3426 20.0076 11.3387 20.0044C11.3348 20.0013 11.3321 19.9969 11.331 19.992L9.52503 13.566C9.52496 13.5618 9.526 13.5576 9.52803 13.554Z" fill="#123F76" stroke="white" stroke-width="1.19456" stroke-miterlimit="10"/>
<path d="M9.42996 13.535L1.02996 13.499C1.02419 13.499 1.01851 13.5004 1.01339 13.503C1.00826 13.5057 1.00385 13.5095 1.00052 13.5142C0.997188 13.5189 0.995034 13.5244 0.99424 13.5301C0.993446 13.5358 0.994034 13.5416 0.995955 13.547L3.39996 20.188C3.40262 20.1951 3.40741 20.2012 3.41367 20.2055C3.41993 20.2098 3.42736 20.2121 3.43496 20.212L11.241 20.059C11.2465 20.0589 11.252 20.0575 11.2569 20.055C11.2618 20.0525 11.2662 20.0489 11.2695 20.0444C11.2729 20.04 11.2752 20.0349 11.2763 20.0295C11.2774 20.024 11.2773 20.0184 11.276 20.013L9.46195 13.561C9.46006 13.5539 9.45594 13.5475 9.45019 13.5428C9.44444 13.5381 9.43735 13.5354 9.42996 13.535Z" fill="#0F9CDA" stroke="white" stroke-width="1.18823" stroke-miterlimit="10"/>
<path d="M12.445 13.571H20.011C20.0194 13.5712 20.0277 13.5733 20.0352 13.5771C20.0427 13.581 20.0492 13.5865 20.0542 13.5932C20.0592 13.6 20.0626 13.6078 20.0642 13.6161C20.0657 13.6244 20.0653 13.6329 20.063 13.641L18.308 19.656C18.3046 19.6672 18.2977 19.677 18.2884 19.684C18.279 19.6911 18.2677 19.6949 18.256 19.695H9.89998C9.88811 19.6952 9.8764 19.6923 9.86595 19.6866C9.8555 19.681 9.84666 19.6728 9.84026 19.6628C9.83386 19.6528 9.83011 19.6413 9.82936 19.6295C9.82861 19.6176 9.83089 19.6058 9.83598 19.595L12.4 13.6C12.4045 13.5918 12.4109 13.5849 12.4188 13.5798C12.4266 13.5748 12.4357 13.5717 12.445 13.571Z" fill="#78C2ED" stroke="white" stroke-width="1.18823" stroke-miterlimit="10"/>
<path d="M18.345 19.773L20.1 13.734C20.1011 13.7291 20.1038 13.7247 20.1077 13.7215C20.1116 13.7184 20.1165 13.7167 20.1215 13.7167C20.1265 13.7167 20.1314 13.7184 20.1353 13.7215C20.1392 13.7247 20.1419 13.7291 20.143 13.734L21.943 20.161C21.944 20.1649 21.944 20.1691 21.943 20.173L20.192 26.212C20.1906 26.2165 20.1878 26.2204 20.184 26.2232C20.1803 26.226 20.1757 26.2275 20.171 26.2275C20.1663 26.2275 20.1618 26.226 20.158 26.2232C20.1542 26.2204 20.1514 26.2165 20.15 26.212L18.343 19.787C18.3419 19.7823 18.3427 19.7773 18.345 19.773Z" fill="#123F76" stroke="white" stroke-width="1.19456" stroke-miterlimit="10"/>
<path d="M18.247 19.754L9.84698 19.718C9.84109 19.7179 9.83528 19.7193 9.83005 19.722C9.82482 19.7247 9.82032 19.7287 9.81697 19.7335C9.81361 19.7383 9.8115 19.7439 9.8108 19.7498C9.8101 19.7556 9.81085 19.7615 9.81298 19.767L12.219 26.407C12.2218 26.414 12.2266 26.4201 12.2328 26.4244C12.239 26.4286 12.2464 26.431 12.254 26.431L20.061 26.278C20.0665 26.2779 20.0719 26.2766 20.0769 26.274C20.0818 26.2715 20.0861 26.2679 20.0893 26.2634C20.0926 26.259 20.0949 26.2538 20.0958 26.2484C20.0968 26.2429 20.0965 26.2373 20.095 26.232L18.281 19.78C18.279 19.7725 18.2746 19.7659 18.2684 19.7612C18.2623 19.7565 18.2547 19.754 18.247 19.754Z" fill="#0F9CDA" stroke="white" stroke-width="1.18823" stroke-miterlimit="10"/>
<path d="M12.505 1.06898H20.07C20.0784 1.06896 20.0867 1.0709 20.0942 1.07463C20.1017 1.07836 20.1082 1.08379 20.1133 1.09048C20.1183 1.09718 20.1217 1.10495 20.1232 1.1132C20.1248 1.12144 20.1243 1.12993 20.122 1.13798L18.367 7.15298C18.3636 7.16416 18.3567 7.17397 18.3474 7.18098C18.338 7.188 18.3267 7.19185 18.315 7.19198H9.95501C9.94312 7.19222 9.93137 7.18937 9.9209 7.18373C9.91043 7.17809 9.9016 7.16984 9.89526 7.15977C9.88893 7.14971 9.88529 7.13818 9.88472 7.12631C9.88415 7.11443 9.88666 7.10261 9.89201 7.09198L12.455 1.09998C12.4595 1.09053 12.4665 1.08258 12.4754 1.07707C12.4843 1.07157 12.4946 1.06876 12.505 1.06898Z" fill="#78C2ED" stroke="white" stroke-width="1.18823" stroke-miterlimit="10"/>
<path d="M18.4001 7.27096L20.1531 1.23096C20.1541 1.22605 20.1568 1.22165 20.1607 1.2185C20.1647 1.21534 20.1695 1.21362 20.1746 1.21362C20.1796 1.21362 20.1845 1.21534 20.1884 1.2185C20.1923 1.22165 20.195 1.22605 20.1961 1.23096L21.9961 7.65696C21.997 7.66124 21.997 7.66568 21.9961 7.66996L20.2461 13.708C20.245 13.7129 20.2423 13.7173 20.2384 13.7204C20.2345 13.7236 20.2296 13.7253 20.2246 13.7253C20.2195 13.7253 20.2147 13.7236 20.2107 13.7204C20.2068 13.7173 20.2041 13.7129 20.2031 13.708L18.4001 7.28296C18.399 7.27902 18.399 7.2749 18.4001 7.27096Z" fill="#123F76" stroke="white" stroke-width="1.19456" stroke-miterlimit="10"/>
<path d="M18.3061 7.25097L9.90606 7.21497C9.90017 7.2149 9.89436 7.21627 9.88913 7.21897C9.8839 7.22167 9.87941 7.22561 9.87605 7.23044C9.8727 7.23528 9.87058 7.24086 9.86988 7.24671C9.86919 7.25255 9.86993 7.25848 9.87206 7.26397L12.2791 13.905C12.2816 13.9121 12.2864 13.9181 12.2927 13.9223C12.299 13.9264 12.3065 13.9284 12.3141 13.928L20.1201 13.775C20.1257 13.7751 20.1312 13.7739 20.1362 13.7714C20.1413 13.7689 20.1456 13.7653 20.149 13.7608C20.1523 13.7563 20.1545 13.751 20.1554 13.7455C20.1563 13.74 20.1558 13.7343 20.1541 13.729L18.3411 7.27797C18.3391 7.27022 18.3345 7.26335 18.3282 7.25847C18.3219 7.25358 18.3141 7.25094 18.3061 7.25097Z" fill="#0F9CDA" stroke="white" stroke-width="1.18823" stroke-miterlimit="10"/>
<path d="M19.5 7.63505H27.066C27.0744 7.63519 27.0827 7.63726 27.0902 7.64111C27.0977 7.64496 27.1042 7.65048 27.1092 7.65725C27.1142 7.66401 27.1176 7.67184 27.1191 7.68013C27.1207 7.68842 27.1203 7.69694 27.118 7.70505L25.36 13.7201C25.3566 13.7312 25.3497 13.741 25.3403 13.7481C25.331 13.7551 25.3196 13.7589 25.308 13.7591H16.948C16.9361 13.7592 16.9244 13.7563 16.9139 13.7506C16.9035 13.745 16.8946 13.7368 16.8882 13.7268C16.8818 13.7168 16.8781 13.7053 16.8773 13.6935C16.8766 13.6816 16.8789 13.6698 16.884 13.6591L19.448 7.66505C19.4526 7.65538 19.46 7.64734 19.4693 7.64198C19.4786 7.63662 19.4893 7.63421 19.5 7.63505Z" fill="#78C2ED" stroke="white" stroke-width="1.18823" stroke-miterlimit="10"/>
<path d="M25.4 13.8371L27.15 7.80005C27.1511 7.79514 27.1538 7.79074 27.1577 7.78759C27.1616 7.78443 27.1665 7.78271 27.1715 7.78271C27.1766 7.78271 27.1814 7.78443 27.1853 7.78759C27.1892 7.79074 27.192 7.79514 27.193 7.80005L28.993 14.2271C28.994 14.231 28.994 14.2351 28.993 14.2391L27.243 20.2781C27.242 20.283 27.2392 20.2874 27.2353 20.2905C27.2314 20.2937 27.2266 20.2954 27.2215 20.2954C27.2165 20.2954 27.2116 20.2937 27.2077 20.2905C27.2038 20.2874 27.2011 20.283 27.2 20.2781L25.4 13.8501C25.399 13.8458 25.399 13.8413 25.4 13.8371Z" fill="#123F76" stroke="white" stroke-width="1.19456" stroke-miterlimit="10"/>
<path d="M25.3 13.818L16.9 13.782C16.8941 13.7819 16.8883 13.7833 16.883 13.786C16.8778 13.7887 16.8733 13.7926 16.8699 13.7975C16.8666 13.8023 16.8645 13.8079 16.8638 13.8137C16.8631 13.8196 16.8638 13.8255 16.866 13.831L19.273 20.471C19.2753 20.4781 19.2799 20.4843 19.286 20.4886C19.2921 20.4929 19.2995 20.4951 19.307 20.495L27.114 20.342C27.1196 20.3421 27.1251 20.3409 27.1301 20.3384C27.1352 20.3359 27.1395 20.3323 27.1429 20.3278C27.1462 20.3233 27.1484 20.318 27.1493 20.3125C27.1502 20.307 27.1497 20.3013 27.148 20.296L25.335 13.844C25.3325 13.8366 25.3278 13.8301 25.3216 13.8255C25.3153 13.8208 25.3078 13.8182 25.3 13.818Z" fill="#0F9CDA" stroke="white" stroke-width="1.18823" stroke-miterlimit="10"/>
</svg>
