<svg width="101" height="100" viewBox="0 0 101 100" fill="none" xmlns="http://www.w3.org/2000/svg">
<path d="M50.4008 99.8316H50.0406C26.7604 99.7721 11.1602 94.9414 7.92012 91.9594C4.50004 88.918 0 73.1742 0 49.916C0 26.7172 4.50004 10.9135 7.92012 7.87201C11.1602 4.89021 26.8204 0.0596365 50.0406 0H50.4008C73.6811 0.0596365 89.2811 4.89021 92.5213 7.87201C95.9414 10.9135 100.441 26.7172 100.441 49.916C100.441 73.1143 95.9414 88.918 92.5213 91.9594C89.2811 95.0012 73.6811 99.8316 50.4008 99.8316Z" fill="#0357EE"/>
<path d="M73.3812 52.8959L71.4611 29.578H59.8807C59.8807 29.578 51.0607 47.5287 50.2807 49.9738H50.1607L40.8606 29.578H29.2205L27.3004 49.7947L25.6804 70.3098H32.7605C35.8205 70.3098 37.0205 68.998 37.2605 65.7775C37.2605 65.7775 38.4605 46.9918 38.2805 44.2488H38.4005L38.7606 45.5008C39.2406 47.1709 45.8406 63.2131 45.8406 63.2131H54.5406C54.5406 63.2131 61.141 47.4094 61.9807 44.2488H62.1008L63.1209 65.7775C63.3611 68.998 64.6209 70.3098 67.6209 70.3098H74.7008L73.3812 52.8959Z" fill="white"/>
</svg>
