<svg width="59" height="57" viewBox="0 0 59 57" fill="none" xmlns="http://www.w3.org/2000/svg">
<path d="M30.342 0.000164385C24.2277 -0.0205106 18.2679 1.90957 13.3374 5.50707C8.40692 9.10454 4.76545 14.18 2.9476 19.9882C2.9232 20.0675 2.9178 20.1512 2.93177 20.233C2.94577 20.3147 2.97877 20.392 3.02815 20.4587C3.07755 20.5255 3.14195 20.58 3.2162 20.6175C3.29047 20.6552 3.37255 20.675 3.45587 20.6752H14.4521C14.5501 20.6762 14.6464 20.65 14.7304 20.5995C14.8143 20.5492 14.8826 20.4767 14.9277 20.39C16.4437 17.5545 18.7221 15.194 21.5085 13.5722C24.295 11.9505 27.4797 11.1315 30.707 11.2065C40.0087 11.375 47.2092 18.9865 47.545 27.7582C47.6932 31.6592 46.5057 35.4947 44.177 38.6367C41.8482 41.7787 38.5165 44.0407 34.727 45.0527C30.9375 46.0647 26.9147 45.7665 23.318 44.207C19.7209 42.6475 16.7628 39.9192 14.9277 36.4687C14.8831 36.383 14.8158 36.3112 14.7331 36.261C14.6504 36.2105 14.5555 36.1837 14.4586 36.1835H3.45587C3.37255 36.1837 3.29047 36.2035 3.2162 36.2412C3.14195 36.2787 3.07755 36.3332 3.02815 36.4C2.97877 36.4667 2.94577 36.544 2.93177 36.6257C2.9178 36.7075 2.9232 36.7912 2.9476 36.8705C4.515 41.8885 7.4494 46.376 11.425 49.8352C15.4006 53.2942 20.262 55.5897 25.4692 56.4662C30.6767 57.343 36.0262 56.7667 40.9245 54.8017C45.8225 52.8365 50.0775 49.5592 53.217 45.334C56.3565 41.1085 58.2577 36.1 58.7095 30.8645C59.1612 25.6292 58.146 20.3717 55.7765 15.6755C53.4067 10.9795 49.7755 7.02866 45.2857 4.26156C40.796 1.49449 35.6232 0.0194144 30.342 0.000164385Z" fill="#1DCF9F"/>
<path fill-rule="evenodd" clip-rule="evenodd" d="M14.0518 33.7918H0.570659C0.495434 33.7918 0.420959 33.7766 0.351534 33.7473C0.282084 33.7178 0.219034 33.6748 0.166009 33.6206C0.112959 33.5663 0.071009 33.5021 0.042509 33.4313C0.014034 33.3606 -0.00041589 33.2848 9.10968e-06 33.2083V23.9771C-0.00041589 23.9006 0.014034 23.8248 0.042509 23.7541C0.071009 23.6833 0.112959 23.6191 0.166009 23.5648C0.219034 23.5106 0.282084 23.4676 0.351534 23.4381C0.420959 23.4088 0.495434 23.3936 0.570659 23.3936H14.0518C14.127 23.3936 14.2015 23.4088 14.2709 23.4381C14.3403 23.4676 14.4034 23.5106 14.4564 23.5648C14.5095 23.6191 14.5514 23.6833 14.5799 23.7541C14.6084 23.8248 14.6228 23.9006 14.6224 23.9771V33.2083C14.6228 33.2848 14.6084 33.3606 14.5799 33.4313C14.5514 33.5021 14.5095 33.5663 14.4564 33.6206C14.4034 33.6748 14.3403 33.7178 14.2709 33.7473C14.2015 33.7766 14.127 33.7918 14.0518 33.7918Z" fill="#210F60"/>
</svg>
