<svg width="65" height="65" viewBox="0 0 65 65" fill="none" xmlns="http://www.w3.org/2000/svg">
<mask id="mask0_0_1" style="mask-type:alpha" maskUnits="userSpaceOnUse" x="0" y="12" width="49" height="30">
<path fill-rule="evenodd" clip-rule="evenodd" d="M5.87876 20.5517C0.641436 24.2909 -1.41609 30.9282 1.01553 41.3983C1.10905 40.8375 1.2961 40.3701 1.48315 39.8091C5.97229 26.6281 21.2166 28.0303 32.1589 27.7499C43.1948 27.5629 47.1227 20.7387 48.1515 12.6991C39.3603 20.5517 18.411 11.6708 5.87876 20.5517Z" fill="#D9D9D9"/>
</mask>
<g mask="url(#mask0_0_1)">
<path d="M48.124 11.8477H-1.62134V41.7512H48.124V11.8477Z" fill="url(#paint0_linear_0_1)"/>
</g>
<path fill-rule="evenodd" clip-rule="evenodd" d="M44.2671 2.53971C60.8175 9.40437 68.6225 28.3998 61.7578 44.9501C54.8933 61.5005 35.8978 69.3055 19.3474 62.441C16.1502 61.1245 13.2351 59.3377 10.7901 57.1749C9.00344 55.4823 6.74656 50.4042 7.31078 46.4548C7.875 42.5052 14.1755 42.6933 17.9369 43.9158C13.8934 46.0786 16.2443 51.1565 24.9896 53.8836C36.7441 57.457 51.4139 52.8492 56.6799 40.1542C62.4161 26.425 55.2694 10.3447 40.6937 4.3264C26.7763 -1.50386 6.8406 6.30116 0.822266 22.8516C1.10437 21.9112 1.48052 20.9709 1.85667 20.0304C8.72133 3.48006 27.7166 -4.41899 44.2671 2.53971Z" fill="#003399"/>
<path opacity="0.15" fill-rule="evenodd" clip-rule="evenodd" d="M1.50069 39.8839C5.99557 26.5499 21.2594 27.9583 32.122 27.7705C42.7038 27.5828 46.7304 21.2913 47.9478 13.6853C46.7304 16.0328 45.0448 17.9108 42.7973 19.3193C40.1754 20.9157 37.1788 21.6669 34.1822 22.0426C30.9047 22.512 27.6271 22.512 24.256 22.6999C19.012 22.8877 12.9252 23.1693 8.14936 25.7048C2.53076 28.7095 1.12612 34.4376 1.21976 40.4474C1.40705 40.1656 1.40705 40.0717 1.50069 39.8839Z" fill="#000066"/>
<mask id="mask1_0_1" style="mask-type:alpha" maskUnits="userSpaceOnUse" x="4" y="28" width="41" height="30">
<path fill-rule="evenodd" clip-rule="evenodd" d="M13.8888 33.205C3.34916 36.7919 0.431926 48.2133 10.8775 57.2749C8.05437 53.5936 9.65415 48.7797 12.8537 46.2311C21.323 39.5293 40.1439 49.346 44.0963 28.4854C36.5679 34.8097 24.2403 29.7125 13.8888 33.205Z" fill="#D9D9D9"/>
</mask>
<g mask="url(#mask1_0_1)">
<path d="M43.8909 28.4938H0.351929V57.175H43.8909V28.4938Z" fill="url(#paint1_linear_0_1)"/>
</g>
<path opacity="0.2" fill-rule="evenodd" clip-rule="evenodd" d="M12.868 46.3286C14.3673 45.1869 16.0541 44.5208 18.022 44.045C27.1118 42.1421 40.2312 45.6626 43.7922 29.2968C41.8243 32.4368 39.1067 34.6251 35.5457 35.9573C32.8281 37.0039 29.8294 37.3846 26.9244 37.5748C24.3006 37.7651 21.6767 37.8602 19.1465 38.2409C16.8037 38.5263 14.3673 39.0972 12.3057 40.239C12.0246 40.4294 11.7434 40.5245 11.4623 40.7148C10.1504 41.5711 9.11957 42.6177 8.3699 43.9499C7.33909 45.7577 6.96425 47.8511 7.33908 49.9444C7.71393 52.0376 8.65103 53.9407 9.86926 55.6534V55.5582C9.02587 53.3698 9.4007 51.0862 10.4315 49.0879C10.5252 48.9928 10.5252 48.8977 10.6189 48.8025C11.1811 47.8511 11.9309 46.9947 12.868 46.3286Z" fill="#000066"/>
<defs>
<linearGradient id="paint0_linear_0_1" x1="12.7757" y1="6.7" x2="30.5897" y2="40.8329" gradientUnits="userSpaceOnUse">
<stop stop-color="#003398"/>
<stop offset="1" stop-color="#4DEA8F"/>
</linearGradient>
<linearGradient id="paint1_linear_0_1" x1="31.0068" y1="20.818" x2="13.6042" y2="64.1107" gradientUnits="userSpaceOnUse">
<stop stop-color="#003398"/>
<stop offset="1" stop-color="#4DEA8F"/>
</linearGradient>
</defs>
</svg>
