<svg width="27" height="27" viewBox="0 0 27 27" fill="none" xmlns="http://www.w3.org/2000/svg">
<path d="M16.3789 7.82197C18.4997 7.82197 20.2189 6.10274 20.2189 3.98197C20.2189 1.86119 18.4997 0.141968 16.3789 0.141968C14.2582 0.141968 12.5389 1.86119 12.5389 3.98197C12.5389 6.10274 14.2582 7.82197 16.3789 7.82197Z" fill="#F16522"/>
<path d="M21.818 24.716C23.9388 24.716 25.658 22.9968 25.658 20.876C25.658 18.7552 23.9388 17.036 21.818 17.036C19.6973 17.036 17.978 18.7552 17.978 20.876C17.978 22.9968 19.6973 24.716 21.818 24.716Z" fill="#F16522"/>
<path d="M4.53995 21.133C6.66073 21.133 8.37995 19.4138 8.37995 17.293C8.37995 15.1722 6.66073 13.453 4.53995 13.453C2.41918 13.453 0.699951 15.1722 0.699951 17.293C0.699951 19.4138 2.41918 21.133 4.53995 21.133Z" fill="#F16522"/>
<path d="M5.05203 12.045C6.43053 12.045 7.54803 10.9275 7.54803 9.54898C7.54803 8.17047 6.43053 7.05298 5.05203 7.05298C3.67353 7.05298 2.55603 8.17047 2.55603 9.54898C2.55603 10.9275 3.67353 12.045 5.05203 12.045Z" fill="#F6921E"/>
<path d="M22.906 11.022C24.2845 11.022 25.402 9.90453 25.402 8.52603C25.402 7.14753 24.2845 6.03003 22.906 6.03003C21.5275 6.03003 20.41 7.14753 20.41 8.52603C20.41 9.90453 21.5275 11.022 22.906 11.022Z" fill="#F6921E"/>
<path d="M14.715 26.636C16.0935 26.636 17.211 25.5185 17.211 24.14C17.211 22.7615 16.0935 21.644 14.715 21.644C13.3365 21.644 12.219 22.7615 12.219 24.14C12.219 25.5185 13.3365 26.636 14.715 26.636Z" fill="#F6921E"/>
<path d="M8.827 24.46C9.78135 24.46 10.555 23.6864 10.555 22.732C10.555 21.7777 9.78135 21.004 8.827 21.004C7.87265 21.004 7.099 21.7777 7.099 22.732C7.099 23.6864 7.87265 24.46 8.827 24.46Z" fill="#FFC10E"/>
<path d="M24.57 15.885C25.5244 15.885 26.298 15.1113 26.298 14.157C26.298 13.2026 25.5244 12.429 24.57 12.429C23.6157 12.429 22.842 13.2026 22.842 14.157C22.842 15.1113 23.6157 15.885 24.57 15.885Z" fill="#FFC10E"/>
<path d="M9.21103 6.92597C10.1654 6.92597 10.939 6.15232 10.939 5.19797C10.939 4.24362 10.1654 3.46997 9.21103 3.46997C8.25668 3.46997 7.48303 4.24362 7.48303 5.19797C7.48303 6.15232 8.25668 6.92597 9.21103 6.92597Z" fill="#FFC10E"/>
</svg>
