<svg width="221" height="69" viewBox="0 0 221 69" fill="none" xmlns="http://www.w3.org/2000/svg">
<mask id="mask0_6_72" style="mask-type:luminance" maskUnits="userSpaceOnUse" x="0" y="0" width="221" height="69">
<path d="M220.69 0H0V68.9655H220.69V0Z" fill="white"/>
</mask>
<g mask="url(#mask0_6_72)">
<path d="M60.0835 14.1656V57.2852H66.7244V40.3357C68.573 43.6093 72.2346 45.2095 76.2192 45.2095C84.7808 45.2095 90.4703 38.8623 90.4703 29.5509C90.4703 20.2576 85.0322 13.5288 76.8653 13.5288C72.7372 13.5288 68.5011 15.9656 66.473 19.5485V14.1654L60.0835 14.1656ZM75.1423 39.2445C70.5832 39.2445 66.4734 35.4619 66.4734 29.5512C66.4734 23.6588 70.7092 19.6214 75.1423 19.6214C79.8987 19.6214 83.8294 23.7133 83.8294 29.5512C83.8294 35.4074 79.9703 39.2445 75.1423 39.2445ZM115.863 33.0249C114.911 37.1895 112.057 39.4447 107.75 39.4447C105.345 39.4447 103.263 38.6628 101.432 37.1897C99.6551 35.6621 98.7575 33.4071 98.7575 30.4609H119.973C120.17 29.2969 120.296 28.1511 120.296 26.9328C120.296 18.658 114.588 13.5293 106.745 13.5293C97.9501 13.5293 92.1166 20.4581 92.1166 29.1693C92.1166 38.9902 98.4527 45.2099 107.696 45.2099C114.786 45.2099 119.47 41.6269 121.553 35.2618L115.863 33.0249ZM98.7575 25.9687C99.332 21.8583 102.563 19.294 106.673 19.294C110.729 19.294 113.709 21.6037 113.709 25.3864L113.637 25.9687H98.7575ZM138.652 39.4445C133.842 39.4445 129.158 35.4071 129.158 29.1692C129.158 22.7676 133.645 19.294 138.024 19.294C142.385 19.294 145.545 22.0583 146.245 26.6052L152.257 24.6773C151.001 17.7481 145.419 13.529 138.024 13.529C129.732 13.529 122.822 20.0031 122.822 29.1692C122.822 38.7897 129.211 45.2095 138.975 45.2095C146.496 45.2095 152.329 40.7902 153.855 33.0245L147.824 30.7878C147.142 35.8435 144.216 39.4445 138.652 39.4445ZM155.555 35.9164C155.555 41.7542 160.491 45.2099 165.427 45.2099C170.739 45.2099 174.167 42.8457 175.497 39.4447V44.5733H181.831V25.6414C181.831 17.9485 177.076 13.5293 168.532 13.5293C161.191 13.5293 156.56 17.4395 155.232 23.4043L161.245 25.0049C161.945 21.3493 164.548 18.9671 168.532 18.9671C172.517 18.9671 175.497 21.2768 175.497 25.3323V27.5693L172.337 26.8054C170.614 26.3509 168.855 26.169 167.006 26.169C160.366 26.169 155.555 29.2968 155.555 35.9164ZM175.495 33.0249C175.495 37.0623 172.462 39.4447 168.083 39.4447C164.295 39.4447 162.519 37.6443 162.519 35.2618C162.519 32.5159 164.726 31.2245 168.083 31.2245C169.286 31.2245 170.937 31.4792 173.091 32.0609L175.495 32.6974V33.0249Z" fill="#1C9FF3"/>
<path d="M193.672 44.5729V27.6413C193.672 22.4401 196.724 19.2939 200.762 19.2939C204.567 19.2939 206.972 22.1127 206.972 26.9868V44.5729H213.614V24.6772C213.614 17.748 209.378 13.5289 203.114 13.5289C199.129 13.5289 195.772 15.0566 193.672 18.5846V14.1655H187.031V44.5729H193.672Z" fill="#1C9FF3"/>
<path d="M211.743 10.6603H212.705V6.6565H214.366V5.7594H210.066V6.6565H211.743V10.6603ZM214.864 10.6603H215.831V6.41831L217.121 10.6603H218.433L219.722 6.41831V10.6603H220.69V5.7594H218.952L217.776 9.80185L216.602 5.7594H214.864V10.6603Z" fill="#1C9FF3"/>
<path d="M30.3985 36.1657C28.0814 38.187 24.7556 38.8077 21.9266 37.75C21.6982 37.6634 21.5173 37.5693 21.3847 37.4865C21.7452 36.9607 22.8809 35.9746 25.2385 34.9584C27.6433 33.9167 29.905 33.6827 32.0132 34.2557C31.5497 34.9924 31.009 35.6327 30.3985 36.1657ZM46.453 37.1293C46.1506 36.5134 45.6623 36.0129 45.1728 35.5346C43.5438 33.9446 41.8073 32.4684 39.9799 31.1188C41.0063 23.2407 38.9125 14.9893 34.2618 8.59058C31.7682 5.16003 28.3432 2.19746 24.3183 0.820732C22.5513 0.216532 20.1456 -0.353207 18.3345 0.272413C16.3368 0.963226 14.3882 1.94903 12.6627 3.18817C10.4519 4.77493 8.53872 6.77541 6.97501 9.01246C4.17529 13.0174 2.46567 17.7174 1.38566 22.5015C-0.961619 32.9008 -0.388529 44.0495 3.59093 53.9252C5.54182 58.7634 8.41463 63.4074 12.7091 66.3031C17.0027 69.1991 22.9133 70.0148 27.3404 67.3322C28.0316 66.9136 28.6937 66.4005 29.1076 65.6995C30.2599 63.7424 28.5295 60.7989 26.2826 60.8938C25.173 60.9398 24.1811 61.5695 23.128 61.9274C20.5716 62.7972 17.6675 62.0014 15.4997 60.3762C13.3321 58.7505 11.8077 56.3927 10.6029 53.9479C7.44746 47.5403 6.22155 40.2653 6.41526 33.1067C6.58805 26.7515 7.88543 20.3439 10.8917 14.7632C12.0533 12.6083 13.4939 10.5552 15.4353 9.08534C17.3766 7.61641 19.8773 6.781 22.2594 7.23363C24.8235 7.71908 26.9245 9.59222 28.5516 11.6579C32.1588 16.2368 34.0799 22.1479 33.8647 28.0033C28.7771 26.8427 23.2207 27.9888 18.9844 31.071C16.6213 32.7905 14.5369 35.4803 14.9084 38.4055C15.3152 41.6093 18.518 43.7355 21.6388 44.396C27.6823 45.6746 34.3687 42.7662 37.6156 37.446C39.7244 38.7022 41.0545 41.5012 43.4973 41.6515C45.6333 41.7829 47.3964 39.1327 46.4745 37.1753C46.4682 37.1603 46.4602 37.1453 46.453 37.1293Z" fill="#1C9FF3"/>
</g>
</svg>
