<svg width="290" height="101" viewBox="0 0 290 101" fill="none" xmlns="http://www.w3.org/2000/svg">
<path opacity="0.87" d="M24.1457 13.7799C8.59317 13.7799 0.904053 21.0291 0.904053 33.0462V85.7123H14.249V65.4791C16.9877 67.9522 21.5854 69.1888 28.038 69.1888C41.2086 69.1888 47.491 62.2964 47.491 50.2752V33.0421C47.4827 21.0208 39.7936 13.7757 24.1498 13.7757L24.1457 13.7799ZM34.1336 48.6112C34.1336 54.711 30.7767 57.8024 24.1457 57.8024C17.5147 57.8024 14.249 54.6986 14.249 48.6112V34.7268C14.249 28.627 17.5188 25.5355 24.1457 25.5355C30.7725 25.5355 34.1336 28.6311 34.1336 34.7268V48.6112ZM130.411 13.7799C115.564 13.7799 107.875 21.5561 107.875 32.8637V50.1839C107.875 61.4955 115.564 69.1847 130.324 69.1847C145.084 69.1847 152.508 61.4955 152.508 50.1839V47.1837H139.694V48.773C139.694 54.516 136.598 57.4331 130.337 57.4331C124.075 57.4331 120.98 54.516 120.98 48.5946V34.3658C120.98 28.4444 124.158 25.5272 130.436 25.5272C136.715 25.5272 139.715 28.4444 139.715 34.1874V35.9551H152.529V32.8637C152.512 21.552 144.823 13.7716 130.416 13.7716L130.411 13.7799ZM205.224 14.6637H190.285L178.974 34.4612H172.251V0.347778H158.906V68.4004H172.251V45.7729H178.534L190.638 68.4004H206.016L190.198 40.6482L205.224 14.6637ZM231.158 13.7799C215.693 13.7799 207.647 21.1204 207.647 32.8637V50.2793C207.647 62.035 215.51 69.193 231.158 69.193C246.806 69.193 254.578 62.5661 254.578 53.1093V51.3416H241.669V51.7856C241.669 56.1177 238.221 58.3253 231.241 58.3253C224.262 58.3253 220.548 55.321 220.548 49.3996V45.1588H254.574V32.8761C254.583 20.9461 246.628 13.784 231.163 13.784L231.158 13.7799ZM241.669 36.4987H220.548V33.7475C220.548 27.6477 224.083 24.6434 231.154 24.6434C238.225 24.6434 241.669 27.6477 241.669 33.6562V36.4987ZM283.849 56.819C276.874 56.819 274.492 54.6156 274.492 46.4783V25.3571H289.074V14.6596H274.492V3.61762H261.147V47.3663C261.147 62.479 266.629 68.4875 280.766 68.4875H289.426V56.8232H283.849V56.819ZM91.1111 14.6928C86.4927 14.116 81.8452 13.8214 77.1894 13.8048C75.1934 13.7384 72.5668 13.9417 69.9443 14.1243C67.6496 14.2861 65.3549 14.4479 63.0809 14.8878C59.0143 15.6804 55.147 20.3735 54.6656 25.0915C53.9398 32.3429 53.7027 39.635 53.956 46.9182C54.1386 52.213 55.9852 56.5617 59.4625 59.9893C60.8567 61.3503 62.3962 62.5537 64.0519 63.5828C67.135 65.5206 70.3841 66.9937 73.683 68.3174C75.7283 69.1595 77.9929 69.3096 80.1314 68.7448C83.4344 67.8734 86.4968 66.2219 89.555 64.5953C91.6879 63.4666 93.6548 62.0599 95.4142 60.4125C98.4973 57.512 100.593 53.9102 101.149 49.2834C101.365 47.495 101.419 45.6775 101.46 43.8683C101.597 37.8141 101.286 31.7723 100.726 25.7513C100.182 19.888 96.1943 15.3152 91.1111 14.6886V14.6928ZM63.4004 21.7927C63.5622 21.5852 63.7531 21.3984 63.9689 21.2408C64.1349 21.137 64.305 21.0499 64.4834 20.971C64.5664 20.9129 64.6536 20.8673 64.749 20.83C64.9316 20.7553 65.1557 20.693 65.3715 20.6308C65.4876 20.6142 65.5997 20.5685 65.7283 20.5519L66.4628 20.4648C66.6039 20.4648 66.7325 20.4399 66.886 20.4316C67.0396 20.4233 67.1931 20.415 67.3466 20.4316L77.6915 20.7179L88.0363 20.4316H88.4969C88.638 20.4316 88.7791 20.4606 88.9201 20.4648C89.165 20.4897 89.4347 20.527 89.6546 20.5519C89.7833 20.5685 89.8953 20.6142 90.0115 20.6308C90.2273 20.693 90.443 20.7553 90.6339 20.83C90.7274 20.867 90.8164 20.9143 90.8995 20.971C91.0779 21.0499 91.248 21.137 91.414 21.2408C91.6256 21.3984 91.8165 21.581 91.9825 21.7927C92.717 22.7305 92.7958 24.0998 92.3062 25.714L92.0821 26.5397C91.9701 27.0169 91.8871 27.4983 91.829 27.9838C91.7543 28.4485 91.7086 28.9216 91.6962 29.3946C91.6609 30.0512 91.6609 30.7091 91.6962 31.3657C91.2024 31.4943 90.6547 31.6105 90.0654 31.7308C89.9741 30.8345 89.9451 29.9341 89.9783 29.0336C89.999 28.5606 90.0405 28.0875 90.1111 27.6186C90.1687 27.1321 90.2574 26.6498 90.3766 26.1746C90.4098 26.0584 90.4264 25.9464 90.4472 25.8302C90.7459 24.7098 90.6132 23.6973 90.0322 23.0002C89.4388 22.2076 88.4139 21.8383 87.0445 21.8715L77.6998 22.191L68.355 21.8715C66.9856 21.8341 65.9607 22.2076 65.3673 23.0002C64.7822 23.6973 64.6536 24.7098 64.9523 25.8302C64.9731 25.9464 64.9897 26.0584 65.0229 26.1746C65.1432 26.6476 65.2304 27.129 65.2885 27.6186C65.359 28.0875 65.4005 28.5606 65.4212 29.0336C65.4544 29.9341 65.4295 30.8345 65.3341 31.7308L63.7033 31.3657C63.7365 30.7059 63.7282 30.0337 63.7033 29.3946C63.6924 28.9218 63.648 28.4503 63.5705 27.9838C63.5125 27.4983 63.4295 27.0169 63.3174 26.5397C63.2386 26.2451 63.1763 25.9878 63.0933 25.714C62.5705 24.0998 62.6493 22.7346 63.388 21.7927H63.3963H63.4004ZM66.8694 28.9589C68.6496 28.9465 70.0355 28.6228 71.0356 27.9672C71.7117 27.5826 72.2261 26.9666 72.4838 26.2327C72.6788 25.7223 72.7452 25.1662 72.6664 24.6268C72.6412 24.434 72.6052 24.2429 72.5585 24.0542C72.4838 23.8508 72.4091 23.6351 72.3219 23.4359L77.6873 23.6434L83.0527 23.4359C82.9655 23.6392 82.8908 23.855 82.8162 24.0542C82.7722 24.2434 82.7362 24.4345 82.7083 24.6268C82.6336 25.1704 82.6958 25.7223 82.8908 26.2327C83.1485 26.9666 83.6629 27.5826 84.339 27.9672C85.3391 28.6228 86.725 28.9465 88.5052 28.9589C88.4678 29.9797 88.5052 31.0005 88.6131 32.0171C85.0086 32.6603 81.3469 32.9259 77.6873 32.8097C74.0274 32.9259 70.3675 32.6645 66.7616 32.0171C66.8653 31.0005 66.8985 29.9797 66.8528 28.9589H66.8611H66.8694ZM66.4877 25.8717C66.4877 25.8136 66.4794 25.7596 66.4669 25.7057C66.2927 25.021 66.3673 24.4069 66.7201 23.9795C67.1101 23.5106 67.7699 23.2574 68.6454 23.3072L70.6621 23.3653C70.9435 23.8504 71.1069 24.3948 71.1393 24.9546C71.1601 25.3779 71.0273 25.797 70.7742 26.1331C70.6331 26.3447 70.4546 26.5314 70.2472 26.6725C69.5127 27.2244 68.3425 27.4858 66.7947 27.4983C66.7947 27.4485 66.7782 27.4111 66.774 27.3572C66.7118 26.8551 66.6122 26.3613 66.4794 25.8758H66.4877V25.8717ZM88.6131 27.353C88.6131 27.4028 88.5965 27.4402 88.5923 27.4941C87.0445 27.4817 85.8744 27.2203 85.1399 26.6684C84.9303 26.5252 84.7511 26.3419 84.6129 26.1289C84.3559 25.7915 84.2266 25.3741 84.2478 24.9505C84.2809 24.3903 84.4428 23.8467 84.7249 23.3612L86.7416 23.3031C87.6213 23.2574 88.277 23.5064 88.667 23.9753C89.0197 24.4027 89.0944 25.0169 88.916 25.7015C88.9035 25.7555 88.8952 25.8136 88.8952 25.8675C88.7625 26.353 88.667 26.851 88.6006 27.3489H88.6089L88.6131 27.353ZM96.2192 35.9634C96.1972 36.4418 96.0314 36.9025 95.7434 37.2853C95.4554 37.668 95.0587 37.955 94.605 38.1087C83.5634 41.3578 71.8195 41.3578 60.7779 38.1087C60.3242 37.955 59.9275 37.668 59.6395 37.2853C59.3516 36.9025 59.1857 36.4418 59.1637 35.9634V33.511C59.1637 32.5939 59.8816 32.1001 60.7779 32.3616C71.8202 35.6064 83.5628 35.6064 94.605 32.3616C95.4972 32.1001 96.2192 32.5981 96.2192 33.511V35.9634Z" fill="#4B704D"/>
<g opacity="0.38">
<path d="M209.747 79.8615H212.875L212.149 84.0069C213.041 83.3429 214.141 83.011 215.402 83.011C216.896 83.011 217.975 83.4467 218.66 84.2973C219.324 85.1687 219.531 86.2476 219.303 87.5547L218.577 91.6171C218.058 94.6255 216.257 96.0157 212.502 96.0157C210.738 96.0157 209.431 95.5799 208.601 94.6878C207.771 93.7956 207.481 92.6545 207.73 91.2437L209.738 79.8615H209.747ZM216.133 87.8659C216.382 86.4343 215.739 85.7082 214.183 85.7082C212.626 85.7082 211.714 86.4343 211.465 87.8659L210.884 91.1233C210.635 92.5549 211.299 93.2811 212.855 93.2811C214.411 93.2811 215.299 92.5549 215.552 91.1233L216.133 87.8659ZM231.183 95.3974C230.602 98.7378 228.673 100.165 225.274 100.165H224.901C223.365 100.165 222.162 99.771 221.27 99.0033C220.378 98.2357 220.046 97.2813 220.274 96.165L220.336 95.8953H223.303C223.117 96.9534 223.78 97.5344 225.254 97.5344C226.872 97.5344 227.805 96.8497 228.034 95.5011L228.303 94.0488C227.494 94.609 226.519 94.8787 225.337 94.8787C223.863 94.8787 222.743 94.4637 222.017 93.6338C221.27 92.8039 221 91.7458 221.228 90.4636L222.494 83.289H225.623L224.424 90.0486C224.195 91.4802 224.818 92.1856 226.328 92.1856C227.839 92.1856 228.776 91.4802 229.025 90.0486L230.208 83.289H233.337L231.179 95.3974H231.183Z" fill="#4B704D"/>
<path fill-rule="evenodd" clip-rule="evenodd" d="M246.827 92.3475L246.848 92.1608C247.072 90.9947 246.545 90.4926 244.881 90.4926C243.217 90.4926 242.57 90.9947 242.366 92.1608L242.325 92.3682C242.101 93.5343 242.831 94.0571 244.271 94.0571C245.711 94.0571 246.645 93.3475 246.827 92.3475ZM252.487 91.4927L254.396 80.3968C254.413 80.3001 254.463 80.2124 254.538 80.1493C254.613 80.0863 254.709 80.0519 254.807 80.0524H257.027C257.255 80.0524 257.442 80.2391 257.442 80.4673C257.442 80.4922 257.442 80.513 257.437 80.5379L256.811 84.2185C257.583 83.6334 258.433 83.2185 259.994 83.2185C263.035 83.2185 264.23 85.3016 263.807 87.783L263.097 91.8661C262.591 94.8455 260.907 96.2854 257.155 96.2854C253.628 96.2854 252.006 94.2646 252.491 91.4927H252.487ZM260.131 91.3682L260.699 88.0983C260.923 86.8078 260.433 85.9323 258.794 85.9323C257.155 85.9323 256.363 86.8078 256.139 88.0983L255.57 91.3682C255.346 92.6587 255.836 93.5343 257.496 93.5343C259.155 93.5343 259.911 92.6587 260.131 91.3682ZM276.293 90.6171H268.484L268.322 91.6172C268.139 92.7209 268.463 93.721 270.409 93.721C272.094 93.721 272.903 93.2189 273.085 92.1774C273.098 92.1151 273.152 92.0736 273.21 92.0736H275.625C275.722 92.0736 275.815 92.1121 275.883 92.1806C275.952 92.249 275.99 92.3419 275.99 92.4388V92.4927C275.563 94.9534 273.882 96.2854 270.168 96.2854C266.454 96.2854 264.915 94.2231 265.384 91.5757L266.031 87.7207C266.579 84.7206 268.264 83.2185 272.015 83.2185C275.766 83.2185 277.227 85.2393 276.762 87.949L276.297 90.6171H276.293ZM268.952 87.9282L268.853 88.5755H273.7L273.82 87.9075C274.044 86.5755 273.517 85.7829 271.77 85.7829C270.023 85.7829 269.172 86.6585 268.952 87.9282ZM283.393 92.5757C285.057 92.5757 285.825 91.7002 286.049 90.4511L286.435 88.1398C286.659 86.8701 286.169 86.0153 284.53 86.0153C282.891 86.0153 282.115 86.8701 281.895 88.1398L281.509 90.4511C281.285 91.7002 281.754 92.5757 283.397 92.5757H283.393ZM284.812 83.2185C288.339 83.2185 290.003 85.2808 289.518 88.0942L288.219 95.6381C287.609 99.0781 285.725 100.348 282.418 100.348H282.073C279.131 100.348 277.227 98.8249 277.53 96.3477C277.555 96.2149 277.667 96.1194 277.803 96.1194H280.472C280.31 97.078 280.978 97.7461 282.397 97.7461C284.202 97.7461 284.953 96.8912 285.156 95.7045L285.439 94.1401C284.667 94.7667 283.837 95.1194 282.214 95.1194C279.418 95.1194 277.978 93.14 278.443 90.4096L278.891 87.7622C279.397 84.7829 281.082 83.2185 284.812 83.2185ZM248.172 81.6956C248.4 81.6956 248.587 81.8823 248.587 82.1105C248.587 82.1437 248.587 82.1769 248.574 82.2101L248.263 83.4965C250.126 84.1231 251.031 85.758 250.682 87.783L249.952 92.0321C249.504 94.6339 248.039 95.8414 245.769 96.1941L245.495 97.3103C245.449 97.4971 245.283 97.6299 245.093 97.6299H242.669C242.441 97.6299 242.254 97.4431 242.254 97.2149C242.254 97.1817 242.254 97.1485 242.267 97.1153L242.487 96.2107C240.258 95.8373 239.005 94.4057 239.267 92.4097L239.308 92.1193C239.59 89.8495 241.092 88.5133 244.603 88.5133C245.943 88.5133 246.935 88.7208 247.4 88.9905L247.582 87.8867C247.806 86.6792 247.279 85.8659 245.777 85.8659C244.52 85.8659 243.607 86.3016 243.424 87.4095H240.503C240.852 84.8783 242.18 83.5131 245.039 83.2641L245.342 82.0151C245.387 81.8284 245.553 81.6956 245.744 81.6956H248.167H248.172Z" fill="#4B704D"/>
</g>
</svg>
