<svg width="101" height="101" viewBox="0 0 101 101" fill="none" xmlns="http://www.w3.org/2000/svg">
<path d="M0.411362 0.0969696H100.411V100.097H0.411362V0.0969696Z" fill="#8934AD"/>
<path d="M19.5619 66.3252C19.5619 67.0426 19.2805 67.644 18.7179 68.1292C18.1552 68.6143 17.4977 68.857 16.7452 68.857C16.4077 68.857 16.0807 68.8008 15.7642 68.6882C15.94 68.6882 16.0982 68.6671 16.2389 68.625C16.267 68.618 16.4217 68.5582 16.7031 68.4456C17.111 68.291 17.4275 68.0835 17.6524 67.8233C17.9338 67.4998 18.0743 67.1094 18.0743 66.6522C18.0743 66.4977 18.0603 66.3535 18.0322 66.2198C17.9689 65.8259 17.7756 65.5306 17.4521 65.3336C17.1356 65.1368 16.7347 65.0384 16.2494 65.0384C16.0807 65.0384 15.9014 65.0489 15.7114 65.0699L15.3107 65.1228V71.3466C15.3107 71.5506 15.3212 71.7299 15.3422 71.8847C15.3633 72.0322 15.4194 72.1694 15.511 72.2961C15.5672 72.3805 15.634 72.4614 15.7114 72.5387C15.7996 72.6116 15.8951 72.6752 15.9963 72.7285H13.3907C13.5314 72.6582 13.6157 72.6126 13.6438 72.5913C13.714 72.5422 13.7775 72.4508 13.8336 72.3171C13.897 72.1835 13.9393 72.0322 13.9603 71.8635C13.9814 71.6877 13.9919 71.5119 13.9919 71.3361V65.418V65.281C13.9919 65.091 13.9814 64.9433 13.9603 64.8378C13.9463 64.7254 13.8972 64.6057 13.8126 64.4792C13.762 64.4016 13.7018 64.3306 13.6333 64.2682C13.5701 64.2119 13.4821 64.1557 13.3696 64.0994H16.6082C17.4029 64.0994 18.078 64.2857 18.6335 64.6585C19.2524 65.0735 19.5619 65.6291 19.5619 66.3252ZM33.2919 68.6461C33.2919 69.7854 32.8875 70.7735 32.0787 71.6103C31.2066 72.5105 30.0921 72.9606 28.7347 72.9606C27.2438 72.9606 26.0342 72.5317 25.1057 71.6736C24.1775 70.8085 23.7133 69.7291 23.7133 68.435C23.7133 67.2254 24.1107 66.1847 24.9054 65.3126C25.7705 64.3631 26.8921 63.8884 28.2705 63.8884C29.9373 63.8884 31.2208 64.3878 32.121 65.3864C32.9015 66.2585 33.2919 67.345 33.2919 68.6461ZM31.8256 68.4668C31.8256 67.468 31.5654 66.6417 31.0449 65.9877C30.4401 65.2282 29.5786 64.8484 28.4605 64.8484C27.4547 64.8484 26.6494 65.2282 26.0447 65.9877C25.4961 66.677 25.2219 67.5208 25.2219 68.5194C25.2219 69.5392 25.5384 70.3866 26.1714 71.0619C26.8112 71.7299 27.6235 72.064 28.608 72.064C29.5645 72.064 30.3522 71.6842 30.9712 70.9247C31.5407 70.2213 31.8256 69.4021 31.8256 68.4668ZM43.6043 70.9668L42.9398 72.7285H37.4333C37.5105 72.6935 37.5914 72.6582 37.6759 72.6231C37.7944 72.5538 37.8898 72.451 37.9501 72.3277C38.0208 72.2001 38.0673 72.0607 38.0873 71.9163C38.1154 71.7685 38.1294 71.6068 38.1294 71.431V65.4919V65.3442C38.1294 65.1263 38.1189 64.9575 38.0979 64.8378C38.0838 64.7184 38.0345 64.5917 37.9501 64.458C37.8938 64.3596 37.834 64.2892 37.7708 64.2471C37.7145 64.2049 37.6196 64.1557 37.4859 64.0994H40.1338C40.0072 64.1557 39.9122 64.2084 39.8489 64.2577C39.7856 64.2999 39.7224 64.3701 39.6591 64.4687C39.5747 64.6092 39.5219 64.7535 39.5008 64.9012C39.4798 65.0489 39.4693 65.2633 39.4693 65.5447V71.6103C39.5324 71.6315 39.7575 71.6666 40.1443 71.7159C40.5382 71.765 40.9214 71.7896 41.2942 71.7896C41.7231 71.7896 42.0607 71.744 42.3068 71.6526C42.5007 71.5765 42.6941 71.4991 42.887 71.4205C43.084 71.3361 43.3231 71.1849 43.6043 70.9668ZM57.178 72.7285H54.3298C54.4773 72.7145 54.6356 72.6161 54.8045 72.4331C54.8607 72.3699 54.8889 72.2926 54.8889 72.2012C54.8889 72.1166 54.8642 72.0077 54.815 71.8742L53.8656 69.5005H50.6059L49.8147 71.6526C49.759 71.8047 49.7304 71.9653 49.7303 72.1273C49.7303 72.2961 49.7691 72.4191 49.8464 72.4964C49.98 72.6231 50.1172 72.7005 50.2579 72.7285H47.7366C47.8311 72.6852 47.9227 72.6359 48.0108 72.5808C48.0882 72.5245 48.1656 72.4613 48.2429 72.391C48.3553 72.2785 48.4512 72.1506 48.5277 72.0112C48.577 71.9198 48.6438 71.772 48.7282 71.5682L51.3549 65.0171C51.3831 64.9468 51.4042 64.8871 51.4182 64.8378C51.4322 64.7815 51.4393 64.7219 51.4393 64.6585C51.4393 64.6092 51.4287 64.5461 51.4077 64.4687C51.3443 64.2647 51.1966 64.1417 50.9645 64.0994H53.0956L55.9649 71.1778C56.014 71.3185 56.0703 71.4626 56.1336 71.6103C56.197 71.751 56.2814 71.8952 56.3868 72.0429C56.4901 72.1806 56.6067 72.3077 56.7349 72.4226C56.8545 72.5282 57.0021 72.6301 57.178 72.7285ZM53.5596 68.5722L52.2726 65.3021L50.9645 68.5722H53.5596ZM69.5593 72.7285C69.5382 72.7356 69.4221 72.7426 69.2112 72.7496C69.0071 72.7566 68.761 72.7601 68.4728 72.7601H68.3145C67.8784 72.7601 67.5619 72.7391 67.365 72.697C67.1752 72.6477 66.9361 72.4824 66.6477 72.2012C66.4156 71.9761 66.1379 71.6561 65.8143 71.2412C65.5278 70.8697 65.243 70.497 64.9598 70.1229C64.7629 69.8768 64.5063 69.504 64.1898 69.0047C63.9507 68.625 63.7959 68.3754 63.7256 68.2557C63.8522 68.2557 64.014 68.2347 64.2108 68.1924C64.4128 68.1416 64.6103 68.0746 64.8015 67.9921C65.1533 67.8373 65.4275 67.644 65.6245 67.4119C65.8707 67.1235 65.9936 66.7859 65.9936 66.3991C65.9936 66.357 65.9901 66.3077 65.9831 66.2513C65.9761 66.1882 65.9726 66.1389 65.9726 66.1038C65.9163 65.7521 65.7335 65.4708 65.424 65.2598C65.1145 65.0419 64.7314 64.9328 64.2742 64.9328C64.0843 64.9328 63.8698 64.961 63.6307 65.0171L63.4303 65.0699V71.5364C63.4303 71.7264 63.4338 71.8742 63.4408 71.9796C63.4549 72.078 63.49 72.1835 63.5463 72.2961C63.6026 72.4085 63.6587 72.4929 63.715 72.5492C63.7714 72.5984 63.8593 72.6582 63.9787 72.7285H61.4682C61.5877 72.6722 61.6826 72.6161 61.7529 72.5598C61.8303 72.5035 61.8936 72.4191 61.9428 72.3066C61.9972 72.1935 62.0329 72.0724 62.0484 71.9478C62.0694 71.8213 62.08 71.6806 62.08 71.5259V65.4075C62.08 65.1473 62.0624 64.9575 62.0271 64.8378C61.9988 64.7108 61.9489 64.5895 61.8796 64.4792C61.781 64.3175 61.6335 64.1908 61.4364 64.0994H64.7279C65.4593 64.0994 66.064 64.2717 66.5422 64.6163C67.0838 65.0031 67.3545 65.5517 67.3545 66.2621C67.3545 66.7191 67.1647 67.1728 66.7849 67.6228C66.405 68.0659 65.9373 68.3612 65.3819 68.5089L65.2552 68.5406L67.365 71.2094C67.5057 71.3782 67.6956 71.5682 67.9347 71.7791C68.1315 71.9478 68.3145 72.085 68.4833 72.1905C68.6521 72.2891 68.8314 72.391 69.0212 72.4964C69.1759 72.5808 69.3552 72.6582 69.5593 72.7285ZM76.7122 72.7285H74.0749C74.1663 72.6792 74.2366 72.6406 74.2859 72.6126C74.3984 72.5422 74.4793 72.4543 74.5286 72.3487C74.5847 72.2363 74.627 72.1131 74.655 71.9796C74.6903 71.8389 74.7079 71.6842 74.7079 71.5154V65.418V65.281C74.7079 65.084 74.6973 64.9328 74.6763 64.8273C74.655 64.7219 74.5989 64.5952 74.5073 64.4475C74.4159 64.2999 74.2719 64.1838 74.0749 64.0994H76.7015C76.5891 64.1487 76.4977 64.2014 76.4273 64.2577C76.3517 64.32 76.2875 64.395 76.2375 64.4792C76.1882 64.5706 76.1461 64.7184 76.1108 64.9222C76.0757 65.1192 76.058 65.2985 76.058 65.4603V71.547C76.058 71.7159 76.0687 71.8564 76.0898 71.9691C76.1108 72.0745 76.1601 72.2047 76.2375 72.3592C76.2866 72.4508 76.3464 72.5245 76.4168 72.5808C76.4942 72.6301 76.5926 72.6792 76.7122 72.7285ZM87.4549 70.2284C87.4549 71.0794 87.0715 71.758 86.3049 72.2643C85.6087 72.7215 84.7684 72.9501 83.7836 72.9501C83.5024 72.9501 83.2493 72.9396 83.0242 72.9184C82.7926 72.8949 82.5633 72.8526 82.3386 72.7919L81.5473 72.5913L81.1993 70.9352L81.3786 71.0619C82.2577 71.6806 83.1015 71.9901 83.9103 71.9901C84.515 71.9901 85.0003 71.8742 85.3661 71.6421C85.7387 71.4029 85.9252 71.104 85.9252 70.7454C85.9252 70.2952 85.7564 69.9296 85.4189 69.6482C85.0884 69.3599 84.4166 68.9977 83.404 68.5617C82.6726 68.2452 82.145 67.8654 81.8215 67.4224C81.5614 67.0636 81.4314 66.6592 81.4314 66.2092C81.4314 65.4075 81.7477 64.8098 82.3807 64.4159C82.9363 64.0714 83.7029 63.8991 84.6805 63.8991C85.0461 63.8991 85.3731 63.9201 85.6615 63.9622C85.9498 63.9975 86.2522 64.0643 86.5687 64.1628L86.7057 64.2049V65.6817L86.5475 65.5342C86.3084 65.3161 86.0026 65.1368 85.6298 64.9961C85.2733 64.8571 84.8941 64.7855 84.5115 64.785C84.0826 64.785 83.7135 64.8871 83.404 65.091C83.0945 65.288 82.9398 65.5552 82.9398 65.8928C82.9398 66.3429 83.1368 66.7226 83.5305 67.0321C83.8119 67.2571 84.3322 67.5349 85.0919 67.8654C85.8584 68.1889 86.4315 68.5299 86.8114 68.8887C87.2403 69.2966 87.4549 69.7431 87.4549 70.2284ZM34.5315 83.5368C34.5315 84.2471 34.2221 84.8659 33.6031 85.3935C32.9421 85.9561 32.1122 86.2373 31.1136 86.2373H27.7696C27.875 86.195 27.9559 86.1529 28.0122 86.1107C28.0756 86.0685 28.1352 86.0087 28.1915 85.9314C28.2759 85.8119 28.3322 85.6922 28.3603 85.5728C28.3884 85.4531 28.4026 85.3091 28.4026 85.1403V78.9901V78.8424V78.7159C28.4026 78.5401 28.3884 78.3959 28.3603 78.2833C28.3411 78.1682 28.294 78.0595 28.2231 77.9668C28.16 77.8684 28.0896 77.7945 28.0122 77.7454C27.9222 77.69 27.8268 77.644 27.7273 77.6082H31.0926C31.845 77.6082 32.4675 77.7805 32.9598 78.125C33.4521 78.4698 33.6982 78.8917 33.6982 79.391C33.6982 79.9256 33.5926 80.3192 33.3817 80.5724C33.2761 80.6991 33.0194 80.8784 32.6115 81.1105L32.464 81.1949L32.6221 81.2582C33.2691 81.5184 33.7298 81.7891 34.004 82.0705C34.3557 82.4361 34.5315 82.9249 34.5315 83.5368ZM32.2529 79.5914C32.1826 79.1484 31.9893 78.8249 31.6728 78.6208C31.4266 78.4592 31.1171 78.3784 30.7443 78.3784C30.4771 78.3784 30.2663 78.4135 30.1115 78.4838L29.7633 78.6315V81.0684L30.2803 81.0789C30.7656 81.0789 31.198 80.9803 31.5779 80.7835C32.0419 80.5443 32.274 80.2138 32.274 79.7919C32.274 79.7566 32.267 79.6899 32.2529 79.5914ZM33.0547 83.5894C33.0547 83.027 32.8226 82.5908 32.3584 82.2813C31.9505 82.0071 31.4512 81.8699 30.8605 81.8699C30.7057 81.8699 30.5475 81.8806 30.3857 81.9017L29.7738 81.9966V85.1191L29.9849 85.214C30.3224 85.3687 30.6987 85.4461 31.1136 85.4461C31.6552 85.4461 32.1017 85.3021 32.4533 85.0136C32.8542 84.6831 33.0547 84.2084 33.0547 83.5894ZM48.1186 86.2373H45.2703C45.418 86.2233 45.5763 86.1249 45.745 85.9419C45.8014 85.8787 45.8294 85.8013 45.8294 85.7099C45.8294 85.6254 45.8049 85.5164 45.7556 85.3829L44.8063 83.0092H41.5466L40.7554 85.1614C40.6996 85.3134 40.671 85.4741 40.671 85.6361C40.671 85.8049 40.7098 85.9278 40.787 86.0052C40.9207 86.1319 41.0579 86.2092 41.1986 86.2373H38.6773C38.7718 86.194 38.8634 86.1447 38.9515 86.0896C39.0289 86.0333 39.1063 85.9701 39.1836 85.8998C39.296 85.7873 39.3919 85.6594 39.4684 85.5199C39.5177 85.4285 39.5845 85.2808 39.6689 85.077L42.2956 78.5259C42.3236 78.4556 42.3449 78.3959 42.3589 78.3466C42.3729 78.2903 42.38 78.2307 42.38 78.1673C42.38 78.118 42.3694 78.0549 42.3484 77.9775C42.285 77.7735 42.1373 77.6505 41.9052 77.6082H44.0361L46.9056 84.6866C46.9547 84.8273 47.011 84.9714 47.0743 85.1191C47.1375 85.2598 47.2219 85.404 47.3275 85.5517C47.4308 85.6893 47.5474 85.8165 47.6756 85.9314C47.795 86.037 47.9428 86.1389 48.1186 86.2373ZM44.5003 82.081L43.2133 78.8108L41.9052 82.081H44.5003ZM61.2066 77.6082C60.9254 77.7206 60.7214 77.8966 60.5949 78.1357C60.5417 78.2291 60.4993 78.3282 60.4682 78.431C60.4401 78.5364 60.4261 78.6666 60.4261 78.8214V79.0112L60.4366 86.6698C60.2326 86.6066 60.0568 86.5363 59.9091 86.4589C59.7615 86.3885 59.5963 86.2831 59.4133 86.1424C59.2929 86.0572 59.1799 85.9619 59.0757 85.8575C59.0266 85.8084 58.8754 85.6219 58.6222 85.2984L54.0017 79.4649L54.0122 84.8554V84.9926C54.0122 85.1614 54.0298 85.3161 54.065 85.4566C54.1071 85.5973 54.1986 85.7626 54.3393 85.9526C54.3745 85.9947 54.4447 86.051 54.5503 86.1213C54.6557 86.1845 54.7331 86.2233 54.7824 86.2373H52.2612C52.3609 86.1979 52.4563 86.1484 52.5459 86.0896C52.6726 86.0052 52.771 85.9068 52.8414 85.7943C52.9196 85.6722 52.9734 85.5361 52.9996 85.3935C53.0347 85.2387 53.0522 85.105 53.0522 84.9926V78.9373C53.0522 78.7685 53.0417 78.6173 53.0207 78.4838C53.0066 78.3501 52.9679 78.2342 52.9045 78.1357C52.8061 77.995 52.7147 77.8896 52.6303 77.8192C52.5529 77.7419 52.437 77.6715 52.2822 77.6082H54.3815C54.3956 77.7136 54.4096 77.7805 54.4236 77.8087C54.4659 77.8859 54.494 77.9352 54.508 77.9563C54.5573 78.0336 54.617 78.1215 54.6873 78.2201L59.445 84.2224V78.9901C59.445 78.765 59.431 78.5857 59.4028 78.4521C59.3817 78.3185 59.3219 78.1743 59.2235 78.0196C59.1701 77.9316 59.1024 77.8531 59.0231 77.7875C58.9457 77.7242 58.8472 77.6645 58.7277 77.6082H61.2066ZM67.9589 86.2373H65.3533C65.4657 86.174 65.5536 86.1142 65.617 86.058C65.6873 86.0017 65.7435 85.9243 65.7857 85.8259C65.8349 85.7275 65.8736 85.6043 65.9017 85.4566C65.937 85.3091 65.9545 85.1473 65.9545 84.9714V78.9163V78.7791C65.9545 78.5822 65.944 78.431 65.9229 78.3256C65.9017 78.2201 65.8491 78.1005 65.7647 77.9668C65.7084 77.8754 65.6486 77.805 65.5852 77.7559C65.5291 77.7066 65.4447 77.6575 65.3321 77.6082H67.9589C67.8463 77.6505 67.7549 77.6996 67.6845 77.7559C67.6142 77.805 67.5475 77.8789 67.4842 77.9775C67.3998 78.104 67.347 78.2236 67.3259 78.3361C67.3119 78.4485 67.3049 78.6103 67.3049 78.8214V84.8659C67.3049 85.091 67.3119 85.2738 67.3259 85.4145C67.347 85.5482 67.3998 85.6992 67.4842 85.868C67.5333 85.9526 67.5966 86.0263 67.674 86.0896C67.7636 86.1486 67.8591 86.1981 67.9589 86.2373ZM73.1384 86.2373H72.8852C72.7938 86.2373 72.6777 86.2408 72.5372 86.2478C72.1926 86.2478 71.8726 86.2373 71.5771 86.2163C71.2817 86.188 71.0743 86.1424 70.9547 86.0791C70.7789 85.9947 70.6805 85.9454 70.6594 85.9314C70.5257 85.854 70.378 85.7028 70.2163 85.4778L67.4629 81.775L69.7205 78.8003C69.7628 78.737 69.8049 78.6491 69.8471 78.5364C69.8893 78.424 69.9105 78.3185 69.9105 78.2201C69.9105 78.1145 69.8928 78.0301 69.8577 77.9668C69.7803 77.791 69.6396 77.6715 69.4357 77.6082H71.9252L68.8556 81.5008L71.5561 85.0557C71.6405 85.1684 71.7249 85.2703 71.8093 85.3617C71.9167 85.4592 72.0294 85.5508 72.1468 85.6361C72.3929 85.8189 72.5687 85.9419 72.6742 86.0052C72.7798 86.0685 72.9345 86.1459 73.1384 86.2373Z" fill="white"/>
<path d="M52.9552 14.132L36.3763 31.2373H44.5342L61.2886 14.132H52.9552ZM53.9201 23.9566L37.3412 41.0619H45.4991L62.2535 23.9566H53.9201ZM56.0254 32.5531L39.4464 49.6584H47.6043L64.3587 32.5531H56.0254Z" fill="#F2A809"/>
</svg>
