<svg width="92" height="20" viewBox="0 0 92 20" fill="none" xmlns="http://www.w3.org/2000/svg">
<path d="M0.506897 0.506348H7.43798L9.41827 2.67522H2.68523V12.5337H12.5868V6.42142L14.7651 8.5903V14.7026H0.506897V0.506348Z" fill="#1E1147"/>
<path d="M11.9927 2.28088L6.24982 8.19598L7.24 9.18182L13.1809 3.26672V4.8441L14.7652 6.42142V0.506348H9.22029L10.8045 2.28088H11.9927Z" fill="#E43625"/>
<path d="M18.2324 11.7244V3.72803H20.9791C21.6538 3.72803 22.2356 3.83821 22.7246 4.05856C23.2172 4.27536 23.5955 4.58632 23.8597 4.99148C24.1238 5.39304 24.2559 5.87284 24.2559 6.4308C24.2559 6.98876 24.1238 7.47212 23.8597 7.88084C23.5955 8.28596 23.219 8.59872 22.7299 8.81908C22.2445 9.0394 21.6662 9.14956 20.9952 9.14956H19.8815V11.7244H18.2324ZM19.8815 7.71024H20.8238C21.3842 7.71024 21.8144 7.60004 22.1142 7.37972C22.4176 7.1558 22.5693 6.83952 22.5693 6.4308C22.5693 6.0292 22.4176 5.71824 22.1142 5.49788C21.8144 5.274 21.3842 5.16204 20.8238 5.16204H19.8815V7.71024ZM26.9544 11.7244H25.4177V6.39348H26.7563L26.8098 7.31576C26.9883 6.99232 27.2311 6.74 27.538 6.55876C27.845 6.37752 28.1966 6.28688 28.5928 6.28688C28.707 6.28688 28.8213 6.29576 28.9355 6.31352C29.0533 6.32776 29.1728 6.35084 29.2942 6.38284L29.1014 7.7582C28.8659 7.69068 28.6428 7.65692 28.4322 7.65692C28.1359 7.65692 27.8753 7.72444 27.6504 7.85948C27.4292 7.991 27.2578 8.1758 27.1365 8.41392C27.0151 8.64848 26.9544 8.92392 26.9544 9.2402V11.7244ZM34.9322 11.1274C34.2683 11.5965 33.5419 11.831 32.753 11.831C32.1676 11.831 31.6411 11.7066 31.1735 11.4579C30.7095 11.2055 30.3418 10.8644 30.0706 10.4343C29.8028 10.0043 29.669 9.5192 29.669 8.979C29.669 8.46368 29.7904 8.00344 30.0331 7.59828C30.2794 7.19312 30.6131 6.87328 31.0343 6.63872C31.4555 6.40416 31.9338 6.28688 32.4692 6.28688C33.0225 6.28688 33.5097 6.4166 33.931 6.67604C34.3521 6.93192 34.6805 7.29088 34.9161 7.75288C35.1517 8.21132 35.2695 8.74264 35.2695 9.34684V9.5174H31.3235C31.3877 9.72708 31.493 9.91192 31.6394 10.0718C31.7857 10.2282 31.9677 10.3526 32.1855 10.445C32.4032 10.5374 32.6531 10.5836 32.9351 10.5836C33.4812 10.5836 33.9899 10.4077 34.461 10.0558L34.9322 11.1274ZM31.2538 8.73908H33.8506C33.8221 8.50808 33.7489 8.30552 33.6311 8.13136C33.5169 7.95368 33.3652 7.81508 33.176 7.71556C32.9904 7.61604 32.7816 7.56628 32.5496 7.56628C32.314 7.56628 32.1034 7.61784 31.9178 7.72088C31.7357 7.82396 31.5876 7.96256 31.4734 8.13672C31.3591 8.31084 31.286 8.51164 31.2538 8.73908ZM44.955 11.7244H43.4188V9.04828C43.4188 8.60404 43.3312 8.26108 43.156 8.01944C42.9813 7.77776 42.7334 7.65692 42.412 7.65692C42.0838 7.65692 41.8266 7.77952 41.641 8.02476C41.459 8.26996 41.3678 8.61116 41.3678 9.04828V11.7244H39.8312V9.04828C39.8312 8.60404 39.7438 8.26108 39.5689 8.01944C39.394 7.77776 39.1441 7.65692 38.8193 7.65692C38.4945 7.65692 38.2393 7.77952 38.0537 8.02476C37.8716 8.26996 37.7806 8.61116 37.7806 9.04828V11.7244H36.244V6.39348H37.4701L37.5236 7.27308C37.7021 6.94968 37.9412 6.70448 38.2411 6.53744C38.5445 6.3704 38.8961 6.28688 39.2958 6.28688C39.7135 6.28688 40.074 6.37396 40.3775 6.54808C40.6809 6.72224 40.9147 6.9728 41.079 7.29976C41.261 6.96924 41.5016 6.71868 41.8017 6.54808C42.1051 6.37396 42.4638 6.28688 42.8776 6.28688C43.5309 6.28688 44.0399 6.4948 44.4039 6.9106C44.7714 7.32284 44.955 7.90036 44.955 8.64316V11.7244ZM46.9365 5.1194C46.7328 5.1194 46.5616 5.04832 46.4222 4.90616C46.2832 4.764 46.2133 4.59164 46.2133 4.38908C46.2133 4.18648 46.2832 4.01592 46.4222 3.8773C46.5616 3.73514 46.7328 3.66406 46.9365 3.66406C47.1434 3.66406 47.3165 3.73514 47.4555 3.8773C47.5985 4.01592 47.6696 4.18648 47.6696 4.38908C47.6696 4.59164 47.5985 4.764 47.4555 4.90616C47.3165 5.04832 47.1434 5.1194 46.9365 5.1194ZM47.7074 11.7244H46.1707V6.39348H47.7074V11.7244ZM54.2663 11.7244H53.0185L52.9651 10.8715C52.7758 11.1842 52.5243 11.4223 52.2102 11.5858C51.8996 11.7493 51.5357 11.831 51.1178 11.831C50.4325 11.831 49.8953 11.6214 49.5064 11.202C49.1171 10.7826 48.9227 10.2069 48.9227 9.47476V6.39348H50.4594V9.12292C50.4594 9.53872 50.5574 9.86568 50.7539 10.1038C50.9535 10.3384 51.2251 10.4556 51.5678 10.4556C51.9245 10.4556 52.2066 10.333 52.4135 10.0878C52.6244 9.83904 52.7296 9.5032 52.7296 9.08028V6.39348H54.2663V11.7244ZM64.2839 11.7244H62.7472V9.04828C62.7472 8.60404 62.6596 8.26108 62.4849 8.01944C62.3101 7.77776 62.0618 7.65692 61.7408 7.65692C61.4122 7.65692 61.1551 7.77952 60.9695 8.02476C60.7875 8.26996 60.6967 8.61116 60.6967 9.04828V11.7244H59.16V9.04828C59.16 8.60404 59.0724 8.26108 58.8977 8.01944C58.7225 7.77776 58.4726 7.65692 58.148 7.65692C57.823 7.65692 57.5679 7.77952 57.3823 8.02476C57.2003 8.26996 57.1091 8.61116 57.1091 9.04828V11.7244H55.5728V6.39348H56.7985L56.8524 7.27308C57.0307 6.94968 57.2698 6.70448 57.5699 6.53744C57.8732 6.3704 58.2247 6.28688 58.6245 6.28688C59.0423 6.28688 59.4027 6.37396 59.706 6.54808C60.0093 6.72224 60.2431 6.9728 60.4074 7.29976C60.5894 6.96924 60.8305 6.71868 61.1302 6.54808C61.4335 6.37396 61.7922 6.28688 62.2064 6.28688C62.8597 6.28688 63.3683 6.4948 63.7323 6.9106C64.0999 7.32284 64.2839 7.90036 64.2839 8.64316V11.7244Z" fill="#1E1147"/>
<path d="M68.9582 11.7244H67.3091V5.16204H64.9424V3.72803H71.3302V5.16204H68.9582V11.7244ZM73.6326 11.7244H72.0959V6.39348H73.4341L73.4879 7.31576C73.6663 6.99232 73.909 6.74 74.2159 6.55876C74.5228 6.37752 74.8744 6.28688 75.2709 6.28688C75.385 6.28688 75.4991 6.29576 75.6136 6.31352C75.7313 6.32776 75.8506 6.35084 75.9723 6.38284L75.7795 7.7582C75.5437 7.69068 75.3207 7.65692 75.1102 7.65692C74.8137 7.65692 74.5534 7.72444 74.3284 7.85948C74.107 7.991 73.9359 8.1758 73.8146 8.41392C73.6932 8.64848 73.6326 8.92392 73.6326 9.2402V11.7244ZM81.9154 11.7244H80.668L80.6141 10.8715C80.4249 11.1842 80.1734 11.4223 79.8592 11.5858C79.5487 11.7493 79.1847 11.831 78.7669 11.831C78.0815 11.831 77.5444 11.6214 77.1555 11.202C76.7662 10.7826 76.5717 10.2069 76.5717 9.47476V6.39348H78.1084V9.12292C78.1084 9.53872 78.2065 9.86568 78.4029 10.1038C78.603 10.3384 78.8742 10.4556 79.2168 10.4556C79.5736 10.4556 79.8556 10.333 80.0629 10.0878C80.2734 9.83904 80.3787 9.5032 80.3787 9.08028V6.39348H81.9154V11.7244ZM82.847 11.266L83.1841 9.9652C83.2914 10.0825 83.434 10.1909 83.6128 10.2904C83.7948 10.3899 83.9892 10.4699 84.1961 10.5303C84.4066 10.5872 84.6051 10.6156 84.7907 10.6156C85.0116 10.6156 85.1848 10.5747 85.3097 10.493C85.4347 10.4077 85.4974 10.294 85.4974 10.1518C85.4974 10.0345 85.4544 9.93676 85.3688 9.8586C85.2868 9.77684 85.1744 9.70576 85.0313 9.64536C84.8923 9.5814 84.7368 9.5192 84.5657 9.45876C84.3335 9.36992 84.0945 9.26684 83.8482 9.14956C83.6055 9.03228 83.4002 8.87236 83.2323 8.6698C83.0648 8.46724 82.9808 8.19888 82.9808 7.86484C82.9808 7.54496 83.0648 7.26776 83.2323 7.0332C83.4002 6.79508 83.6377 6.61208 83.9446 6.48412C84.2515 6.35264 84.6083 6.28688 85.0153 6.28688C85.6757 6.28688 86.3342 6.45212 86.991 6.78264L86.5576 7.99276C86.4431 7.90392 86.3004 7.82216 86.1289 7.74756C85.9578 7.66936 85.781 7.60716 85.599 7.56096C85.4206 7.51476 85.2599 7.49168 85.1173 7.49168C84.9421 7.49168 84.8047 7.5272 84.7047 7.59828C84.6083 7.66936 84.5605 7.76708 84.5605 7.89148C84.5605 7.98388 84.5942 8.0674 84.6621 8.14204C84.73 8.21312 84.8297 8.2824 84.9618 8.34996C85.0976 8.41392 85.2635 8.4832 85.46 8.55784C85.7026 8.64668 85.9469 8.75332 86.1932 8.87772C86.4431 8.99852 86.652 9.162 86.8199 9.36816C86.9911 9.57072 87.0766 9.84084 87.0766 10.1784C87.0766 10.509 86.9858 10.7986 86.8038 11.0474C86.6251 11.2962 86.372 11.4898 86.0433 11.6284C85.7187 11.7635 85.3367 11.831 84.8975 11.831C84.166 11.831 83.4822 11.6427 82.847 11.266ZM91.6975 11.5858C91.2869 11.7493 90.8888 11.831 90.5035 11.831C90.1038 11.831 89.7502 11.7475 89.4433 11.5805C89.14 11.4099 88.9026 11.1736 88.731 10.8715C88.5599 10.5658 88.4743 10.214 88.4743 9.81596V7.7582H87.5374V6.39348H88.5546V5.06076H90.011V6.39348H91.4938V7.7582H90.011V9.53872C90.011 9.83016 90.0913 10.0576 90.2516 10.2211C90.4123 10.381 90.6124 10.461 90.8514 10.461C91.0692 10.461 91.2817 10.3935 91.4886 10.2584L91.6975 11.5858Z" fill="#E43625"/>
<path d="M20.2513 19.3496V13.0916H22.5769C23.253 13.0916 23.7768 13.2348 24.1483 13.5213C24.5226 13.805 24.7098 14.2041 24.7098 14.7187C24.7098 15.033 24.6357 15.3111 24.4877 15.5531C24.3396 15.7923 24.1399 15.9744 23.8885 16.0996C24.246 16.2053 24.524 16.3875 24.7223 16.6462C24.9235 16.902 25.0241 17.2163 25.0241 17.589C25.0241 17.945 24.936 18.2552 24.7601 18.5194C24.5868 18.7808 24.341 18.9852 24.0226 19.1327C23.7069 19.2773 23.3354 19.3496 22.908 19.3496H20.2513ZM21.542 15.7116H22.5057C22.7934 15.7116 23.0211 15.6435 23.1887 15.5072C23.3563 15.3709 23.4401 15.1859 23.4401 14.9523C23.4401 14.7242 23.3549 14.5448 23.1845 14.4141C23.0169 14.2806 22.7836 14.2138 22.4847 14.2138H21.542V15.7116ZM21.542 18.2273H22.5853C22.8144 18.2273 23.0127 18.1954 23.1803 18.1314C23.3479 18.0646 23.4764 17.9714 23.5658 17.8518C23.658 17.7295 23.7041 17.5876 23.7041 17.4263C23.7041 17.265 23.6622 17.1273 23.5784 17.0133C23.4974 16.8992 23.3787 16.813 23.2222 16.7546C23.0658 16.6934 22.88 16.6628 22.6649 16.6628H21.542V18.2273ZM29.5453 19.3496H28.4978L28.4349 18.8532C28.2813 19.0367 28.0913 19.18 27.865 19.2829C27.6387 19.383 27.3901 19.433 27.1192 19.433C26.8258 19.433 26.5646 19.3774 26.3356 19.2662C26.1065 19.1521 25.9263 18.9964 25.795 18.7989C25.6638 18.5986 25.5981 18.372 25.5981 18.1189C25.5981 17.8518 25.6693 17.6168 25.8118 17.4138C25.9543 17.2108 26.1498 17.0522 26.3984 16.9382C26.6498 16.8214 26.9348 16.763 27.2532 16.763C27.4404 16.763 27.6276 16.7838 27.8147 16.8255C28.0047 16.8672 28.1807 16.9257 28.3427 17.0008V16.8923C28.3427 16.7254 28.2952 16.5822 28.2002 16.4626C28.1081 16.3402 27.9795 16.2456 27.8147 16.1789C27.6527 16.1121 27.4711 16.0788 27.27 16.0788C27.0773 16.0788 26.8859 16.1094 26.6959 16.1705C26.5088 16.2317 26.3356 16.3235 26.1763 16.4459L25.8495 15.5322C26.1317 15.3876 26.4166 15.2791 26.7043 15.2068C26.9949 15.1317 27.2756 15.0942 27.5466 15.0942C27.9544 15.0942 28.3078 15.1748 28.6067 15.3361C28.9056 15.4947 29.1361 15.72 29.2981 16.012C29.4629 16.3012 29.5453 16.6448 29.5453 17.0425V19.3496ZM27.3832 18.511C27.5424 18.511 27.6946 18.4763 27.8399 18.4067C27.9851 18.3372 28.1025 18.2426 28.1919 18.123C28.284 18.0034 28.3329 17.8713 28.3385 17.7267V17.6975C28.2156 17.614 28.0787 17.5501 27.9279 17.5056C27.7798 17.4583 27.629 17.4346 27.4753 17.4346C27.2463 17.4346 27.0591 17.4847 26.9138 17.5848C26.7686 17.685 26.6959 17.8143 26.6959 17.9728C26.6959 18.0758 26.7253 18.1689 26.7839 18.2524C26.8454 18.333 26.9278 18.397 27.0312 18.4443C27.1345 18.4888 27.2519 18.511 27.3832 18.511ZM34.6658 19.3496H33.4632V17.2135C33.4632 16.8881 33.385 16.6336 33.2285 16.45C33.0749 16.2637 32.864 16.1705 32.5958 16.1705C32.3164 16.1705 32.0944 16.2679 31.9296 16.4626C31.7675 16.6545 31.6865 16.9159 31.6865 17.2469V19.3496H30.4839V15.1776H31.4561L31.498 15.8451C31.6488 15.6004 31.8458 15.414 32.0888 15.2861C32.3318 15.1581 32.6182 15.0942 32.9478 15.0942C33.4813 15.0942 33.9004 15.2582 34.2048 15.5864C34.5121 15.9119 34.6658 16.3624 34.6658 16.9382V19.3496ZM36.807 19.3496H35.6044V13.0916H36.807V16.9382L37.2176 16.4459L38.4244 15.1776H39.9287L38.1563 17.0342L40.1382 19.3496H38.5837L37.3308 17.7851L36.807 18.2607V19.3496Z" fill="#1E1147"/>
</svg>
