<svg width="70" height="61" viewBox="0 0 70 61" fill="none" xmlns="http://www.w3.org/2000/svg">
<path fill-rule="evenodd" clip-rule="evenodd" d="M10.4521 20.3815L15.1567 12.233H60.99L62.1658 14.2678L65.6945 20.3815H10.4521ZM16.9567 9.11481L21.6658 0.95874H54.4794L59.1885 9.11481H16.9567ZM54.4809 54.1965H27.6733C27.1552 54.1965 26.7188 54.4649 26.4809 54.8649L23.2158 60.5209H13.9006L21.5839 47.2134C21.9324 46.6088 22.8688 46.1194 23.6733 46.1194L59.1385 46.1285L54.4809 54.1965ZM65.6642 34.8268L60.9385 43.0118H21.0824C20.5733 43.0118 20.1476 43.2634 19.9052 43.6437L16.6855 49.2194H7.3703L15.0536 35.9134C15.4021 35.3088 16.3385 34.8193 17.143 34.8193L65.6642 34.8268ZM14.4991 31.7103C13.9991 31.7103 13.5627 31.9785 13.3248 32.3785L10.143 37.889H0.827881L8.5097 24.5846C8.85818 23.98 9.79454 23.489 10.5991 23.489L67.493 23.5012L69.8476 27.5785L67.4627 31.7088H14.5461L14.4991 31.7103Z" fill="#FDB813"/>
</svg>
