<svg width="82" height="100" viewBox="0 0 82 100" fill="none" xmlns="http://www.w3.org/2000/svg">
<path d="M60.6061 33.7021C62.2094 33.7021 63.7005 34.1991 65.1114 35.097L70.21 38.2876L74.9078 36.8927L81.8021 28.5875L67.0996 13.8849C61.3115 8.09684 53.0062 4.89017 43.8993 4.89017H43.6909C39.4581 1.81177 33.3494 0 27.0162 0C24.3547 0.0160333 21.7092 0.320667 19.1118 0.897867C20.202 4.0404 22.4467 7.69601 24.1943 10.2613C9.86051 18.5346 0 35.4818 0 54.9944C0 58.8905 0.400834 60.8947 0.400834 60.8947C0.400834 60.8947 5.11464 56.1007 11.3195 56.1007C11.3195 65.7047 5.22687 75.004 5.22687 75.004C20.7311 75.004 48.4207 82.2992 58.3133 89.0011C58.3133 84.3995 48.4207 72.9036 38.9129 66.6987C38.9129 66.6987 66.811 78.8039 71.0117 100C71.0117 100 73.1121 95.6069 73.1121 88.4079C73.1121 56.4053 31.8102 57.3032 31.5216 30.7199C31.4254 23.6171 34.3274 19.224 34.3274 19.224C33.6861 21.9497 33.3494 24.7395 33.3173 27.5293C33.3173 48.0199 54.818 48.9338 68.3181 61.8246L71.2201 46.1279L65.6245 47.9237L61.52 46.7212C57.0146 45.4225 54.4172 42.8251 54.4172 39.5222C54.4172 36.2193 56.9986 33.7021 60.6061 33.7021ZM43.5947 17.332C43.5947 17.332 46.9937 16.9312 49.3987 16.9312C54.4012 16.9312 59.1951 18.6307 62.0972 21.2282L59.0989 24.8357C56.5015 21.8374 48.1 17.7329 43.5947 17.332Z" fill="#9E9984"/>
</svg>
