<svg width="117" height="100" viewBox="0 0 117 100" fill="none" xmlns="http://www.w3.org/2000/svg">
<path d="M81.5469 99.9997H53.1066V71.5093C53.1066 52.7062 68.7778 37.3215 87.9316 37.3215H116.372V65.8115C116.372 84.615 100.701 99.9997 81.5469 99.9997Z" fill="#6E94E8"/>
<path d="M71.9709 80.6269H26.1185C11.6083 80.6269 0 69.2306 0 54.9856V25.641C0 11.396 11.6083 0 26.1185 0H72.2613C86.7716 0 98.38 11.396 98.38 25.641V55.2706C98.0897 69.2306 86.4813 80.6269 71.9709 80.6269Z" fill="#034EA2"/>
<path d="M74.8744 64.3875C77.9194 64.3875 80.3882 61.9641 80.3882 58.9744C80.3882 55.985 77.9194 53.5613 74.8744 53.5613C71.8291 53.5613 69.3604 55.985 69.3604 58.9744C69.3604 61.9641 71.8291 64.3875 74.8744 64.3875Z" fill="white"/>
</svg>
