<svg width="93" height="100" viewBox="0 0 93 100" fill="none" xmlns="http://www.w3.org/2000/svg">
<path d="M40.0271 43.2847C40.0271 45.183 41.5796 46.7695 43.4763 46.7695H49.722C52.2926 46.7717 54.7572 47.7938 56.5749 49.6115C58.3925 51.4292 59.4147 53.8938 59.4169 56.4644C59.4142 59.0346 58.3919 61.4988 56.5743 63.3161C54.7567 65.1334 52.2923 66.1553 49.722 66.1576V73.0915C58.8983 73.0915 66.3491 65.6406 66.3491 56.4644C66.3491 47.2864 58.8983 39.8339 49.722 39.8339H43.4779C41.5457 39.8339 40.0271 41.3864 40.0271 43.3186" fill="#B9975B"/>
<path d="M43.5136 59.9119H49.7577C50.2157 59.9132 50.6694 59.824 51.0928 59.6494C51.5162 59.4747 51.9009 59.2181 52.2247 58.8942C52.5486 58.5704 52.8052 58.1857 52.9799 57.7623C53.1545 57.3389 53.2437 56.8851 53.2424 56.4271C53.2424 54.4949 51.6899 52.9763 49.7577 52.9763H43.5136C40.943 52.974 38.4784 51.9519 36.6607 50.1342C34.8431 48.3166 33.8209 45.8519 33.8187 43.2814C33.8214 40.7111 34.8437 38.2469 36.6613 36.4296C38.4789 34.6123 40.9433 33.5904 43.5136 33.5881V26.6559C34.3373 26.6559 26.8865 34.1068 26.8865 43.2831C26.8865 52.4593 34.3373 59.9119 43.5136 59.9119Z" fill="#B9975B"/>
<path d="M85.7728 56.4271C85.7728 76.3322 69.6271 92.478 49.722 92.478H43.4779C23.5712 92.478 7.42709 76.3322 7.42709 56.4271V52.9763H0.525391V56.4271C0.525391 80.1627 19.7762 99.4119 43.5118 99.4119H49.7559C73.4915 99.4119 92.7423 80.1627 92.7423 56.4271V52.9763H85.8084V56.4271H85.7728ZM49.7559 0.296631H43.5118C19.7762 0.296631 0.525391 19.5475 0.525391 43.2831V46.7678H7.46098V43.2831C7.46098 23.3763 23.6067 7.23222 43.5118 7.23222H49.7559C69.6627 7.23222 85.8067 23.3763 85.8067 43.2831V46.7678H92.7423V43.2831C92.7084 19.5475 73.4915 0.296631 49.7559 0.296631Z" fill="#B9975B"/>
<path d="M13.7068 43.283V56.4627C13.7068 72.9186 27.0576 86.2695 43.5136 86.2695H49.7576C66.2153 86.2695 79.5644 72.9186 79.5644 56.4627V43.283C79.5644 26.8271 66.2136 13.4763 49.7576 13.4763H43.5136C27.0559 13.4763 13.7068 26.8271 13.7068 43.283ZM20.6407 43.283C20.6407 30.6559 30.8864 20.4102 43.5136 20.4102H49.7576C59.8322 20.4102 68.422 26.9305 71.4576 36.0034C68.6746 33.0384 65.3129 30.6759 61.5805 29.062C57.848 27.4481 53.8241 26.6171 49.7576 26.6203V33.5542C62.3848 33.5542 72.6305 43.8017 72.6305 56.4271C72.6305 69.0542 62.3848 79.3 49.7576 79.3H43.5136C33.439 79.3 24.8492 72.7458 21.8136 63.6729C24.5966 66.6378 27.9583 69.0003 31.6907 70.6142C35.4232 72.2282 39.4471 73.0592 43.5136 73.0559V66.1237C30.8864 66.1237 20.6407 55.8763 20.6407 43.2491V43.283Z" fill="#B9975B"/>
</svg>
