<svg width="98" height="98" viewBox="0 0 98 98" fill="none" xmlns="http://www.w3.org/2000/svg">
<path d="M61.6937 97.8937H51.7866C38.052 97.8937 24.88 92.4377 15.168 82.7263C5.45593 73.0148 -0.000626386 59.8431 -0.00140381 46.1086C-0.00140381 12.8814 20.6419 0.000335693 46.1074 0.000335693C74.7074 0.000335693 97.5194 19.5693 97.8923 51.7854V61.6928C97.522 78.82 87.59 97.8937 61.6937 97.8937Z" fill="#F15A01"/>
<path d="M41.1923 74.8903C33.5446 73.0377 29.1246 68.9089 29.1246 68.9089L35.0397 59.0023C35.0397 59.0023 41.9234 64.8446 47.7029 64.8549C50.2711 64.8549 55.166 64.6106 55.1777 59.7814C55.1777 56.0234 49.662 54.3183 43.5149 51.2346C37.3149 48.1503 33.6834 43.308 33.6946 37.9183C33.7034 29.7266 39.8471 24.0684 46.8037 22.5426C47.4497 21.5483 48.382 20.7732 49.4774 20.3196C50.5731 19.8661 51.7803 19.7554 52.9403 20.0021C53.7523 20.1738 54.5189 20.5164 55.1883 21.0071C55.8577 21.4979 56.4151 22.1256 56.8231 22.8485C60.3214 23.6259 63.6443 25.0484 66.6214 27.0433C66.642 27.054 68.7686 28.4963 68.7686 28.4963L61.8634 36.4534C61.8634 36.4534 56.7271 32.864 51.3903 32.864C48.4103 32.8537 46.4643 33.864 45.6634 35.538H45.6526C45.3683 36.1512 45.2246 36.8203 45.232 37.496C45.232 40.3786 50.1271 42.4537 56.0109 44.98C61.79 47.4326 68.1166 52.3377 68.1051 59.1166C68.0871 69.808 61.0357 74.4794 52.5909 75.5323C51.9906 76.4454 51.1726 77.1952 50.2109 77.7134C49.2489 78.232 48.1731 78.5032 47.0803 78.5023C45.8609 78.5034 44.6651 78.1666 43.6254 77.5289C42.586 76.8912 41.7437 75.978 41.1923 74.8903Z" fill="white"/>
<path d="M68.7691 28.4944L61.8643 36.4517C61.8643 36.4517 56.7277 32.8623 51.3911 32.8623C48.4109 32.852 46.4649 33.8623 45.6646 35.536H45.6543C52.9829 20.0726 65.7591 26.8304 66.622 27.0409C66.6411 27.0522 68.7691 28.4944 68.7691 28.4944Z" fill="url(#paint0_linear_0_1)"/>
<defs>
<linearGradient id="paint0_linear_0_1" x1="28.7111" y1="13.6245" x2="42.5214" y2="52.4703" gradientUnits="userSpaceOnUse">
<stop offset="0.141" stop-color="#999999"/>
<stop offset="0.799" stop-color="white"/>
</linearGradient>
</defs>
</svg>
