<svg width="17" height="20" viewBox="0 0 17 20" fill="none" xmlns="http://www.w3.org/2000/svg">
<path fill-rule="evenodd" clip-rule="evenodd" d="M16.0647 1.68609C16.0225 1.22915 15.7517 0.844186 15.3222 0.753942C13.1008 0.268004 10.8348 0.0153202 8.56087 0C6.28813 0.0155003 4.02322 0.268184 1.80294 0.753942C1.37343 0.844186 1.10385 1.22801 1.06272 1.68609C0.890233 3.58808 0.484711 8.50811 0.69147 10.4821C1.17924 15.1542 4.57534 18.0832 8.56087 19.4311C9.07511 19.2577 9.57994 19.0575 10.0733 18.8314L11.3698 18.146C14.0497 16.5342 16.067 14.0062 16.4326 10.4821C16.6439 8.50469 16.2327 3.59265 16.0647 1.68609Z" fill="url(#paint0_linear_1_2)"/>
<path fill-rule="evenodd" clip-rule="evenodd" d="M15.5038 2.28342C15.4661 1.85847 15.2137 1.50206 14.8184 1.41753C12.761 0.968051 10.6622 0.734511 8.55625 0.720703C6.45279 0.735936 4.35667 0.971013 2.30208 1.4221C1.90456 1.50663 1.65553 1.86304 1.61669 2.28799C1.45563 4.04604 1.08095 8.60396 1.274 10.4271C1.73093 14.7509 4.86658 17.4628 8.55854 18.7113C9.03581 18.5517 9.50408 18.3664 9.9613 18.1562L3.66943 5.5505L3.05258 5.07757C3.00489 5.04133 2.96603 4.99475 2.93892 4.94133C2.91182 4.88791 2.89717 4.82903 2.89609 4.76914V2.81232C2.89548 2.78657 2.89997 2.76096 2.9093 2.73695C2.91863 2.71295 2.93262 2.69102 2.95045 2.67244C2.96829 2.65386 2.98963 2.639 3.01323 2.62869C3.03683 2.61839 3.06224 2.61286 3.088 2.61241C3.12919 2.61314 3.16913 2.62671 3.20223 2.65125L4.72379 3.82671C4.7716 3.86472 4.80998 3.91326 4.83594 3.96854C4.8619 4.02383 4.87473 4.08436 4.87343 4.14543V4.92222C5.62055 4.50682 6.472 4.31677 7.32484 4.37504C8.71161 4.447 9.6643 5.39743 11.3229 5.48881C12.664 5.5585 13.5824 5.08328 14.2678 4.68918C14.3409 5.68872 14.4106 6.79564 14.4449 7.79176L14.4677 8.77988C13.7127 9.41159 12.4755 9.96676 11.7707 9.96676C10.6067 9.96676 9.81394 9.20826 8.71161 9.20826C8.19225 9.20809 7.68539 9.3676 7.25973 9.66519L11.1584 17.521C13.6407 16.0269 15.5095 13.6862 15.8419 10.4237C16.0407 8.59939 15.6614 4.04147 15.5038 2.28342ZM7.81718 16.8436L7.45392 16.6746C4.87229 15.386 3.01032 13.2487 2.69732 10.2649C2.61279 9.44586 2.65506 7.94826 2.74644 6.42324L7.81718 16.8436ZM11.3218 4.19683C9.66316 4.1043 8.75159 3.22813 7.36596 3.15502C6.87143 3.12799 6.37602 3.18871 5.90266 3.33437L4.64611 2.49589L4.68038 2.4879C5.96232 2.29966 7.25601 2.20271 8.55169 2.19775C10.4164 2.20972 12.2755 2.40446 14.1022 2.77919L14.1673 3.45317C13.4933 3.82671 12.6058 4.25966 11.3218 4.19112V4.19683ZM11.6131 15.426L9.48724 11.1582C9.37874 10.9465 9.23195 10.7567 9.0543 10.5985C9.71342 10.8132 10.5028 11.3341 11.7696 11.3341C12.9884 11.3341 14.0222 10.5951 14.4323 10.2044C14.205 12.4296 13.1564 14.1523 11.6131 15.4203V15.426Z" fill="white"/>
<defs>
<linearGradient id="paint0_linear_1_2" x1="2.89271" y1="-0.993832" x2="15.511" y2="17.4044" gradientUnits="userSpaceOnUse">
<stop offset="0.04" stop-color="#179ED9"/>
<stop offset="0.22" stop-color="#1B7AB6"/>
<stop offset="0.46" stop-color="#205491"/>
<stop offset="0.67" stop-color="#233977"/>
<stop offset="0.86" stop-color="#252867"/>
<stop offset="1" stop-color="#262261"/>
</linearGradient>
</defs>
</svg>
