<svg width="64" height="100" viewBox="0 0 64 100" fill="none" xmlns="http://www.w3.org/2000/svg">
<path d="M49.0557 98.1462L7.35189 70.9957C7.35189 70.9957 2.12141 67.9892 0.923708 62.3869C-0.757819 54.5216 4.78673 47.7785 4.78673 47.7785L58.9123 83.0279C63.0877 85.7492 64.2277 91.3162 61.5437 95.5152C58.7867 99.8289 53.1208 100.781 49.0557 98.1462Z" fill="#38D200"/>
<path d="M9.55367 41.9598C9.55367 41.9598 3.16541 38.1027 3.16541 29.1807C3.16541 20.2893 9.55112 16.4797 9.55112 16.4797L32.3507 1.5581C34.3573 0.253741 36.7999 -0.200067 39.1412 0.296515C41.4824 0.793096 43.5305 2.19939 44.8349 4.20603C46.1392 6.21267 46.593 8.65527 46.0965 10.9965C45.5998 13.3377 44.1936 15.3858 42.1869 16.6902L22.9711 29.2028L55.7121 50.5262C55.7121 50.5262 61.6056 53.9029 62.7668 59.6027C64.3872 67.5545 58.9139 74.1058 58.9139 74.1058L9.55367 41.9598Z" fill="#0473EA"/>
<path d="M52.4679 20.3112C50.3272 20.3112 48.8036 20.9903 47.3173 21.9537L36.1866 29.2027L47.3173 36.4517C48.818 37.4185 50.3926 38.0951 52.4679 38.0951C53.643 38.1065 54.8087 37.8851 55.8975 37.4433C56.9864 37.0016 57.9769 36.3484 58.8119 35.5216C59.6469 34.6948 60.3097 33.7107 60.7619 32.6262C61.2143 31.5416 61.4472 30.3782 61.4472 29.2032C61.4472 28.0281 61.2143 26.8647 60.7619 25.7802C60.3097 24.6956 59.6469 23.7115 58.8119 22.8847C57.9769 22.0579 56.9864 21.4047 55.8975 20.963C54.8087 20.5212 53.643 20.2998 52.4679 20.3112Z" fill="#38D200"/>
<path d="M9.43231 99.5853C11.573 99.5853 13.0968 98.9062 14.5822 97.9425L25.7129 90.6928L14.5822 83.4446C13.0823 82.4778 11.5078 81.8012 9.43231 81.8012C8.25732 81.7898 7.09169 82.0113 6.0028 82.4531C4.91391 82.8947 3.92337 83.5479 3.08842 84.3747C2.25347 85.2015 1.59068 86.1857 1.13835 87.2702C0.686021 88.3547 0.453125 89.5182 0.453125 90.6932C0.453125 91.868 0.686021 93.0316 1.13835 94.1162C1.59068 95.2007 2.25347 96.1853 3.08842 97.0116C3.92337 97.8389 4.91391 98.4916 6.0028 98.9334C7.09169 99.3752 8.25732 99.5962 9.43231 99.5853Z" fill="#0473EA"/>
</svg>
