<svg width="100" height="100" viewBox="0 0 100 100" fill="none" xmlns="http://www.w3.org/2000/svg">
<path d="M99.9443 50.0173C100.064 76.9745 78.1863 99.9403 50.0171 99.9767C22.5353 100.009 -0.0213981 77.8546 1.52333e-05 49.966C0.0214285 21.7133 23.0278 -0.0577009 50.0642 0.000114884C77.7452 0.0579308 100.079 22.6555 99.9443 50.0173ZM51.9465 30.2807C51.8587 38.345 58.6188 44.8803 66.5418 44.8782C74.1156 44.8782 81.1242 38.7625 81.1413 30.2593C81.1585 21.6769 74.1477 15.604 66.6146 15.589C58.8287 15.574 51.8544 22.0623 51.9465 30.2807Z" fill="#DB353A"/>
<path d="M52.0351 30.3233C51.943 22.1049 58.9173 15.6167 66.7032 15.6317C74.2364 15.6467 81.2471 21.7195 81.23 30.3019C81.2128 38.8051 74.2043 44.9208 66.6304 44.9208C58.7075 44.9208 51.9473 38.3876 52.0351 30.3233Z" fill="#FFFEFE"/>
</svg>
