<svg width="77" height="100" viewBox="0 0 77 100" fill="none" xmlns="http://www.w3.org/2000/svg">
<path fill-rule="evenodd" clip-rule="evenodd" d="M49.3682 20.9545C48.626 15.9099 49.492 11.5767 51.9667 7.95496C54.4413 4.3332 62.5456 1.68154 76.2798 0C73.234 1.94024 70.8831 4.59189 69.2271 7.95496C66.7429 12.9996 64.5871 19.0143 61.2464 20.9545C59.0193 22.248 55.6167 22.636 51.0387 22.1187C55.6838 15.9838 58.5633 12.3344 59.6769 11.1702C60.5656 10.241 54.8616 13.9946 51.9667 17.2681C51.4787 17.8199 50.6124 19.0487 49.3682 20.9545Z" fill="#7DBC0F"/>
<path fill-rule="evenodd" clip-rule="evenodd" d="M44.7438 15.0336C45.2864 11.6705 44.6533 8.78173 42.8451 6.36722C41.0367 3.9527 35.1142 2.18493 25.0778 1.0639C27.3036 2.35739 29.0213 4.12517 30.2316 6.36722C32.0469 9.73028 33.6224 13.7401 36.0636 15.0336C37.6911 15.8959 40.1778 16.1546 43.5231 15.8097C40.1287 11.7198 38.0244 9.28682 37.2107 8.5107C36.5611 7.89126 40.7296 10.3936 42.8451 12.576C43.2018 12.9439 43.8347 13.7631 44.7438 15.0336Z" fill="#7DBC0F"/>
<path fill-rule="evenodd" clip-rule="evenodd" d="M49.8402 58.08C49.8402 54.1847 46.7367 51.0251 42.904 51.0251C39.078 51.0251 35.9776 54.1825 35.9776 58.08C35.9747 61.9822 39.078 65.1387 42.9109 65.1387C46.7391 65.1418 49.8402 61.9853 49.8402 58.08ZM26.4798 54.194C26.4798 58.1231 27.5729 61.7811 29.4727 64.8869C28.428 62.8225 27.8371 60.4809 27.84 57.996C27.8371 49.6587 34.4804 42.8889 42.6778 42.8889C50.8722 42.8889 57.5102 49.6533 57.5162 57.9938C57.5162 66.3418 50.8722 73.1071 42.6778 73.1031C40.2371 73.1031 37.9342 72.5031 35.9073 71.4418C38.9616 73.3713 42.5567 74.4867 46.4122 74.4867C57.4218 74.4867 66.3507 65.4029 66.3507 54.194C66.3507 42.982 57.4187 33.8945 46.4122 33.8945C35.4027 33.8945 26.4776 42.982 26.4798 54.194ZM70.5511 40.7105C72.5462 44.6598 73.6818 49.1402 73.6818 53.8882C73.6818 69.8505 60.9744 82.7885 45.2918 82.7916C29.6104 82.7916 16.9054 69.8573 16.9032 53.8882C16.9032 37.9282 29.6127 24.9909 45.288 24.9909C49.9573 24.9909 54.3553 26.1402 58.2389 28.1722C52.4027 24.4771 45.5164 22.3405 38.1438 22.3405C17.0764 22.3405 0 39.7253 0 61.1718C0 82.6151 17.0764 100 38.1384 100C59.202 99.9969 76.2807 82.6176 76.2807 61.1656C76.2807 53.6602 74.1833 46.6525 70.5511 40.7105Z" fill="#FF9F06"/>
</svg>
