<svg width="65" height="26" viewBox="0 0 65 26" fill="none" xmlns="http://www.w3.org/2000/svg">
<g clip-path="url(#clip0_1_2267)">
<path d="M8.03491 17.864C7.81389 18.4619 7.63686 18.9646 7.60971 19.0238C7.54074 19.1738 7.03244 19.1483 6.85975 19.2178C6.55385 19.6322 6.36768 20.1227 6.32159 20.6358C6.67653 20.7042 7.04414 20.6512 7.36533 20.4852C7.71094 20.2783 8.03703 20.0404 8.33956 19.7744C8.90349 18.8782 9.40974 17.947 9.8552 16.9863C9.27106 17.3241 8.66294 17.6175 8.03491 17.864Z" fill="#78C2ED"/>
<path d="M7.54453 11.7457C7.73599 11.1821 8.03845 10.6626 8.43404 10.218C7.97264 10.5095 7.46311 10.7165 6.92926 10.8294C5.66777 11.0718 4.26399 10.5321 2.18303 11.6023C0.154207 12.6468 -0.152067 14.9827 0.0559201 15.1131C0.244357 15.2305 0.0993596 14.0724 2.72608 13.48C4.40562 13.132 6.02763 12.5484 7.544 11.7463" fill="#78C2ED"/>
<path d="M28.8032 1.60228C28.9705 1.25831 29.0949 0.895079 29.1736 0.520752C28.7347 0.533911 28.2991 0.601452 27.8768 0.721836C27.7112 0.74901 21.1832 -0.691205 17.2635 6.0164C19.1424 5.65879 19.8158 5.77727 19.1522 5.95336C18.834 6.0376 14.9675 7.04032 13.6924 7.37673C10.7458 8.15554 7.93936 9.65227 7.93936 12.8789C7.93936 14.3871 8.35045 14.9909 7.487 15.6871C6.92441 16.1403 5.14756 16.549 5.06339 16.7876C4.97921 17.0262 3.61182 20.6659 3.52711 20.8485C3.44239 21.0311 2.86459 20.9615 2.65389 21.0463C2.44319 21.1311 1.85452 22.6702 1.99626 22.7822C2.4307 22.8666 2.88091 22.8013 3.2735 22.5968C3.68378 22.3506 4.06505 22.0589 4.4101 21.7273C4.71855 21.4327 5.49999 19.3392 6.2331 18.3512C6.64393 17.8667 7.21946 17.5517 7.84867 17.4669C11.0782 16.5805 13.2319 14.1996 13.5186 11.9088C13.6023 11.2387 13.7521 10.7479 13.7934 11.5572C13.8201 12.0414 13.7951 12.5271 13.719 13.0061C14.7356 12.6925 16.8687 12.7452 18.5483 12.4153C19.5116 12.2719 20.4437 11.9662 21.3048 11.511C23.1132 11.3169 23.0589 11.3202 22.6342 11.9925C22.3551 12.4327 21.8251 13.2305 21.7002 13.4805C21.5248 13.8316 21.6681 13.8224 21.6524 13.9642C21.6355 14.1197 21.3461 14.4256 21.1126 14.2773C21.0866 14.258 21.057 14.2442 21.0255 14.2368C20.9941 14.2294 20.9614 14.2286 20.9296 14.2343C20.7096 14.2612 20.5039 14.3573 20.342 14.5088C20.1487 14.918 20.4642 16.0599 20.6586 15.968C20.9263 15.843 21.6393 15.4398 22.0705 15.1642C22.2492 15.0501 24.2362 11.3642 24.2085 11.0555C24.1765 10.7169 23.8946 10.0773 23.3641 10.0066C22.6119 9.90988 20.3447 9.65227 20.3447 9.60771C20.3447 9.48597 21.8549 9.49901 23.3977 9.64738C24.8824 7.8626 25.211 5.03705 25.9501 4.95825C26.2482 4.92455 26.9981 5.73434 27.7763 6.62239C27.8077 6.82449 27.8586 7.02306 27.9284 7.21531C28.1894 7.386 28.4922 7.48169 28.8038 7.49195C28.9732 7.46586 29.6384 6.90934 29.6645 6.70064C29.683 6.56532 28.8048 1.6001 28.8048 1.6001" fill="#78C2ED"/>
<path d="M26.8781 8.83909C26.6126 8.80485 25.3755 8.64832 24.4968 8.54126C24.2973 8.9711 24.0679 9.38642 23.8104 9.78419C24.0208 9.88247 24.2032 10.032 24.341 10.219L24.499 10.2054C26.0967 10.0739 26.4377 10.0206 26.3003 10.294C26.2634 10.3717 26.1977 10.4722 26.1162 10.6016C25.8669 10.9945 25.3945 11.7059 25.2832 11.9299C25.1262 12.2424 25.2544 12.2347 25.2408 12.3608C25.2251 12.4978 24.9693 12.7717 24.7591 12.6396C24.7358 12.6228 24.7095 12.6108 24.6815 12.6043C24.6535 12.5977 24.6245 12.5968 24.5962 12.6016C24.4 12.6259 24.2165 12.7114 24.0716 12.8461C23.899 13.2114 24.1803 14.2315 24.3551 14.1505C24.5935 14.0385 25.23 13.6782 25.6139 13.4331C26.2858 12.3701 26.8845 11.2624 27.4059 10.1179C27.466 10.005 27.5067 9.88282 27.5265 9.75647C27.5083 9.5598 27.4384 9.37146 27.3239 9.21054C27.2095 9.04962 27.0545 8.92184 26.8748 8.84017" fill="#78C2ED"/>
<path d="M21.225 20.7941C21.2235 20.7168 21.2374 20.6399 21.266 20.568C21.2946 20.4961 21.3373 20.4307 21.3915 20.3755C21.4458 20.3204 21.5105 20.2767 21.5818 20.2469C21.6532 20.2172 21.7298 20.202 21.8071 20.2023C21.8849 20.2018 21.9619 20.2169 22.0339 20.2465C22.1058 20.2761 22.1711 20.3197 22.2261 20.3747C22.281 20.4298 22.3245 20.4952 22.354 20.5672C22.3835 20.6392 22.3985 20.7163 22.398 20.7941V21.0463C22.5646 20.7717 22.7995 20.5451 23.0798 20.3886C23.3601 20.2321 23.6762 20.151 23.9972 20.1534C25.1518 20.1534 25.8202 20.9295 25.8202 22.1137V24.849C25.8216 24.9258 25.8076 25.0021 25.7789 25.0734C25.7502 25.1446 25.7074 25.2094 25.6532 25.2637C25.599 25.3181 25.5344 25.361 25.4633 25.3898C25.3921 25.4187 25.3159 25.4329 25.2392 25.4316C25.1619 25.4331 25.0852 25.4191 25.0134 25.3904C24.9416 25.3618 24.8763 25.319 24.8212 25.2648C24.7662 25.2105 24.7226 25.1458 24.6929 25.0744C24.6632 25.003 24.648 24.9264 24.6483 24.849V22.4719C24.6483 21.6757 24.2503 21.2219 23.5525 21.2219C23.39 21.2188 23.2287 21.2505 23.0794 21.3149C22.9301 21.3793 22.7964 21.4749 22.687 21.5953C22.5777 21.7157 22.4953 21.8581 22.4455 22.0129C22.3956 22.1677 22.3794 22.3314 22.398 22.4931V24.8507C22.398 25.0064 22.3361 25.1558 22.2261 25.2659C22.1161 25.376 21.9668 25.4379 21.8112 25.4379C21.6556 25.4379 21.5063 25.376 21.3963 25.2659C21.2862 25.1558 21.2244 25.0064 21.2244 24.8507L21.225 20.7941Z" fill="#78C2ED"/>
<path d="M19.6643 24.8407C19.6658 24.9181 19.652 24.995 19.6234 25.0669C19.5949 25.1388 19.5523 25.2043 19.4981 25.2595C19.4439 25.3147 19.3792 25.3585 19.3079 25.3883C19.2366 25.4181 19.16 25.4334 19.0827 25.4331C19.0049 25.4335 18.9278 25.4184 18.8559 25.3888C18.784 25.3591 18.7186 25.3155 18.6637 25.2604C18.6087 25.2053 18.5653 25.1398 18.5358 25.0678C18.5063 24.9958 18.4913 24.9186 18.4918 24.8407V24.588C18.3253 24.8629 18.0902 25.0898 17.8096 25.2463C17.5291 25.4029 17.2127 25.4837 16.8915 25.481C15.738 25.481 15.069 24.7054 15.069 23.5244V20.7875C15.0676 20.7107 15.0817 20.6343 15.1104 20.5631C15.1392 20.4918 15.1819 20.4271 15.2362 20.3728C15.2905 20.3184 15.3552 20.2756 15.4264 20.2469C15.4976 20.2181 15.5738 20.204 15.6506 20.2054C15.7279 20.2037 15.8047 20.2176 15.8766 20.2461C15.9485 20.2747 16.0139 20.3173 16.069 20.3716C16.1241 20.4258 16.1678 20.4906 16.1975 20.562C16.2272 20.6335 16.2424 20.7101 16.242 20.7875V23.1636C16.242 23.9581 16.64 24.4136 17.3378 24.4136C17.5004 24.4166 17.6618 24.3848 17.811 24.3203C17.9603 24.2557 18.0941 24.1601 18.2034 24.0396C18.3127 23.9191 18.395 23.7766 18.4447 23.6217C18.4945 23.4667 18.5105 23.3029 18.4918 23.1413V20.7842C18.4918 20.6285 18.5536 20.4793 18.6636 20.3692C18.7736 20.2591 18.9228 20.1973 19.0783 20.1973C19.2339 20.1973 19.383 20.2591 19.493 20.3692C19.603 20.4793 19.6648 20.6285 19.6648 20.7842L19.6643 24.8407Z" fill="#78C2ED"/>
<path d="M27.4011 20.7945C27.3995 20.7171 27.4135 20.6402 27.4421 20.5682C27.4708 20.4963 27.5135 20.4308 27.5678 20.3757C27.6221 20.3205 27.6869 20.2768 27.7583 20.2471C27.8297 20.2174 27.9064 20.2023 27.9837 20.2026C28.0615 20.2022 28.1386 20.2172 28.2106 20.2468C28.2825 20.2764 28.3479 20.32 28.4029 20.375C28.4579 20.4301 28.5014 20.4955 28.531 20.5675C28.5606 20.6395 28.5755 20.7166 28.5751 20.7945V24.8483C28.5705 25.0009 28.5066 25.1458 28.3971 25.2521C28.2876 25.3584 28.1409 25.4179 27.9883 25.4179C27.8357 25.4179 27.6891 25.3584 27.5796 25.2521C27.4701 25.1458 27.4062 25.0009 27.4016 24.8483L27.4011 20.7945Z" fill="#78C2ED"/>
<path d="M29.9219 22.8505V22.8293C29.9392 22.118 30.2331 21.4415 30.741 20.9437C31.2489 20.4458 31.9308 20.1659 32.6417 20.1633C33.3527 20.1608 34.0366 20.4358 34.548 20.93C35.0595 21.4242 35.3582 22.0986 35.3806 22.8097V22.8293C35.3794 23.1859 35.3071 23.5387 35.1678 23.8669C35.0285 24.1952 34.8251 24.4923 34.5696 24.7408C34.314 24.9893 34.0115 25.1842 33.6796 25.3141C33.3478 25.444 32.9933 25.5063 32.6371 25.4972C32.2838 25.5062 31.9323 25.4443 31.6033 25.3152C31.2742 25.1861 30.9743 24.9924 30.7213 24.7455C30.4682 24.4985 30.2672 24.2034 30.1299 23.8775C29.9926 23.5516 29.9218 23.2015 29.9219 22.8478M34.2081 22.8478V22.8293C34.217 22.6168 34.1831 22.4047 34.1083 22.2056C34.0335 22.0066 33.9195 21.8246 33.7729 21.6706C33.6263 21.5166 33.4503 21.3938 33.2552 21.3093C33.0602 21.2249 32.8502 21.1807 32.6377 21.1793C32.4274 21.1781 32.2191 21.2202 32.0257 21.3029C31.8323 21.3856 31.658 21.5071 31.5134 21.6599C31.3688 21.8128 31.2572 21.9937 31.1853 22.1914C31.1134 22.3892 31.0828 22.5996 31.0954 22.8097V22.8293C31.0873 23.0403 31.1215 23.2509 31.1961 23.4485C31.2707 23.646 31.3841 23.8266 31.5297 23.9796C31.6753 24.1325 31.85 24.2546 32.0436 24.3388C32.2372 24.423 32.4456 24.4674 32.6567 24.4695C32.8667 24.4719 33.075 24.4311 33.2687 24.3497C33.4624 24.2683 33.6373 24.148 33.7826 23.9963C33.928 23.8445 34.0407 23.6646 34.1138 23.4675C34.1869 23.2704 34.2188 23.0604 34.2076 22.8505L34.2081 22.8478Z" fill="#78C2ED"/>
<path d="M36.6698 20.7941C36.6683 20.7168 36.6822 20.64 36.7108 20.5681C36.7393 20.4963 36.782 20.4309 36.8361 20.3757C36.8903 20.3206 36.955 20.2768 37.0263 20.2471C37.0976 20.2173 37.1741 20.2021 37.2514 20.2023C37.3292 20.2018 37.4063 20.2168 37.4783 20.2463C37.5503 20.2759 37.6157 20.3194 37.6707 20.3745C37.7257 20.4296 37.7693 20.495 37.7988 20.5671C37.8283 20.6391 37.8433 20.7163 37.8428 20.7941V21.0463C38.0093 20.7717 38.2443 20.545 38.5246 20.3885C38.8049 20.232 39.1211 20.151 39.4421 20.1534C40.5971 20.1534 41.2656 20.9295 41.2656 22.1137V24.849C41.2669 24.9259 41.2528 25.0023 41.224 25.0735C41.1952 25.1448 41.1524 25.2096 41.098 25.264C41.0437 25.3183 40.979 25.3612 40.9078 25.39C40.8366 25.4188 40.7602 25.433 40.6834 25.4316C40.6061 25.4332 40.5293 25.4192 40.4575 25.3906C40.3857 25.3619 40.3203 25.3192 40.2652 25.265C40.2101 25.2107 40.1664 25.1459 40.1366 25.0745C40.1069 25.0031 40.0918 24.9264 40.0921 24.849V22.4719C40.0921 21.6757 39.6951 21.2219 38.9973 21.2219C38.8348 21.2188 38.6735 21.2505 38.5242 21.3149C38.3749 21.3793 38.2412 21.4749 38.1318 21.5953C38.0225 21.7157 37.9402 21.8581 37.8903 22.0129C37.8405 22.1677 37.8243 22.3314 37.8428 22.4931V24.8507C37.8428 25.0064 37.781 25.1558 37.6709 25.2659C37.5609 25.376 37.4116 25.4379 37.256 25.4379C37.1004 25.4379 36.9511 25.376 36.8411 25.2659C36.7311 25.1558 36.6693 25.0064 36.6693 24.8507L36.6698 20.7941Z" fill="#78C2ED"/>
<path d="M43.0717 19.1522C43.0696 19.1206 43.0741 19.0889 43.0849 19.0591C43.0958 19.0294 43.1127 19.0022 43.1346 18.9794C43.1566 18.9566 43.183 18.9386 43.2123 18.9266C43.2416 18.9146 43.2731 18.9089 43.3047 18.9098C43.3368 18.9087 43.3688 18.9143 43.3986 18.9261C43.4285 18.9379 43.4556 18.9557 43.4783 18.9784C43.501 19.0012 43.5188 19.0283 43.5306 19.0582C43.5424 19.0881 43.548 19.1201 43.5469 19.1522V21.4728C43.7503 21.1091 44.0452 20.8049 44.4023 20.5904C44.7595 20.3759 45.1664 20.2586 45.5828 20.25C45.9107 20.2566 46.2339 20.3289 46.5335 20.4626C46.833 20.5963 47.1027 20.7886 47.3268 21.0283C47.5508 21.268 47.7246 21.5502 47.8379 21.8583C47.9511 22.1663 48.0016 22.4939 47.9863 22.8218V22.8419C48.0018 23.1707 47.9516 23.4994 47.8387 23.8085C47.7257 24.1177 47.5522 24.4013 47.3284 24.6425C47.1045 24.8838 46.8349 25.078 46.5351 25.2136C46.2354 25.3493 45.9116 25.4237 45.5828 25.4326C45.17 25.4292 44.7651 25.3183 44.4081 25.1107C44.0512 24.9032 43.7544 24.6062 43.5469 24.2489V25.1142C43.5483 25.1455 43.5433 25.1769 43.5323 25.2063C43.5212 25.2356 43.5043 25.2625 43.4826 25.2851C43.4608 25.3078 43.4347 25.3258 43.4058 25.3381C43.377 25.3504 43.3459 25.3566 43.3145 25.3565C43.2826 25.3569 43.2509 25.3509 43.2213 25.3388C43.1917 25.3268 43.1648 25.309 43.1422 25.2864C43.1196 25.2638 43.1017 25.237 43.0896 25.2074C43.0775 25.1778 43.0715 25.1461 43.0717 25.1142V19.1522ZM47.4731 22.8609V22.8424C47.4926 22.5734 47.4573 22.3032 47.3693 22.0483C47.2813 21.7933 47.1425 21.5589 46.9613 21.3593C46.78 21.1596 46.5601 20.999 46.315 20.8869C46.0698 20.7749 45.8045 20.7139 45.535 20.7076C45.2631 20.7145 44.9952 20.775 44.7467 20.8855C44.4981 20.996 44.2738 21.1545 44.0864 21.3518C43.8991 21.5492 43.7524 21.7815 43.6548 22.0356C43.5572 22.2897 43.5106 22.5605 43.5176 22.8326V22.8511C43.5096 23.1235 43.5555 23.3948 43.6527 23.6493C43.7499 23.9039 43.8966 24.1367 44.0841 24.3342C44.2716 24.5318 44.4964 24.6903 44.7454 24.8006C44.9944 24.9108 45.2628 24.9707 45.535 24.9766C45.8054 24.9787 46.0732 24.9241 46.3211 24.8161C46.5691 24.7082 46.7917 24.5494 46.9745 24.35C47.1573 24.1506 47.2963 23.915 47.3824 23.6585C47.4686 23.402 47.5001 23.1303 47.4748 22.8609H47.4731Z" fill="#78C2ED"/>
<path d="M49.0051 23.8803V23.8613C49.0051 22.8325 49.8876 22.2499 51.1675 22.2499C51.7211 22.2447 52.2727 22.3166 52.8064 22.4635V22.2499C52.8064 21.2504 52.195 20.7363 51.1773 20.7363C50.6893 20.7373 50.208 20.8499 49.7703 21.0657C49.7377 21.0833 49.7014 21.0932 49.6644 21.0944C49.6057 21.0926 49.55 21.0684 49.5084 21.027C49.4669 20.9855 49.4427 20.9298 49.4406 20.8711C49.4412 20.8264 49.4542 20.7828 49.4782 20.7452C49.5022 20.7076 49.5362 20.6774 49.5764 20.658C50.0856 20.4163 50.6419 20.2903 51.2055 20.289C51.4887 20.2714 51.7725 20.3104 52.0405 20.4038C52.3084 20.4971 52.5552 20.6428 52.7663 20.8325C52.9409 21.019 53.0756 21.2393 53.1622 21.4797C53.2489 21.7201 53.2856 21.9757 53.2702 22.2309V25.1113C53.2717 25.1428 53.2669 25.1743 53.2558 25.2039C53.2448 25.2335 53.2279 25.2605 53.2062 25.2834C53.1844 25.3063 53.1583 25.3244 53.1293 25.3369C53.1003 25.3493 53.0691 25.3557 53.0375 25.3557C53.006 25.3557 52.9748 25.3493 52.9458 25.3369C52.9168 25.3244 52.8906 25.3063 52.8688 25.2834C52.8471 25.2605 52.8302 25.2335 52.8192 25.2039C52.8082 25.1743 52.8033 25.1428 52.8048 25.1113V24.4896C52.5908 24.7894 52.3065 25.0321 51.9769 25.1963C51.6474 25.3605 51.2825 25.4412 50.9145 25.4314C49.9913 25.4314 49.0035 24.9075 49.0035 23.8787M52.8146 23.4602V22.8983C52.2673 22.7521 51.7035 22.6772 51.1371 22.6754C50.0896 22.6754 49.508 23.1401 49.508 23.8298V23.8488C49.508 24.5673 50.1862 24.9847 50.9422 24.9847C51.9533 24.9847 52.8162 24.3651 52.8162 23.4629L52.8146 23.4602Z" fill="#78C2ED"/>
<path d="M54.9368 20.5707C54.9353 20.5385 54.9403 20.5063 54.9515 20.4761C54.9628 20.4459 54.98 20.4183 55.0022 20.395C55.0244 20.3717 55.0512 20.3531 55.0807 20.3405C55.1103 20.3278 55.1422 20.3212 55.1744 20.3212C55.2066 20.3212 55.2384 20.3278 55.268 20.3405C55.2976 20.3531 55.3243 20.3717 55.3465 20.395C55.3687 20.4183 55.386 20.4459 55.3972 20.4761C55.4085 20.5063 55.4135 20.5385 55.412 20.5707V21.2891C55.5812 20.9653 55.8385 20.6959 56.1541 20.5121C56.4698 20.3283 56.8309 20.2376 57.1959 20.2505C57.4644 20.236 57.733 20.2793 57.9835 20.3774C58.234 20.4754 58.4607 20.626 58.6481 20.8191C58.8356 21.0121 58.9796 21.2431 59.0704 21.4965C59.1613 21.7498 59.1968 22.0198 59.1747 22.288V25.1141C59.1768 25.1457 59.1722 25.1774 59.1613 25.2071C59.1504 25.2369 59.1334 25.264 59.1114 25.2868C59.0894 25.3095 59.063 25.3275 59.0336 25.3394C59.0043 25.3513 58.9728 25.357 58.9412 25.356C58.9091 25.3572 58.8771 25.3518 58.8472 25.3401C58.8173 25.3283 58.7902 25.3106 58.7675 25.2879C58.7447 25.2652 58.7269 25.238 58.7151 25.2081C58.7033 25.1783 58.6979 25.1462 58.699 25.1141V22.3777C58.7249 22.1597 58.703 21.9386 58.6349 21.7299C58.5667 21.5212 58.454 21.3299 58.3045 21.1693C58.1549 21.0086 57.9722 20.8825 57.7691 20.7997C57.5659 20.7168 57.3471 20.6793 57.128 20.6897C56.8978 20.6866 56.6693 20.7305 56.4566 20.8187C56.2439 20.9069 56.0514 21.0376 55.8908 21.2027C55.7302 21.3679 55.605 21.564 55.5226 21.7792C55.4403 21.9944 55.4026 22.2241 55.412 22.4544V25.1141C55.4142 25.1457 55.4097 25.1773 55.399 25.2071C55.3882 25.2368 55.3713 25.2639 55.3494 25.2867C55.3275 25.3095 55.3011 25.3275 55.2718 25.3394C55.2426 25.3513 55.2111 25.357 55.1795 25.356C55.1474 25.3571 55.1155 25.3516 55.0856 25.3399C55.0557 25.3282 55.0285 25.3104 55.0058 25.2877C54.983 25.2651 54.9651 25.2379 54.9533 25.2081C54.9414 25.1782 54.9358 25.1462 54.9368 25.1141V20.5707Z" fill="#78C2ED"/>
<path d="M60.9863 19.1521C60.9849 19.1207 60.9899 19.0893 61.001 19.0598C61.0121 19.0304 61.0291 19.0035 61.0508 18.9809C61.0726 18.9582 61.0988 18.9402 61.1277 18.928C61.1567 18.9157 61.1879 18.9095 61.2193 18.9097C61.2512 18.9093 61.2829 18.9153 61.3125 18.9274C61.3421 18.9394 61.3689 18.9573 61.3915 18.9798C61.4142 19.0024 61.432 19.0293 61.4441 19.0589C61.4562 19.0884 61.4623 19.1201 61.462 19.1521V23.5379L64.4966 20.395C64.5172 20.3726 64.5425 20.3549 64.5706 20.3431C64.5987 20.3314 64.629 20.3259 64.6595 20.3271C64.6891 20.3262 64.7185 20.3315 64.746 20.3425C64.7735 20.3534 64.7984 20.3699 64.8193 20.3908C64.8402 20.4118 64.8566 20.4368 64.8675 20.4644C64.8784 20.4919 64.8836 20.5214 64.8827 20.551C64.8826 20.5823 64.8755 20.6133 64.8619 20.6415C64.8483 20.6697 64.8285 20.6945 64.804 20.714L62.994 22.5597L64.9316 24.9553C64.9538 24.9786 64.9713 25.006 64.9829 25.0361C64.9946 25.0661 65.0002 25.0981 64.9994 25.1303C65.0002 25.1606 64.9946 25.1906 64.9831 25.2186C64.9716 25.2466 64.9544 25.2718 64.9326 25.2927C64.9107 25.3136 64.8848 25.3298 64.8564 25.3401C64.8279 25.3504 64.7977 25.3547 64.7676 25.3526C64.7272 25.3532 64.6874 25.3435 64.6517 25.3245C64.6161 25.3055 64.5859 25.2778 64.5639 25.2439L62.6633 22.8956L61.4615 24.1086V25.114C61.4636 25.1456 61.4591 25.1773 61.4483 25.2071C61.4375 25.2368 61.4205 25.264 61.3986 25.2868C61.3767 25.3097 61.3502 25.3276 61.3209 25.3396C61.2916 25.3516 61.2601 25.3573 61.2285 25.3564C61.1964 25.3575 61.1645 25.3519 61.1346 25.3401C61.1047 25.3283 61.0776 25.3105 61.0549 25.2878C61.0322 25.2651 61.0144 25.2379 61.0026 25.208C60.9908 25.1781 60.9853 25.1462 60.9863 25.114V19.1521Z" fill="#78C2ED"/>
</g>
<defs>
<clipPath id="clip0_1_2267">
<rect width="65" height="25" fill="white" transform="translate(0 0.5)"/>
</clipPath>
</defs>
</svg>
